<svg width="49" height="49" viewBox="0 0 49 49" fill="none" xmlns="http://www.w3.org/2000/svg">
<path fill-rule="evenodd" clip-rule="evenodd" d="M24.6094 48.1055C37.8642 48.1055 48.6094 37.3603 48.6094 24.1055C48.6094 10.8506 37.8642 0.105469 24.6094 0.105469C11.3545 0.105469 0.609375 10.8506 0.609375 24.1055C0.609375 37.3603 11.3545 48.1055 24.6094 48.1055ZM16.6094 18.1055C16.6094 16.4486 17.9525 15.1055 19.6094 15.1055C21.2662 15.1055 22.6094 16.4486 22.6094 18.1055V30.1055C22.6094 31.7623 21.2662 33.1055 19.6094 33.1055C17.9525 33.1055 16.6094 31.7623 16.6094 30.1055V18.1055ZM26.6094 18.1055C26.6094 16.4486 27.9525 15.1055 29.6094 15.1055C31.2662 15.1055 32.6094 16.4486 32.6094 18.1055V30.1055C32.6094 31.7623 31.2662 33.1055 29.6094 33.1055C27.9525 33.1055 26.6094 31.7623 26.6094 30.1055V18.1055Z" fill="white"/>
</svg>
