<svg width="128" height="128" viewBox="0 0 128 128" fill="none" xmlns="http://www.w3.org/2000/svg">
<path d="M95.7654 89.917H32.2354C30.1799 89.917 28.2087 90.7335 26.7553 92.1869C25.3019 93.6403 24.4854 95.6116 24.4854 97.667C24.4854 99.7224 25.3019 101.694 26.7553 103.147C28.2087 104.6 30.1799 105.417 32.2354 105.417H95.7654C97.8208 105.417 99.792 104.6 101.245 103.147C102.699 101.694 103.515 99.7224 103.515 97.667C103.515 95.6116 102.699 93.6403 101.245 92.1869C99.792 90.7335 97.8208 89.917 95.7654 89.917ZM95.7654 101.917H32.2354C31.1082 101.917 30.0272 101.469 29.2301 100.672C28.4331 99.8752 27.9854 98.7942 27.9854 97.667C27.9854 96.5398 28.4331 95.4588 29.2301 94.6618C30.0272 93.8648 31.1082 93.417 32.2354 93.417H95.7654C96.8925 93.417 97.9735 93.8648 98.7706 94.6618C99.5676 95.4588 100.015 96.5398 100.015 97.667C100.015 98.7942 99.5676 99.8752 98.7706 100.672C97.9735 101.469 96.8925 101.917 95.7654 101.917Z" fill="white" style="fill:white;fill-opacity:1;"/>
<path d="M32.2354 84.8529H49.8114C51.4763 84.8536 53.0972 84.3181 54.434 83.3256C55.7708 82.3332 56.7525 80.9367 57.2336 79.3428C57.7148 77.7489 57.6699 76.0424 57.1056 74.4761C56.5413 72.9097 55.4875 71.5667 54.1003 70.646C50.8859 68.5178 48.4426 65.4108 47.1323 61.7852C45.822 58.1597 45.7146 54.2085 46.8258 50.5171C47.937 46.8257 50.2079 43.5904 53.3018 41.2907C56.3958 38.9909 60.1483 37.7491 64.0033 37.7491C67.8584 37.7491 71.6109 38.9909 74.7049 41.2907C77.7989 43.5904 80.0697 46.8257 81.1809 50.5171C82.2921 54.2085 82.1847 58.1597 80.8744 61.7852C79.5641 65.4108 77.1208 68.5178 73.9063 70.646C72.5194 71.5666 71.4658 72.9093 70.9014 74.4754C70.337 76.0414 70.2918 77.7476 70.7726 79.3413C71.2534 80.9351 72.2346 82.3316 73.5709 83.3243C74.9072 84.3169 76.5277 84.8529 78.1924 84.8529H95.7654C97.8208 84.8529 99.792 84.0364 101.245 82.583C102.699 81.1296 103.515 79.1584 103.515 77.1029C103.515 75.0475 102.699 73.0763 101.245 71.6229C99.792 70.1695 97.8208 69.3529 95.7654 69.3529H94.5264C96.8033 64.2611 97.7703 58.6806 97.3394 53.1195C96.9086 47.5585 95.0934 42.1935 92.0594 37.5132C89.0253 32.8328 84.8687 28.9858 79.9679 26.3224C75.0672 23.6589 69.5781 22.2637 64.0004 22.2637C58.4226 22.2637 52.9335 23.6589 48.0328 26.3224C43.132 28.9858 38.9754 32.8328 35.9413 37.5132C32.9073 42.1935 31.0921 47.5585 30.6613 53.1195C30.2304 58.6806 31.1974 64.2611 33.4743 69.3529H32.2354C30.1799 69.3529 28.2087 70.1695 26.7553 71.6229C25.3019 73.0763 24.4854 75.0475 24.4854 77.1029C24.4854 79.1584 25.3019 81.1296 26.7553 82.583C28.2087 84.0364 30.1799 84.8529 32.2354 84.8529ZM32.2354 72.8529H36.3054C36.6099 72.8525 36.9091 72.7727 37.1734 72.6213C37.4377 72.4698 37.6579 72.2521 37.8123 71.9896C37.9667 71.727 38.0499 71.4287 38.0538 71.1242C38.0577 70.8196 37.982 70.5193 37.8344 70.2529C35.3003 65.6956 34.0005 60.5555 34.0635 55.3414C34.1266 50.1273 35.5504 45.0201 38.194 40.5255C40.8375 36.0308 44.6092 32.3045 49.1355 29.7155C53.6618 27.1265 58.7859 25.7646 64.0004 25.7646C69.2148 25.7646 74.3389 27.1265 78.8652 29.7155C83.3915 32.3045 87.1632 36.0308 89.8067 40.5255C92.4503 45.0201 93.8741 50.1273 93.9372 55.3414C94.0002 60.5555 92.7004 65.6956 90.1664 70.2529C90.0187 70.5193 89.943 70.8196 89.9469 71.1242C89.9508 71.4287 90.034 71.727 90.1884 71.9896C90.3428 72.2521 90.563 72.4698 90.8273 72.6213C91.0916 72.7727 91.3908 72.8525 91.6954 72.8529H95.7654C96.8925 72.8529 97.9735 73.3007 98.7706 74.0977C99.5676 74.8948 100.015 75.9758 100.015 77.1029C100.015 78.2301 99.5676 79.3111 98.7706 80.1081C97.9735 80.9052 96.8925 81.3529 95.7654 81.3529H78.1894C77.2768 81.3526 76.3885 81.0584 75.6561 80.5141C74.9236 79.9698 74.3858 79.2041 74.1222 78.3304C73.8587 77.4567 73.8833 76.5214 74.1926 75.6628C74.5018 74.8042 75.0792 74.0679 75.8393 73.563C79.68 71.019 82.5991 67.3056 84.1642 62.9728C85.7293 58.64 85.8571 53.9183 84.5287 49.5072C83.2003 45.096 80.4863 41.2301 76.7889 38.4822C73.0914 35.7342 68.6072 34.2503 64.0004 34.2503C59.3936 34.2503 54.9093 35.7342 51.2118 38.4822C47.5144 41.2301 44.8004 45.096 43.472 49.5072C42.1436 53.9183 42.2714 58.64 43.8365 62.9728C45.4016 67.3056 48.3207 71.019 52.1614 73.563C52.9215 74.0679 53.4989 74.8042 53.8081 75.6628C54.1174 76.5214 54.142 77.4567 53.8785 78.3304C53.6149 79.2041 53.0771 79.9698 52.3446 80.5141C51.6122 81.0584 50.7239 81.3526 49.8114 81.3529H32.2354C31.1082 81.3529 30.0272 80.9052 29.2301 80.1081C28.4331 79.3111 27.9854 78.2301 27.9854 77.1029C27.9854 75.9758 28.4331 74.8948 29.2301 74.0977C30.0272 73.3007 31.1082 72.8529 32.2354 72.8529Z" fill="white" style="fill:white;fill-opacity:1;"/>
</svg>
