<svg width="128" height="128" viewBox="0 0 128 128" fill="none" xmlns="http://www.w3.org/2000/svg">
<path d="M64.0003 108.619C61.9456 108.617 59.9757 107.799 58.5228 106.347C57.0699 104.894 56.2526 102.924 56.2503 100.869V49.4881C56.2492 47.6593 55.741 45.8668 54.7823 44.3095C53.8236 42.7522 52.4519 41.4913 50.8195 40.6669C49.1872 39.8424 47.3582 39.4868 45.5359 39.6394C43.7136 39.792 41.9693 40.447 40.4968 41.5314C39.0244 42.6159 37.8815 44.0875 37.1951 45.7825C36.5088 47.4775 36.3059 49.3297 36.6091 51.1331C36.9122 52.9365 37.7094 54.6205 38.9122 55.998C40.115 57.3756 41.6762 58.3926 43.4223 58.9361C44.394 59.2381 45.2968 59.7286 46.079 60.3795C46.8613 61.0305 47.5076 61.8291 47.9812 62.7298C48.4548 63.6305 48.7463 64.6157 48.8391 65.6291C48.932 66.6425 48.8243 67.6643 48.5223 68.6361C48.2202 69.6078 47.7297 70.5106 47.0788 71.2928C46.4279 72.0751 45.6292 72.7214 44.7285 73.195C43.8278 73.6686 42.8426 73.9601 41.8292 74.0529C40.8158 74.1458 39.794 74.0381 38.8223 73.7361C35.1588 72.6005 31.8003 70.6496 28.9989 68.03C26.1975 65.4103 24.026 62.19 22.6475 58.6109C21.2691 55.0318 20.7195 51.1868 21.04 47.3648C21.3605 43.5428 22.5428 39.8431 24.4981 36.5436C26.4534 33.244 29.1308 30.4303 32.3294 28.3138C35.528 26.1974 39.1645 24.8331 42.9659 24.3235C46.7673 23.8139 50.6348 24.1722 54.2779 25.3715C57.921 26.5708 61.245 28.58 64.0003 31.2481C66.7559 28.5837 70.0793 26.5781 73.7208 25.3817C77.3624 24.1852 81.2276 23.8291 85.0265 24.3399C88.8254 24.8507 92.4592 26.2153 95.6554 28.3312C98.8515 30.447 101.527 33.2593 103.481 36.5569C105.435 39.8546 106.617 43.5519 106.938 47.3715C107.259 51.1911 106.71 55.0338 105.334 58.6112C103.957 62.1887 101.789 65.4079 98.9903 68.0274C96.1919 70.6469 92.8367 72.5986 89.1763 73.7361C87.2137 74.3461 85.0891 74.1514 83.27 73.195C81.4509 72.2386 80.0863 70.5987 79.4763 68.6361C78.8663 66.6735 79.0609 64.5489 80.0173 62.7298C80.9738 60.9107 82.6137 59.5461 84.5763 58.9361C86.3236 58.3934 87.8863 57.3766 89.0904 55.999C90.2945 54.6213 91.0929 52.9366 91.3968 51.1323C91.7008 49.328 91.4983 47.4747 90.812 45.7786C90.1256 44.0825 88.9823 42.61 87.5091 41.5248C86.0359 40.4396 84.2906 39.7843 82.4672 39.6317C80.6439 39.4791 78.8139 39.8352 77.1809 40.6604C75.5478 41.4856 74.1756 42.7476 73.2169 44.3061C72.2582 45.8645 71.7505 47.6583 71.7503 49.4881V100.869C71.7479 102.924 70.9306 104.894 69.4777 106.347C68.0248 107.799 66.055 108.617 64.0003 108.619ZM46.3613 36.1001C49.9112 36.103 53.3149 37.5144 55.8251 40.0245C58.3354 42.5345 59.7471 45.9381 59.7503 49.4881V100.869C59.7503 101.996 60.198 103.077 60.9951 103.874C61.7921 104.671 62.8731 105.119 64.0003 105.119C65.1274 105.119 66.2084 104.671 67.0055 103.874C67.8025 103.077 68.2503 101.996 68.2503 100.869V49.4881C68.2511 47.0119 68.9386 44.5845 70.2363 42.4757C71.534 40.3668 73.3911 38.6592 75.6012 37.5425C77.8112 36.4258 80.2876 35.9439 82.7551 36.1502C85.2227 36.3566 87.5846 37.2432 89.5785 38.7115C91.5723 40.1797 93.12 42.1722 94.0494 44.4673C94.9788 46.7624 95.2535 49.2703 94.843 51.7121C94.4326 54.154 93.353 56.4342 91.7243 58.2993C90.0956 60.1645 87.9816 61.5414 85.6173 62.2771C84.6461 62.5784 83.8151 63.218 83.2751 64.0796C82.7351 64.9412 82.5219 65.9679 82.6741 66.9733C82.8262 67.9787 83.3338 68.8962 84.1046 69.5594C84.8754 70.2227 85.8584 70.5876 86.8753 70.5881C87.3032 70.5872 87.7286 70.5221 88.1373 70.3951C91.3614 69.3959 94.3107 67.6646 96.7548 65.3365C99.1988 63.0084 101.071 60.1466 102.226 56.9748C103.38 53.803 103.786 50.4072 103.41 47.0528C103.035 43.6983 101.888 40.4762 100.061 37.6382C98.2337 34.8003 95.7747 32.4234 92.8764 30.6934C89.978 28.9634 86.7188 27.9272 83.3536 27.6658C79.9883 27.4043 76.6082 27.9247 73.4774 29.1863C70.3466 30.4478 67.55 32.4164 65.3063 34.9381C65.1376 35.1145 64.9349 35.2549 64.7104 35.3508C64.4859 35.4468 64.2444 35.4962 64.0003 35.4962C63.7562 35.4962 63.5146 35.4468 63.2901 35.3508C63.0657 35.2549 62.863 35.1145 62.6943 34.9381C60.4494 32.4208 57.6531 30.4565 54.5237 29.1985C51.3942 27.9406 48.0164 27.423 44.6538 27.6861C41.2913 27.9493 38.0351 28.9862 35.1395 30.7158C32.2439 32.4453 29.7872 34.8208 27.9614 37.6566C26.1355 40.4925 24.9899 43.712 24.6139 47.0638C24.2379 50.4156 24.6417 53.809 25.7939 56.9789C26.946 60.1488 28.8153 63.0095 31.2557 65.3377C33.6961 67.6658 36.6416 69.3984 39.8623 70.4001C40.2713 70.5269 40.697 70.592 41.1253 70.5931C42.1421 70.5926 43.1251 70.2277 43.8959 69.5644C44.6667 68.9012 45.1743 67.9837 45.3265 66.9783C45.4786 65.9729 45.2654 64.9462 44.7254 64.0846C44.1854 63.223 43.3544 62.5834 42.3833 62.2821C39.3228 61.3321 36.7044 59.3161 35.0035 56.6002C33.3026 53.8844 32.6319 50.6486 33.1133 47.4804C33.5946 44.3122 35.1961 41.4217 37.6269 39.3336C40.0577 37.2454 43.1567 36.0982 46.3613 36.1001Z" fill="white" style="fill:white;fill-opacity:1;"/>
</svg>
