<svg width="128" height="128" viewBox="0 0 128 128" fill="none" xmlns="http://www.w3.org/2000/svg">
<path d="M64.0003 21.2501C55.4568 21.2357 47.1069 23.7944 40.0383 28.5931C39.3046 29.0905 38.6761 29.7276 38.1886 30.4679C37.7011 31.2083 37.3642 32.0374 37.1971 32.908C36.8598 34.6661 37.2346 36.4863 38.2393 37.9681C39.2439 39.4498 40.796 40.4718 42.5542 40.8092C43.4247 40.9762 44.3197 40.9702 45.1879 40.7914C46.0561 40.6126 46.8806 40.2645 47.6143 39.7671C53.5166 35.7755 60.6737 34.0774 67.7401 34.9919C74.8065 35.9064 81.2955 39.3705 85.9873 44.7331C82.2382 45.0139 78.6524 46.3824 75.6696 48.671C72.6869 50.9596 70.4366 54.0687 69.1947 57.6173C67.9529 61.1659 67.7733 64.9997 68.6781 68.6488C69.583 72.2979 71.5328 75.6038 74.2887 78.1611C77.0446 80.7184 80.4867 82.416 84.1932 83.046C87.8996 83.6759 91.7094 83.2107 95.1553 81.7075C98.6013 80.2042 101.534 77.7281 103.593 74.5828C105.653 71.4375 106.75 67.7597 106.75 64.0001C106.737 52.6661 102.229 41.8002 94.2145 33.7859C86.2002 25.7715 75.3342 21.2633 64.0003 21.2501ZM87.4303 79.8201C85.2595 79.8358 83.1086 79.4046 81.1117 78.5534C79.1147 77.7021 77.3143 76.4489 75.8225 74.8718C74.3307 73.2947 73.1794 71.4275 72.4404 69.3863C71.7013 67.3451 71.3903 65.1736 71.5266 63.007C71.6629 60.8405 72.2437 58.7251 73.2328 56.7927C74.2219 54.8602 75.5981 53.152 77.2758 51.7743C78.9535 50.3967 80.8968 49.379 82.9847 48.7848C85.0727 48.1905 87.2606 48.0323 89.4123 48.3201C89.7462 48.3598 90.0846 48.3035 90.3876 48.1577C90.6907 48.0119 90.9459 47.7828 91.1233 47.4971C91.2993 47.2095 91.3885 46.8772 91.3802 46.5401C91.3718 46.2031 91.2663 45.8756 91.0763 45.5971C86.2042 38.4225 78.6845 33.474 70.1678 31.8379C61.651 30.2017 52.8331 32.0115 45.6493 36.8701C45.296 37.1097 44.8989 37.2773 44.4808 37.3635C44.0627 37.4496 43.6317 37.4526 43.2124 37.3721C42.3657 37.2097 41.6182 36.7176 41.1343 36.0041C40.6504 35.2905 40.4698 34.4139 40.6322 33.5672C40.7946 32.7205 41.2867 31.9729 42.0003 31.4891C47.9038 27.4955 54.7831 25.1846 61.9004 24.8042C69.0176 24.4239 76.1041 25.9884 82.3996 29.33C88.6951 32.6716 93.962 37.6642 97.6353 43.772C101.309 49.8799 103.25 56.8727 103.25 64.0001C103.246 68.1943 101.577 72.2154 98.6114 75.1812C95.6456 78.147 91.6245 79.8153 87.4303 79.8201Z" fill="white" style="fill:white;fill-opacity:1;"/>
<path d="M87.4304 54.6802C85.587 54.6802 83.7851 55.2268 82.2524 56.2509C80.7198 57.275 79.5252 58.7306 78.8198 60.4336C78.1144 62.1366 77.9298 64.0105 78.2894 65.8184C78.6491 67.6263 79.5367 69.287 80.8401 70.5904C82.1436 71.8938 83.8042 72.7815 85.6121 73.1411C87.42 73.5007 89.294 73.3161 90.997 72.6107C92.7 71.9053 94.1556 70.7108 95.1797 69.1781C96.2038 67.6454 96.7504 65.8435 96.7504 64.0002C96.7474 61.5293 95.7646 59.1604 94.0174 57.4132C92.2702 55.6659 89.9013 54.6831 87.4304 54.6802ZM87.4304 69.8202C86.2793 69.8202 85.154 69.4788 84.1969 68.8393C83.2398 68.1998 82.4939 67.2909 82.0534 66.2274C81.6129 65.1639 81.4976 63.9937 81.7222 62.8647C81.9468 61.7358 82.5011 60.6988 83.315 59.8848C84.1289 59.0709 85.166 58.5166 86.2949 58.292C87.4239 58.0674 88.5941 58.1827 89.6576 58.6232C90.721 59.0637 91.63 59.8097 92.2695 60.7668C92.909 61.7239 93.2504 62.8491 93.2504 64.0002C93.2482 65.5431 92.6344 67.0222 91.5434 68.1132C90.4524 69.2042 88.9733 69.8181 87.4304 69.8202Z" fill="white" style="fill:white;fill-opacity:1;"/>
<path d="M49.892 64C49.8922 62.1565 49.3457 60.3543 48.3217 58.8213C47.2976 57.2884 45.842 56.0936 44.1389 55.3879C42.4358 54.6822 40.5617 54.4974 38.7535 54.8569C36.9454 55.2163 35.2845 56.1039 33.9808 57.4073C32.6771 58.7108 31.7891 60.3715 31.4293 62.1796C31.0695 63.9876 31.2538 65.8618 31.9591 67.5651C32.6644 69.2683 33.859 70.7242 35.3917 71.7486C36.9244 72.7729 38.7265 73.3198 40.57 73.32C43.0413 73.3176 45.4107 72.335 47.1583 70.5877C48.906 68.8404 49.8891 66.4713 49.892 64ZM34.75 64C34.7498 62.8486 35.0911 61.723 35.7306 60.7656C36.3701 59.8082 37.2793 59.062 38.3429 58.6213C39.4066 58.1806 40.5771 58.0652 41.7064 58.2898C42.8356 58.5144 43.8729 59.0688 44.6871 59.8829C45.5012 60.6971 46.0556 61.7343 46.2802 62.8636C46.5048 63.9929 46.3894 65.1634 45.9487 66.227C45.508 67.2907 44.7618 68.1998 43.8044 68.8394C42.8469 69.4789 41.7214 69.8202 40.57 69.82C39.027 69.8181 37.5477 69.2044 36.4567 68.1133C35.3656 67.0222 34.7519 65.543 34.75 64Z" fill="white" style="fill:white;fill-opacity:1;"/>
<path d="M85.444 87.194C84.5736 87.0241 83.6781 87.0288 82.8095 87.2076C81.9409 87.3865 81.1165 87.736 80.384 88.236C74.4813 92.2259 67.3246 93.9228 60.2588 93.0078C53.193 92.0928 46.7047 88.6289 42.013 83.267C45.7621 82.9861 49.3478 81.6176 52.3306 79.329C55.3134 77.0404 57.5637 73.9313 58.8055 70.3827C60.0474 66.8341 60.227 63.0003 59.3221 59.3512C58.4173 55.7021 56.4675 52.3963 53.7116 49.839C50.9557 47.2816 47.5136 45.584 43.8071 44.954C40.1006 44.3241 36.2909 44.7893 32.8449 46.2926C29.3989 47.7958 26.4664 50.2719 24.4069 53.4172C22.3473 56.5625 21.2502 60.2403 21.25 64C21.2507 71.7623 23.3646 79.3779 27.365 86.03C31.3654 92.6821 37.1013 98.1195 43.9575 101.759C50.8136 105.399 58.5313 107.103 66.2825 106.689C74.0338 106.276 81.5262 103.76 87.956 99.411C89.0613 98.6621 89.9197 97.6024 90.4227 96.3657C90.9257 95.129 91.0506 93.7709 90.7817 92.4632C90.5129 91.1555 89.8622 89.9569 88.9121 89.0189C87.962 88.081 86.7551 87.4459 85.444 87.194ZM87.361 94.437C87.2815 94.8564 87.1197 95.2559 86.8848 95.6124C86.65 95.9688 86.3469 96.2753 85.993 96.514C80.0894 100.506 73.2104 102.815 66.094 103.194C58.9776 103.574 51.8922 102.008 45.5977 98.6667C39.3033 95.325 34.0373 90.3328 30.3645 84.2255C26.6918 78.1183 24.7509 71.1265 24.75 64C24.725 60.7517 25.6929 57.5733 27.5241 54.8902C29.3552 52.2071 31.9623 50.1474 34.9963 48.9868C38.0302 47.8262 41.3464 47.62 44.5007 48.396C47.6551 49.1719 50.4971 50.8928 52.6465 53.3285C54.7959 55.7641 56.1499 58.7981 56.5275 62.0245C56.905 65.2509 56.288 68.5156 54.759 71.3817C53.2301 74.2477 50.8621 76.5783 47.9721 78.0615C45.0821 79.5447 41.808 80.1098 38.588 79.681C38.2541 79.639 37.9152 79.6944 37.612 79.8402C37.3088 79.9861 37.054 80.2164 36.8784 80.5034C36.7027 80.7904 36.6136 81.122 36.6217 81.4584C36.6298 81.7948 36.7348 82.1217 36.924 82.4C41.7954 89.5741 49.314 94.5225 57.8298 96.1594C66.3457 97.7963 75.163 95.9878 82.347 91.131C82.8789 90.7714 83.5053 90.5774 84.1473 90.5734C84.7893 90.5695 85.4181 90.7557 85.9543 91.1087C86.4905 91.4617 86.9102 91.9657 87.1604 92.5569C87.4106 93.1482 87.48 93.8003 87.36 94.431L87.361 94.437Z" fill="white" style="fill:white;fill-opacity:1;"/>
</svg>
