<svg width="128" height="128" viewBox="0 0 128 128" fill="none" xmlns="http://www.w3.org/2000/svg">
<path d="M85.3492 107.1H58.5262C57.5593 107.111 56.5997 106.931 55.703 106.568C54.8064 106.206 53.9906 105.67 53.3028 104.99C52.615 104.31 52.069 103.501 51.6963 102.608C51.3236 101.716 51.1317 100.759 51.1317 99.7915C51.1317 98.8245 51.3236 97.8671 51.6963 96.9748C52.069 96.0824 52.615 95.2729 53.3028 94.5931C53.9906 93.9134 54.8064 93.3768 55.703 93.0146C56.5997 92.6524 57.5593 92.4717 58.5262 92.483H66.1462C65.7359 90.9723 65.5033 89.4187 65.4532 87.854C65.4326 87.6287 65.4219 87.4014 65.4212 87.172V44.035C65.3567 42.2493 64.602 40.5583 63.3159 39.3178C62.0298 38.0774 60.3126 37.3842 58.5257 37.3842C56.7389 37.3842 55.0217 38.0774 53.7356 39.3178C52.4495 40.5583 51.6947 42.2493 51.6302 44.035V81.176C51.6281 83.1136 50.8575 84.9712 49.4874 86.3412C48.1174 87.7113 46.2598 88.4819 44.3222 88.484H44.2352C42.2977 88.4819 40.4401 87.7113 39.07 86.3412C37.7 84.9712 36.9293 83.1136 36.9272 81.176V44.035C36.9259 42.2059 36.1983 40.4521 34.9045 39.1592C33.6106 37.8663 31.8563 37.14 30.0272 37.14C28.1037 37.1175 26.2666 36.3376 24.9143 34.9695C23.5621 33.6013 22.8037 31.7552 22.8037 29.8315C22.8037 27.9079 23.5621 26.0618 24.9143 24.6936C26.2666 23.3254 28.1037 22.5455 30.0272 22.523C35.2833 22.5084 40.3586 24.4407 44.2742 27.947C48.1903 24.4408 53.2659 22.5087 58.5222 22.523C64.2263 22.5283 69.6953 24.7963 73.7291 28.8294C77.7628 32.8624 80.0319 38.331 80.0382 44.035V67.966C82.7502 67.215 85.5904 67.0471 88.372 67.4734C91.1535 67.8997 93.8132 68.9104 96.1757 70.4391C98.5383 71.9678 100.55 73.9797 102.079 76.3422C103.608 78.7048 104.618 81.3645 105.045 84.146C105.471 86.9276 105.303 89.7678 104.552 92.4798C103.801 95.1917 102.484 97.7138 100.688 99.8798C98.8912 102.046 96.6563 103.807 94.13 105.046C91.6038 106.286 88.8436 106.976 86.0312 107.072C85.8066 107.091 85.5792 107.1 85.3492 107.1ZM58.5262 95.987C58.0209 95.9788 57.519 96.0713 57.0497 96.259C56.5805 96.4467 56.1533 96.726 55.793 97.0804C55.4328 97.4349 55.1467 97.8575 54.9514 98.3236C54.7561 98.7898 54.6555 99.2901 54.6555 99.7955C54.6555 100.301 54.7561 100.801 54.9514 101.267C55.1467 101.734 55.4328 102.156 55.793 102.511C56.1533 102.865 56.5805 103.144 57.0497 103.332C57.519 103.52 58.0209 103.612 58.5262 103.604H85.3492C85.4798 103.604 85.6103 103.597 85.7402 103.584C85.7812 103.584 85.8222 103.577 85.8632 103.576C88.2724 103.501 90.6354 102.896 92.7844 101.804C94.9334 100.712 96.8158 99.1611 98.2977 97.2602C99.7796 95.3592 100.825 93.1553 101.359 90.8048C101.893 88.4544 101.903 86.0152 101.389 83.6605C100.874 81.3057 99.8472 79.0932 98.3811 77.1799C96.915 75.2667 95.0457 73.6998 92.9058 72.5904C90.7659 71.481 88.408 70.8564 85.9996 70.761C83.5911 70.6655 81.1912 71.1015 78.9702 72.038C78.7041 72.1504 78.4143 72.1951 78.1267 72.1683C77.8391 72.1415 77.5626 72.044 77.3218 71.8844C77.0811 71.7248 76.8835 71.5081 76.7468 71.2537C76.6101 70.9992 76.5384 70.7149 76.5382 70.426V44.035C76.5329 39.2596 74.6335 34.6812 71.2568 31.3045C67.88 27.9277 63.3017 26.0283 58.5262 26.023C56.0973 26.018 53.6929 26.5089 51.4603 27.4657C49.2277 28.4224 47.2139 29.8248 45.5422 31.587C45.2054 31.9189 44.7516 32.105 44.2787 32.105C43.8059 32.105 43.352 31.9189 43.0152 31.587C41.3435 29.8249 39.3297 28.4226 37.0971 27.4658C34.8645 26.5091 32.4602 26.0182 30.0312 26.023C29.0318 26.0392 28.0789 26.4476 27.3778 27.1601C26.6768 27.8725 26.2839 28.832 26.2839 29.8315C26.2839 30.831 26.6768 31.7905 27.3778 32.503C28.0789 33.2155 29.0318 33.6238 30.0312 33.64C32.788 33.6419 35.4315 34.7375 37.3813 36.6864C39.3311 38.6353 40.428 41.2782 40.4312 44.035V81.176C40.4325 82.1856 40.8342 83.1534 41.548 83.8672C42.2619 84.5811 43.2297 84.9827 44.2392 84.984C44.2782 84.984 44.3822 84.984 44.4212 84.984C45.4158 84.9613 46.3618 84.5494 47.056 83.8368C47.7502 83.1242 48.1374 82.1679 48.1342 81.173V44.035C48.2138 41.3309 49.3439 38.7642 51.2848 36.8797C53.2256 34.9951 55.8244 33.9409 58.5297 33.9409C61.235 33.9409 63.8338 34.9951 65.7747 36.8797C67.7155 38.7642 68.8456 41.3309 68.9252 44.035V87.176C68.9253 87.3066 68.932 87.4371 68.9452 87.567C68.9452 87.608 68.9522 87.649 68.9532 87.69C69.0072 89.7063 69.4351 91.695 70.2152 93.555C70.3279 93.8214 70.3729 94.1115 70.346 94.3994C70.3192 94.6874 70.2214 94.9642 70.0614 95.2051C69.9014 95.4461 69.6842 95.6436 69.4292 95.78C69.1743 95.9165 68.8894 95.9876 68.6002 95.987H58.5262ZM85.3492 95.987C83.6063 95.987 81.9026 95.4702 80.4534 94.5019C79.0043 93.5335 77.8748 92.1572 77.2079 90.547C76.541 88.9368 76.3665 87.1649 76.7066 85.4555C77.0467 83.7461 77.8861 82.176 79.1186 80.9436C80.351 79.7113 81.9213 78.8721 83.6307 78.5322C85.3401 78.1923 87.112 78.367 88.7221 79.0341C90.3323 79.7012 91.7085 80.8308 92.6766 82.2801C93.6448 83.7293 94.1614 85.4331 94.1612 87.176C94.1588 89.5123 93.2296 91.7522 91.5776 93.4041C89.9255 95.056 87.6855 95.9849 85.3492 95.987ZM85.3492 81.864C84.2986 81.864 83.2716 82.1756 82.398 82.7593C81.5245 83.343 80.8436 84.1726 80.4416 85.1432C80.0395 86.1139 79.9343 87.1819 80.1393 88.2123C80.3443 89.2428 80.8502 90.1893 81.5931 90.9322C82.336 91.6751 83.2825 92.181 84.3129 92.386C85.3433 92.5909 86.4114 92.4857 87.382 92.0837C88.3527 91.6816 89.1823 91.0008 89.766 90.1272C90.3497 89.2537 90.6612 88.2266 90.6612 87.176C90.6599 85.7676 90.0998 84.4172 89.1039 83.4213C88.108 82.4254 86.7576 81.8654 85.3492 81.864Z" fill="white" style="fill:white;fill-opacity:1;"/>
</svg>
