<svg width="128" height="128" viewBox="0 0 128 128" fill="none" xmlns="http://www.w3.org/2000/svg">
<path d="M88.8884 85.471V43.288C91.9806 41.353 94.8432 39.0734 97.4214 36.493C98.8747 35.0398 99.6911 33.0687 99.6911 31.0135C99.6911 28.9583 98.8747 26.9873 97.4214 25.534C95.9682 24.0808 93.9971 23.2643 91.9419 23.2643C89.8867 23.2643 87.9157 24.0808 86.4624 25.534C80.3963 31.5995 72.1693 35.007 63.5909 35.007C55.0126 35.007 46.7856 31.5995 40.7194 25.534C40.0027 24.8014 39.1478 24.2182 38.2042 23.8182C37.2606 23.4182 36.2471 23.2094 35.2222 23.2037C34.1974 23.1981 33.1816 23.3958 32.2336 23.7853C31.2857 24.1749 30.4244 24.7486 29.6997 25.4733C28.9749 26.1979 28.4011 27.0592 28.0115 28.0071C27.6218 28.955 27.4241 29.9708 27.4296 30.9956C27.4352 32.0205 27.644 33.0341 28.0439 33.9777C28.4438 34.9213 29.0269 35.7763 29.7594 36.493C32.3376 39.0734 35.2003 41.353 38.2924 43.288V85.088C35.0813 87.0612 32.1127 89.4042 29.4474 92.069C27.9942 93.5223 27.1777 95.4933 27.1777 97.5485C27.1777 99.6037 27.9942 101.575 29.4474 103.028C30.9007 104.481 32.8717 105.298 34.9269 105.298C36.9821 105.298 38.9532 104.481 40.4064 103.028C46.4728 96.9631 54.6997 93.5559 63.2779 93.5559C71.8561 93.5559 80.083 96.9631 86.1494 103.028C86.8661 103.761 87.721 104.344 88.6646 104.744C89.6082 105.144 90.6218 105.353 91.6466 105.358C92.6715 105.364 93.6873 105.166 94.6352 104.777C95.5832 104.387 96.4444 103.813 97.1692 103.089C97.8939 102.364 98.4677 101.503 98.8573 100.555C99.247 99.6071 99.4448 98.5913 99.4392 97.5664C99.4337 96.5416 99.2249 95.528 98.825 94.5844C98.4251 93.6407 97.842 92.7858 97.1094 92.069C94.6185 89.5758 91.8617 87.3632 88.8884 85.471ZM94.6344 100.552C94.2399 100.947 93.7715 101.26 93.256 101.473C92.7405 101.687 92.1879 101.797 91.6299 101.797C91.0719 101.797 90.5193 101.687 90.0038 101.473C89.4883 101.26 89.0199 100.947 88.6254 100.552C81.9026 93.8303 72.7851 90.0542 63.2784 90.0542C53.7717 90.0542 44.6542 93.8303 37.9314 100.552C37.5368 100.947 37.0683 101.26 36.5528 101.473C36.0372 101.687 35.4846 101.796 34.9266 101.796C34.3685 101.796 33.816 101.686 33.3004 101.473C32.7849 101.259 32.3165 100.946 31.9219 100.552C31.5274 100.157 31.2144 99.6884 31.0009 99.1729C30.7874 98.6573 30.6775 98.1047 30.6776 97.5467C30.6776 96.9886 30.7876 96.4361 31.0012 95.9205C31.2148 95.405 31.5278 94.9366 31.9224 94.542C34.6139 91.8497 37.6384 89.5125 40.9224 87.587C41.1858 87.4326 41.4042 87.2121 41.5559 86.9472C41.7077 86.6823 41.7875 86.3823 41.7874 86.077V42.307C41.7872 42.0045 41.7083 41.7071 41.5586 41.4442C41.4089 41.1813 41.1935 40.9617 40.9334 40.807C37.7625 38.9138 34.8385 36.6348 32.2284 34.022C31.8262 33.6291 31.506 33.1603 31.2863 32.6427C31.0666 32.1251 30.9518 31.5691 30.9485 31.0068C30.9452 30.4445 31.0535 29.8872 31.2672 29.3671C31.4809 28.847 31.7956 28.3744 32.1932 27.9768C32.5908 27.5792 33.0633 27.2645 33.5835 27.0508C34.1036 26.8372 34.6609 26.7288 35.2232 26.7321C35.7854 26.7354 36.3415 26.8502 36.8591 27.0699C37.3766 27.2896 37.8455 27.6098 38.2384 28.012C44.9612 34.7338 54.0787 38.5099 63.5854 38.5099C73.0921 38.5099 82.2096 34.7338 88.9324 28.012C89.327 27.6175 89.7955 27.3045 90.3111 27.091C90.8267 26.8775 91.3792 26.7676 91.9373 26.7677C92.4953 26.7677 93.0479 26.8777 93.5634 27.0913C94.0789 27.3049 94.5474 27.6179 94.9419 28.0125C95.3365 28.4072 95.6494 28.8756 95.863 29.3912C96.0765 29.9068 96.1863 30.4594 96.1863 31.0174C96.1862 31.5754 96.0763 32.128 95.8627 32.6435C95.6491 33.1591 95.336 33.6275 94.9414 34.022C92.3331 36.6347 89.4108 38.9137 86.2414 40.807C85.9817 40.962 85.7666 41.1816 85.6171 41.4445C85.4676 41.7074 85.3888 42.0046 85.3884 42.307V86.443C85.3876 86.7443 85.4646 87.0407 85.612 87.3035C85.7593 87.5662 85.972 87.7865 86.2294 87.943C89.2847 89.7998 92.1068 92.0155 94.6354 94.543C95.0303 94.9375 95.3435 95.406 95.5572 95.9216C95.7709 96.4372 95.8808 96.9899 95.8808 97.548C95.8808 98.1062 95.7709 98.6588 95.5572 99.1745C95.3435 99.6901 95.0303 100.159 94.6354 100.553L94.6344 100.552Z" fill="white" style="fill:white;fill-opacity:1;"/>
<path d="M76.21 45.9181C75.9989 45.7549 75.7534 45.6419 75.4921 45.5877C75.2308 45.5335 74.9606 45.5394 74.702 45.6051C67.4108 47.4652 59.7692 47.4652 52.478 45.6051C52.2191 45.5389 51.9484 45.5328 51.6868 45.5873C51.4251 45.6418 51.1794 45.7555 50.9685 45.9195C50.7575 46.0836 50.5868 46.2937 50.4696 46.5339C50.3523 46.7741 50.2916 47.0379 50.292 47.3051V81.1761C50.2919 81.4422 50.3523 81.7047 50.4689 81.9439C50.5854 82.183 50.7548 82.3925 50.9644 82.5564C51.1739 82.7202 51.4181 82.8342 51.6783 82.8896C51.9385 82.945 52.2079 82.9404 52.466 82.8761C59.7711 81.0713 67.4123 81.1277 74.69 83.0401C74.9491 83.1089 75.2206 83.1172 75.4834 83.0645C75.7463 83.0117 75.9935 82.8994 76.2061 82.736C76.4186 82.5726 76.5908 82.3626 76.7094 82.1221C76.828 81.8817 76.8898 81.6172 76.89 81.3491V47.3001C76.8897 47.0332 76.8283 46.7698 76.7104 46.5302C76.5925 46.2906 76.4214 46.0813 76.21 45.9181ZM73.388 79.1291C66.9328 77.7437 60.2622 77.6964 53.788 78.9901V49.5001C60.2532 50.8347 66.9228 50.8347 73.388 49.5001V79.1291Z" fill="white" style="fill:white;fill-opacity:1;"/>
</svg>
