<svg width="128" height="128" viewBox="0 0 128 128" fill="none" xmlns="http://www.w3.org/2000/svg">
<path d="M42.6267 105.311C37.5465 105.311 32.6743 103.293 29.082 99.7006C25.4898 96.1083 23.4717 91.2362 23.4717 86.1559C23.4717 81.0757 25.4898 76.2036 29.082 72.6113C32.6743 69.019 37.5465 67.0009 42.6267 67.0009C44.4514 66.9999 46.2666 67.2633 48.0157 67.7829V40.2589C48.0157 37.9517 48.4701 35.6671 49.353 33.5356C50.236 31.404 51.5301 29.4672 53.1615 27.8358C54.793 26.2043 56.7297 24.9102 58.8613 24.0273C60.9929 23.1444 63.2775 22.6899 65.5847 22.6899C67.8919 22.6899 70.1765 23.1444 72.308 24.0273C74.4396 24.9102 76.3764 26.2043 78.0078 27.8358C79.6393 29.4672 80.9334 31.404 81.8163 33.5356C82.6992 35.6671 83.1537 37.9517 83.1537 40.2589V87.4899C83.1537 88.4988 83.5545 89.4664 84.2678 90.1798C84.9812 90.8932 85.9488 91.2939 86.9577 91.2939C87.9666 91.2939 88.9341 90.8932 89.6475 90.1798C90.3609 89.4664 90.7617 88.4988 90.7617 87.4899C90.7507 86.5791 90.9206 85.6752 91.2616 84.8306C91.6025 83.9859 92.1077 83.2173 92.7479 82.5694C93.3881 81.9214 94.1505 81.407 94.991 81.0559C95.8315 80.7048 96.7333 80.524 97.6442 80.524C98.5551 80.524 99.4569 80.7048 100.297 81.0559C101.138 81.407 101.9 81.9214 102.54 82.5694C103.181 83.2173 103.686 83.9859 104.027 84.8306C104.368 85.6752 104.538 86.5791 104.527 87.4899C104.527 92.1495 102.676 96.6183 99.3808 99.9131C96.086 103.208 91.6173 105.059 86.9577 105.059C82.2981 105.059 77.8293 103.208 74.5345 99.9131C71.2397 96.6183 69.3887 92.1495 69.3887 87.4899V40.2589C69.3887 39.2502 68.988 38.2828 68.2747 37.5695C67.5614 36.8562 66.5939 36.4554 65.5852 36.4554C64.5764 36.4554 63.609 36.8562 62.8957 37.5695C62.1824 38.2828 61.7817 39.2502 61.7817 40.2589V86.1589C61.7817 86.3736 61.772 86.5863 61.7527 86.7969C61.6118 91.7687 59.5324 96.4883 55.9587 99.9476C52.385 103.407 47.6004 105.332 42.6267 105.311ZM42.6267 70.5009C39.5498 70.4972 36.54 71.4003 33.9734 73.0974C31.4068 74.7945 29.3972 77.2103 28.1957 80.0429C26.9942 82.8755 26.6541 85.9995 27.2178 89.0243C27.7816 92.0491 29.2243 94.8408 31.3655 97.0504C33.5068 99.26 36.2517 100.79 39.2573 101.448C42.263 102.107 45.396 101.865 48.265 100.753C51.134 99.6411 53.6118 97.7084 55.3886 95.1964C57.1655 92.6844 58.1627 89.7045 58.2557 86.6289C58.2557 86.5879 58.2557 86.5459 58.2637 86.5049C58.2757 86.389 58.2817 86.2725 58.2817 86.1559V40.2559C58.2817 38.3189 59.0512 36.4613 60.4208 35.0916C61.7905 33.7219 63.6482 32.9524 65.5852 32.9524C67.5222 32.9524 69.3799 33.7219 70.7495 35.0916C72.1192 36.4613 72.8887 38.3189 72.8887 40.2559V87.4899C72.8887 91.2213 74.3709 94.7998 77.0094 97.4382C79.6478 100.077 83.2263 101.559 86.9577 101.559C90.689 101.559 94.2675 100.077 96.906 97.4382C99.5444 94.7998 101.027 91.2213 101.027 87.4899C101.034 87.0408 100.953 86.5947 100.786 86.1776C100.62 85.7604 100.372 85.3806 100.057 85.0603C99.7419 84.74 99.3664 84.4856 98.9522 84.3119C98.538 84.1382 98.0933 84.0488 97.6442 84.0488C97.195 84.0488 96.7504 84.1382 96.3361 84.3119C95.9219 84.4856 95.5464 84.74 95.2316 85.0603C94.9167 85.3806 94.6688 85.7604 94.5023 86.1776C94.3357 86.5947 94.254 87.0408 94.2617 87.4899C94.2617 89.4271 93.4922 91.2849 92.1224 92.6546C90.7526 94.0244 88.8948 94.7939 86.9577 94.7939C85.0205 94.7939 83.1627 94.0244 81.793 92.6546C80.4232 91.2849 79.6537 89.4271 79.6537 87.4899V40.2589C79.6537 38.4114 79.2898 36.5819 78.5827 34.875C77.8757 33.168 76.8394 31.6171 75.533 30.3107C74.2265 29.0042 72.6756 27.9679 70.9687 27.2609C69.2617 26.5538 67.4322 26.1899 65.5847 26.1899C63.7371 26.1899 61.9076 26.5538 60.2007 27.2609C58.4938 27.9679 56.9428 29.0042 55.6364 30.3107C54.33 31.6171 53.2936 33.168 52.5866 34.875C51.8796 36.5819 51.5157 38.4114 51.5157 40.2589V70.2999C51.5166 70.5929 51.4439 70.8814 51.3044 71.139C51.1648 71.3966 50.9628 71.6151 50.7168 71.7743C50.4709 71.9336 50.1889 72.0285 49.8968 72.0505C49.6046 72.0724 49.3116 72.0206 49.0447 71.8999C47.0302 70.9794 44.8415 70.5029 42.6267 70.5009ZM42.6267 95.0449C40.8686 95.0449 39.15 94.5236 37.6882 93.5469C36.2264 92.5701 35.0871 91.1819 34.4143 89.5576C33.7415 87.9334 33.5655 86.1461 33.9085 84.4218C34.2515 82.6975 35.0981 81.1136 36.3412 79.8705C37.5844 78.6273 39.1682 77.7807 40.8925 77.4377C42.6168 77.0948 44.4041 77.2708 46.0284 77.9436C47.6526 78.6164 49.0409 79.7557 50.0176 81.2175C50.9943 82.6793 51.5157 84.3979 51.5157 86.1559C51.5128 88.5126 50.5753 90.7718 48.9089 92.4382C47.2426 94.1046 44.9833 95.042 42.6267 95.0449ZM42.6267 80.7679C41.5608 80.7679 40.5188 81.084 39.6326 81.6762C38.7464 82.2684 38.0556 83.1101 37.6478 84.0949C37.2399 85.0797 37.1333 86.1633 37.3413 87.2086C37.5493 88.254 38.0627 89.2143 38.8164 89.9679C39.5702 90.7215 40.5305 91.2347 41.576 91.4425C42.6214 91.6503 43.705 91.5435 44.6897 91.1354C45.6743 90.7274 46.5159 90.0365 47.108 89.1502C47.7 88.2638 48.0159 87.2218 48.0157 86.1559C48.0141 84.7273 47.4458 83.3576 46.4355 82.3475C45.4251 81.3373 44.0554 80.7693 42.6267 80.7679Z" fill="white" style="fill:white;fill-opacity:1;"/>
</svg>
