<svg width="128" height="128" viewBox="0 0 128 128" fill="none" xmlns="http://www.w3.org/2000/svg">
<path d="M98.4547 88.0229C94.6997 88.0184 91.0997 86.5247 88.4446 83.8694C85.7894 81.2141 84.296 77.614 84.2917 73.8589V70.1049H97.5207C99.4577 70.0824 101.308 69.2971 102.669 67.9193C104.031 66.5416 104.795 64.6826 104.795 62.7454C104.795 60.8083 104.031 58.9493 102.669 57.5716C101.308 56.1938 99.4577 55.4085 97.5207 55.3859H84.2917V54.1239C84.296 50.369 85.7895 46.769 88.4446 44.1139C91.0998 41.4587 94.6998 39.9652 98.4547 39.9609C100.392 39.9384 102.242 39.153 103.603 37.7753C104.965 36.3976 105.729 34.5386 105.729 32.6014C105.729 30.6643 104.965 28.8053 103.603 27.4276C102.242 26.0498 100.392 25.2645 98.4547 25.2419C90.7974 25.2507 83.4562 28.2964 78.0417 33.7109C72.6272 39.1255 69.5815 46.4666 69.5727 54.1239V55.3859H58.4267V54.1239C58.418 46.4666 55.3723 39.1255 49.9577 33.7109C44.5432 28.2964 37.202 25.2507 29.5447 25.2419C27.6077 25.2645 25.7577 26.0498 24.396 27.4276C23.0342 28.8053 22.2705 30.6643 22.2705 32.6014C22.2705 34.5386 23.0342 36.3976 24.396 37.7753C25.7577 39.153 27.6077 39.9384 29.5447 39.9609C33.2997 39.9652 36.8996 41.4587 39.5548 44.1139C42.21 46.769 43.7035 50.369 43.7077 54.1239V55.3859H30.4787C28.5417 55.4085 26.6917 56.1938 25.33 57.5716C23.9682 58.9493 23.2045 60.8083 23.2045 62.7454C23.2045 64.6826 23.9682 66.5416 25.33 67.9193C26.6917 69.2971 28.5417 70.0824 30.4787 70.1049H43.7077V73.8589C43.7035 77.614 42.21 81.2141 39.5549 83.8694C36.8997 86.5247 33.2998 88.0184 29.5447 88.0229C27.6077 88.0455 25.7577 88.8308 24.396 90.2086C23.0342 91.5863 22.2705 93.4453 22.2705 95.3824C22.2705 97.3196 23.0342 99.1786 24.396 100.556C25.7577 101.934 27.6077 102.719 29.5447 102.742C37.2022 102.733 44.5435 99.6873 49.9581 94.2726C55.3726 88.8578 58.4183 81.5164 58.4267 73.8589V70.1049H69.5727V73.8589C69.5812 81.5164 72.6268 88.8578 78.0414 94.2726C83.4559 99.6873 90.7972 102.733 98.4547 102.742C100.392 102.719 102.242 101.934 103.603 100.556C104.965 99.1786 105.729 97.3196 105.729 95.3824C105.729 93.4453 104.965 91.5863 103.603 90.2086C102.242 88.8308 100.392 88.0455 98.4547 88.0229ZM98.4547 99.2419C91.7253 99.234 85.2737 96.5571 80.5154 91.7986C75.757 87.0401 73.0804 80.5884 73.0727 73.8589V68.3589C73.0727 67.8948 72.8883 67.4497 72.5602 67.1215C72.232 66.7933 71.7868 66.6089 71.3227 66.6089H56.6767C56.2126 66.6089 55.7675 66.7933 55.4393 67.1215C55.1111 67.4497 54.9267 67.8948 54.9267 68.3589V73.8589C54.919 80.5884 52.2424 87.0401 47.4841 91.7986C42.7257 96.5571 36.2742 99.234 29.5447 99.2419C28.5319 99.2256 27.566 98.8118 26.8555 98.0898C26.145 97.3678 25.7468 96.3954 25.7468 95.3824C25.7468 94.3695 26.145 93.3971 26.8555 92.6751C27.566 91.953 28.5319 91.5393 29.5447 91.5229C34.2277 91.5174 38.7173 89.6545 42.0286 86.3431C45.3398 83.0316 47.2024 78.5419 47.2077 73.8589V68.3589C47.2077 67.8948 47.0233 67.4497 46.6952 67.1215C46.367 66.7933 45.9218 66.6089 45.4577 66.6089H30.4787C29.4659 66.5926 28.5 66.1788 27.7895 65.4568C27.079 64.7348 26.6808 63.7624 26.6808 62.7494C26.6808 61.7365 27.079 60.7641 27.7895 60.0421C28.5 59.32 29.4659 58.9062 30.4787 58.8899H45.4577C45.9218 58.8899 46.367 58.7056 46.6952 58.3774C47.0233 58.0492 47.2077 57.6041 47.2077 57.1399V54.1239C47.2022 49.4411 45.3395 44.9517 42.0282 41.6405C38.717 38.3292 34.2275 36.4665 29.5447 36.4609C28.5319 36.4446 27.566 36.0308 26.8555 35.3088C26.145 34.5868 25.7468 33.6144 25.7468 32.6014C25.7468 31.5885 26.145 30.6161 26.8555 29.8941C27.566 29.172 28.5319 28.7582 29.5447 28.7419C36.2741 28.7496 42.7256 31.4262 47.484 36.1846C52.2424 40.943 54.919 47.3946 54.9267 54.1239V57.1359C54.9267 57.6001 55.1111 58.0452 55.4393 58.3734C55.7675 58.7016 56.2126 58.8859 56.6767 58.8859H71.3227C71.7868 58.8859 72.232 58.7016 72.5602 58.3734C72.8883 58.0452 73.0727 57.6001 73.0727 57.1359V54.1239C73.0804 47.3946 75.757 40.943 80.5154 36.1846C85.2738 31.4262 91.7253 28.7496 98.4547 28.7419C99.4676 28.7582 100.433 29.172 101.144 29.8941C101.854 30.6161 102.253 31.5885 102.253 32.6014C102.253 33.6144 101.854 34.5868 101.144 35.3088C100.433 36.0308 99.4676 36.4446 98.4547 36.4609C93.7719 36.4665 89.2825 38.3292 85.9712 41.6405C82.66 44.9517 80.7973 49.4411 80.7917 54.1239V57.1359C80.7917 57.6001 80.9761 58.0452 81.3043 58.3734C81.6325 58.7016 82.0776 58.8859 82.5417 58.8859H97.5207C98.5336 58.9022 99.4994 59.316 100.21 60.0381C100.92 60.7601 101.319 61.7325 101.319 62.7454C101.319 63.7584 100.92 64.7308 100.21 65.4528C99.4994 66.1748 98.5336 66.5886 97.5207 66.6049H82.5417C82.0776 66.6049 81.6325 66.7893 81.3043 67.1175C80.9761 67.4457 80.7917 67.8908 80.7917 68.3549V73.8549C80.796 78.5386 82.6581 83.0293 85.9695 86.3417C89.2809 89.654 93.771 91.5174 98.4547 91.5229C99.4676 91.5393 100.433 91.953 101.144 92.6751C101.854 93.3971 102.253 94.3695 102.253 95.3824C102.253 96.3954 101.854 97.3678 101.144 98.0898C100.433 98.8118 99.4676 99.2256 98.4547 99.2419Z" fill="white" style="fill:white;fill-opacity:1;"/>
</svg>
