<svg width="128" height="128" viewBox="0 0 128 128" fill="none" xmlns="http://www.w3.org/2000/svg">
<path d="M27.7996 107.9C23.4996 107.9 20.0996 104.4 20.0996 100.1C20.0996 97.9999 20.8996 96.0999 22.3996 94.5999L52.2996 64.6999L41.2996 53.6999C38.2996 50.6999 38.2996 45.7999 41.3996 42.6999C44.3996 39.6999 49.2996 39.6999 52.2996 42.6999L63.2996 53.6999L79.9996 36.9999H65.5996C61.2996 36.9999 57.7996 33.4999 57.7996 29.1999C57.7996 24.8999 61.2996 21.3999 65.5996 21.3999H98.5996C102.7 21.3999 106.3 24.5999 106.3 29.0999V62.0999C106.3 66.3999 102.8 69.7999 98.4996 69.7999C94.1996 69.7999 90.6996 66.2999 90.6996 62.0999V48.0999L74.0996 64.7999L85.0996 75.7999C88.0996 78.7999 88.1996 83.6999 85.1996 86.7999C82.1996 89.7999 77.2996 89.8999 74.1996 86.8999C74.1996 86.8999 74.1996 86.8999 74.0996 86.7999L63.0996 75.7999L33.1996 105.7C31.7996 107.1 29.8996 108 27.7996 107.9ZM46.6996 44.0999C44.3996 44.0999 42.4996 45.9999 42.3996 48.2999C42.3996 49.3999 42.7996 50.4999 43.5996 51.2999L55.8996 63.5999C56.5996 64.2999 56.5996 65.3999 55.8996 66.0999L24.7996 97.1999C23.0996 98.8999 23.0996 101.6 24.7996 103.2C26.4996 104.9 29.1996 104.9 30.7996 103.2L61.8996 72.0999C62.5996 71.3999 63.6996 71.3999 64.3996 72.0999L76.6996 84.3999C78.3996 86.0999 81.0996 86.0999 82.6996 84.3999C84.3996 82.6999 84.3996 79.9999 82.6996 78.3999L70.3996 66.0999C69.6996 65.3999 69.6996 64.2999 70.3996 63.5999L91.2996 42.6999C92.3996 41.5999 94.2996 42.3999 94.2996 43.8999V62.3999C94.2996 64.6999 96.1996 66.6999 98.5996 66.6999C101 66.6999 102.9 64.7999 102.9 62.3999V29.3999C102.9 27.0999 101 25.1999 98.6996 25.0999H65.6996C63.3996 25.0999 61.3996 26.9999 61.3996 29.3999C61.3996 31.7999 63.2996 33.6999 65.6996 33.6999H84.1996C85.7996 33.6999 86.4996 35.5999 85.3996 36.6999L64.3996 57.5999C63.6996 58.2999 62.5996 58.2999 61.8996 57.5999L49.6996 45.2999C48.8996 44.4999 47.7996 44.0999 46.6996 44.0999Z" fill="white" style="fill:white;fill-opacity:1;"/>
</svg>
