<svg width="128" height="128" viewBox="0 0 128 128" fill="none" xmlns="http://www.w3.org/2000/svg">
<path d="M105.354 107.1C100.066 107.12 94.9795 105.076 91.1758 101.403C87.3721 97.7297 85.1517 92.7173 84.9871 87.4321C84.9651 87.1921 84.9531 86.9491 84.9531 86.7031V44.9391C84.9312 43.1191 84.1929 41.3811 82.8982 40.1019C81.6035 38.8226 79.8567 38.1052 78.0366 38.1052C76.2165 38.1052 74.4698 38.8226 73.1751 40.1019C71.8803 41.3811 71.142 43.1191 71.1201 44.9391C71.1201 44.9571 71.1201 44.9761 71.1201 44.9961V80.1141C71.1201 82.1695 70.3036 84.1407 68.8502 85.5942C67.3968 87.0476 65.4255 87.8641 63.3701 87.8641C61.3147 87.8641 59.3434 87.0476 57.89 85.5942C56.4366 84.1407 55.6201 82.1695 55.6201 80.1141V44.9391C55.6201 43.1046 54.8914 41.3452 53.5942 40.048C52.297 38.7508 50.5376 38.0221 48.7031 38.0221C46.8686 38.0221 45.1092 38.7508 43.8121 40.048C42.5149 41.3452 41.7861 43.1046 41.7861 44.9391V80.1141C41.7861 82.1695 40.9696 84.1407 39.5162 85.5942C38.0628 87.0476 36.0915 87.8641 34.0361 87.8641C31.9807 87.8641 30.0094 87.0476 28.556 85.5942C27.1026 84.1407 26.2861 82.1695 26.2861 80.1141V44.9391C26.2843 43.1054 25.555 41.3474 24.2584 40.0508C22.9618 38.7542 21.2038 38.0249 19.3701 38.0231C17.3147 38.0231 15.3434 37.2066 13.89 35.7532C12.4366 34.2997 11.6201 32.3285 11.6201 30.2731C11.6201 28.2176 12.4366 26.2464 13.89 24.793C15.3434 23.3396 17.3147 22.5231 19.3701 22.5231C24.7613 22.5094 29.9736 24.4559 34.0361 28.0001C38.1055 24.4667 43.3138 22.5211 48.7031 22.5211C54.0925 22.5211 59.3007 24.4667 63.3701 28.0001C66.6156 25.1831 70.6029 23.3592 74.8565 22.7459C79.11 22.1326 83.4501 22.7558 87.3592 24.5412C91.2683 26.3266 94.5813 29.1988 96.903 32.8152C99.2247 36.4316 100.457 40.6396 100.453 44.9371V86.7001C100.455 87.9991 100.971 89.2446 101.89 90.1631C102.809 91.0817 104.054 91.5985 105.353 91.6001C107.409 91.6001 109.38 92.4166 110.833 93.87C112.287 95.3234 113.103 97.2946 113.103 99.3501C113.103 101.406 112.287 103.377 110.833 104.83C109.38 106.284 107.41 107.1 105.354 107.1ZM78.0361 34.5231C80.7977 34.5263 83.4453 35.6246 85.3982 37.5773C87.351 39.53 88.4497 42.1775 88.4531 44.9391V86.7001C88.4532 86.8464 88.4609 86.9926 88.4761 87.1381C88.4761 87.1771 88.4821 87.2171 88.4831 87.2571C88.6073 91.6438 90.4411 95.8082 93.5931 98.8615C96.7451 101.915 100.966 103.615 105.354 103.6C106.481 103.6 107.562 103.152 108.359 102.355C109.156 101.558 109.604 100.477 109.604 99.3501C109.604 98.2229 109.156 97.1419 108.359 96.3449C107.562 95.5478 106.481 95.1001 105.354 95.1001C103.127 95.0972 100.992 94.2112 99.4176 92.6366C97.843 91.0619 96.957 88.927 96.9541 86.7001V44.9391C96.9585 41.1898 95.8475 37.5239 93.7627 34.4077C91.6778 31.2915 88.7133 28.8658 85.246 27.4391C81.7787 26.0124 77.9655 25.6492 74.2912 26.3956C70.617 27.1421 67.2478 28.9645 64.6121 31.6311C64.2773 31.9505 63.8324 32.1287 63.3696 32.1287C62.9069 32.1287 62.4619 31.9505 62.1271 31.6311C60.3719 29.8546 58.2816 28.4442 55.9772 27.4815C53.6729 26.5189 51.2004 26.0232 48.7031 26.0232C46.2058 26.0232 43.7333 26.5189 41.429 27.4815C39.1247 28.4442 37.0343 29.8546 35.2791 31.6311C34.9443 31.9508 34.4991 32.1292 34.0361 32.1292C33.5731 32.1292 33.128 31.9508 32.7931 31.6311C31.0412 29.8506 28.9516 28.4374 26.6467 27.4745C24.3419 26.5116 21.868 26.0181 19.3701 26.0231C18.2429 26.0231 17.1619 26.4708 16.3649 27.2679C15.5679 28.0649 15.1201 29.1459 15.1201 30.2731C15.1201 31.4002 15.5679 32.4812 16.3649 33.2783C17.1619 34.0753 18.2429 34.5231 19.3701 34.5231C22.1316 34.5263 24.7791 35.6247 26.7318 37.5774C28.6845 39.5301 29.7829 42.1776 29.7861 44.9391V80.1141C29.7861 81.2412 30.2339 82.3222 31.0309 83.1193C31.8279 83.9163 32.9089 84.3641 34.0361 84.3641C35.1633 84.3641 36.2443 83.9163 37.0413 83.1193C37.8384 82.3222 38.2861 81.2412 38.2861 80.1141V44.9391C38.2861 42.1763 39.3836 39.5267 41.3372 37.5731C43.2908 35.6196 45.9404 34.5221 48.7031 34.5221C51.4659 34.5221 54.1155 35.6196 56.069 37.5731C58.0226 39.5267 59.1201 42.1763 59.1201 44.9391V80.1141C59.1201 81.2412 59.5679 82.3222 60.3649 83.1193C61.1619 83.9163 62.2429 84.3641 63.3701 84.3641C64.4973 84.3641 65.5783 83.9163 66.3753 83.1193C67.1724 82.3222 67.6201 81.2412 67.6201 80.1141V44.9591C67.6201 44.9401 67.6201 44.9211 67.6201 44.9001C67.6339 42.1454 68.7369 39.508 70.6884 37.5638C72.6399 35.6196 75.2814 34.5265 78.0361 34.5231Z" fill="white" style="fill:white;fill-opacity:1;"/>
</svg>
