<svg width="128" height="128" viewBox="0 0 128 128" fill="none" xmlns="http://www.w3.org/2000/svg">
<path d="M63.9997 107.1C57.6486 107.103 51.4453 105.183 46.2063 101.593C40.9673 98.0028 36.9381 92.9104 34.6491 86.9861C32.3601 81.0618 31.9185 74.5832 33.3825 68.4031C34.8465 62.2229 38.1474 56.6309 42.8507 52.3629C39.5955 49.4239 36.9947 45.8333 35.217 41.8241C33.4392 37.8148 32.5244 33.4766 32.5318 29.0909C32.5198 28.0072 32.7229 26.9319 33.1293 25.9272C33.5358 24.9225 34.1375 24.0084 34.8996 23.2378C35.6617 22.4672 36.5691 21.8554 37.5693 21.4379C38.5694 21.0204 39.6424 20.8054 40.7262 20.8054C41.8101 20.8054 42.8831 21.0204 43.8832 21.4379C44.8834 21.8554 45.7908 22.4672 46.5529 23.2378C47.315 24.0084 47.9167 24.9225 48.3232 25.9272C48.7296 26.9319 48.9327 28.0072 48.9207 29.0909C48.9531 33.0687 50.556 36.8726 53.3803 39.6739C56.2045 42.4753 60.0213 44.0471 63.9992 44.0471C67.9772 44.0471 71.794 42.4753 74.6182 39.6739C77.4425 36.8726 79.0454 33.0687 79.0778 29.0909C79.0658 28.0072 79.2689 26.9319 79.6753 25.9272C80.0818 24.9225 80.6835 24.0084 81.4456 23.2378C82.2077 22.4672 83.1151 21.8554 84.1153 21.4379C85.1154 21.0204 86.1884 20.8054 87.2722 20.8054C88.356 20.8054 89.4291 21.0204 90.4292 21.4379C91.4294 21.8554 92.3368 22.4672 93.0989 23.2378C93.861 24.0084 94.4627 24.9225 94.8692 25.9272C95.2756 26.9319 95.4787 28.0072 95.4668 29.0909C95.4741 33.4766 94.5593 37.8148 92.7815 41.8241C91.0038 45.8333 88.403 49.4239 85.1478 52.3629C89.8511 56.6308 93.152 62.2228 94.616 68.4028C96.0799 74.5828 95.6384 81.0613 93.3496 86.9856C91.0607 92.9099 87.0317 98.0023 81.7928 101.593C76.554 105.183 70.3508 107.103 63.9997 107.1ZM40.7267 24.3999C39.4811 24.4013 38.2869 24.897 37.4066 25.7783C36.5262 26.6596 36.0317 27.8543 36.0317 29.0999C36.0267 33.3153 36.979 37.4768 38.8168 41.2704C40.6545 45.0641 43.3298 48.3909 46.6407 50.9999C46.8471 51.1637 47.0138 51.372 47.1284 51.6092C47.243 51.8464 47.3025 52.1065 47.3025 52.3699C47.3025 52.6334 47.243 52.8934 47.1284 53.1307C47.0138 53.3679 46.8471 53.5762 46.6407 53.7399C42.087 57.3445 38.7684 62.2774 37.1454 67.8537C35.5225 73.4301 35.6758 79.3734 37.584 84.8586C39.4923 90.3439 43.0608 95.0991 47.7943 98.4641C52.5278 101.829 58.1915 103.637 63.9992 103.637C69.807 103.637 75.4707 101.829 80.2042 98.4641C84.9377 95.0991 88.5062 90.3439 90.4145 84.8586C92.3227 79.3734 92.476 73.4301 90.8531 67.8537C89.2301 62.2774 85.9115 57.3445 81.3577 53.7399C81.1514 53.5762 80.9847 53.3679 80.8701 53.1307C80.7555 52.8934 80.696 52.6334 80.696 52.3699C80.696 52.1065 80.7555 51.8464 80.8701 51.6092C80.9847 51.372 81.1514 51.1637 81.3577 50.9999C84.6687 48.3909 87.344 45.0641 89.1817 41.2704C91.0195 37.4768 91.9718 33.3153 91.9668 29.0999C91.9758 28.4777 91.8611 27.8598 91.6293 27.2823C91.3974 26.7048 91.0531 26.1791 90.6162 25.7359C90.1794 25.2926 89.6588 24.9406 89.0848 24.7004C88.5107 24.4601 87.8946 24.3364 87.2722 24.3364C86.6499 24.3364 86.0338 24.4601 85.4597 24.7004C84.8857 24.9406 84.3651 25.2926 83.9282 25.7359C83.4914 26.1791 83.1471 26.7048 82.9152 27.2823C82.6834 27.8598 82.5687 28.4777 82.5778 29.0999C82.5418 34.0037 80.5685 38.6943 77.0883 42.1491C73.6081 45.6039 68.9031 47.5426 63.9992 47.5426C59.0954 47.5426 54.3904 45.6039 50.9102 42.1491C47.43 38.6943 45.4567 34.0037 45.4207 29.0999C45.4208 27.8545 44.9264 26.6599 44.0463 25.7787C43.1661 24.8974 41.9722 24.4015 40.7267 24.3999ZM63.9997 94.2149C60.3251 94.2151 56.7329 93.1256 53.6774 91.0842C50.622 89.0428 48.2405 86.1412 46.8342 82.7463C45.4279 79.3514 45.0598 75.6157 45.7767 72.0116C46.4935 68.4075 48.263 65.097 50.8614 62.4986C53.4598 59.9002 56.7703 58.1307 60.3744 57.4139C63.9785 56.697 67.7142 57.065 71.1091 58.4714C74.504 59.8777 77.4056 62.2592 79.447 65.3146C81.4884 68.3701 82.5779 71.9623 82.5778 75.6369C82.5719 80.5624 80.6127 85.2844 77.1299 88.7671C73.6472 92.2499 68.9252 94.2091 63.9997 94.2149ZM63.9997 60.5579C61.0174 60.5577 58.1019 61.442 55.622 63.0987C53.1422 64.7555 51.2093 67.1105 50.0679 69.8658C48.9264 72.6211 48.6277 75.653 49.2094 78.5781C49.7911 81.5032 51.2271 84.1901 53.3359 86.2991C55.4447 88.408 58.1315 89.8442 61.0566 90.4261C63.9817 91.008 67.0136 90.7095 69.769 89.5682C72.5244 88.427 74.8795 86.4942 76.5364 84.0145C78.1934 81.5347 79.0778 78.6193 79.0778 75.6369C79.0722 71.6396 77.4819 67.8076 74.6554 64.981C71.829 62.1543 67.9971 60.5638 63.9997 60.5579Z" fill="white" style="fill:white;fill-opacity:1;"/>
</svg>
