<svg width="128" height="128" viewBox="0 0 128 128" fill="none" xmlns="http://www.w3.org/2000/svg">
<path d="M28.8528 61.4171C29.7981 61.5248 30.7555 61.4441 31.6695 61.1796C32.5835 60.9151 33.436 60.4721 34.1778 59.8761L41.1088 54.3351L48.0388 59.8751C49.3196 60.9096 50.9163 61.4739 52.5628 61.4739C54.2092 61.4739 55.8059 60.9096 57.0868 59.8751L64.0078 54.3371L70.9328 59.8741C72.2142 60.9078 73.8109 61.4716 75.4573 61.4716C77.1036 61.4716 78.7004 60.9078 79.9818 59.8741L86.8998 54.3381L93.8168 59.8741C95.3171 61.0744 97.2328 61.6295 99.1425 61.4174C101.052 61.2053 102.799 60.2434 104 58.7431C104.594 58.0005 105.036 57.1482 105.301 56.2347C105.566 55.3213 105.649 54.3646 105.544 53.4192C105.439 52.4739 105.149 51.5585 104.69 50.7253C104.232 49.8921 103.613 49.1573 102.871 48.5631L91.4288 39.4061C90.1477 38.3708 88.5504 37.8061 86.9033 37.8061C85.2562 37.8061 83.6588 38.3708 82.3778 39.4061L75.4568 44.9431L68.5318 39.4061C67.2504 38.3724 65.6536 37.8086 64.0073 37.8086C62.3609 37.8086 60.7642 38.3724 59.4828 39.4061L52.5618 44.9441L45.6318 39.4001C44.3512 38.3663 42.755 37.8025 41.1093 37.8025C39.4635 37.8025 37.8674 38.3663 36.5868 39.4001L25.1328 48.5601C24.0134 49.4545 23.1845 50.6607 22.7509 52.0263C22.3172 53.3918 22.2983 54.8553 22.6965 56.2316C23.0947 57.608 23.8922 58.8352 24.988 59.7583C26.0838 60.6813 27.4288 61.2586 28.8528 61.4171ZM25.9348 53.8001C25.988 53.3112 26.1377 52.8378 26.375 52.4071C26.6124 51.9764 26.9328 51.5971 27.3178 51.2911L38.7718 42.1351C39.4335 41.6008 40.2583 41.3094 41.1088 41.3094C41.9592 41.3094 42.7841 41.6008 43.4458 42.1351L51.4688 48.5481C51.7789 48.7961 52.1642 48.9313 52.5613 48.9313C52.9584 48.9313 53.3437 48.7961 53.6538 48.5481L61.6688 42.1371C62.3313 41.6028 63.1567 41.3115 64.0078 41.3115C64.8588 41.3115 65.6843 41.6028 66.3468 42.1371L74.3638 48.5481C74.674 48.7962 75.0595 48.9314 75.4568 48.9314C75.854 48.9314 76.2395 48.7962 76.5498 48.5481L84.5628 42.1371C85.225 41.6023 86.0505 41.3106 86.9018 41.3106C87.753 41.3106 88.5785 41.6023 89.2408 42.1371L100.684 51.3001C101.443 51.9254 101.926 52.8248 102.028 53.8035C102.13 54.7822 101.842 55.7616 101.228 56.5299C100.613 57.2982 99.7202 57.7936 98.743 57.9089C97.7658 58.0242 96.7825 57.7502 96.0058 57.1461L87.9998 50.7311C87.6893 50.483 87.3037 50.3479 86.9063 50.3479C86.5089 50.3479 86.1233 50.483 85.8128 50.7311L77.7998 57.1411C77.1375 57.6754 76.3122 57.9669 75.4613 57.9669C74.6103 57.9669 73.785 57.6754 73.1228 57.1411L65.0998 50.7301C64.7895 50.4819 64.404 50.3468 64.0068 50.3468C63.6095 50.3468 63.224 50.4819 62.9138 50.7301L54.8998 57.1411C54.2377 57.6751 53.4128 57.9664 52.5623 57.9664C51.7117 57.9664 50.8868 57.6751 50.2248 57.1411L42.1998 50.7281C41.8896 50.4802 41.5043 50.3452 41.1073 50.3452C40.7102 50.3452 40.3249 50.4802 40.0148 50.7281L31.9888 57.1431C31.4104 57.6051 30.708 57.8852 29.9704 57.9481C29.2328 58.0109 28.4932 57.8537 27.845 57.4962C27.1968 57.1387 26.6691 56.597 26.3288 55.9396C25.9884 55.2823 25.8506 54.5388 25.9328 53.8031L25.9348 53.8001Z" fill="white" style="fill:white;fill-opacity:1;"/>
<path d="M102.871 77.2821L91.4289 68.1261C90.1479 67.0909 88.5506 66.5261 86.9035 66.5261C85.2563 66.5261 83.659 67.0909 82.3779 68.1261L75.457 73.6631L68.5319 68.1261C67.2506 67.0924 65.6538 66.5286 64.0075 66.5286C62.3611 66.5286 60.7643 67.0924 59.483 68.1261L52.5619 73.6641L45.6319 68.1251C44.3513 67.0914 42.7552 66.5275 41.1094 66.5275C39.4637 66.5275 37.8676 67.0914 36.587 68.1251L25.1329 77.2791C24.3896 77.873 23.7705 78.6075 23.311 79.4407C22.8515 80.2739 22.5607 81.1894 22.455 82.1349C22.3493 83.0805 22.4309 84.0377 22.6951 84.9517C22.9594 85.8657 23.401 86.7188 23.9949 87.4621C24.5889 88.2055 25.3234 88.8246 26.1565 89.2841C26.9897 89.7436 27.9052 90.0344 28.8508 90.1401C29.7963 90.2458 30.7535 90.1642 31.6675 89.8999C32.5816 89.6357 33.4346 89.194 34.1779 88.6001L41.1089 83.0591L48.0389 88.5991C49.3198 89.6337 50.9165 90.1979 52.5629 90.1979C54.2094 90.1979 55.8061 89.6337 57.087 88.5991L64.008 83.0621L70.9329 88.5991C72.2138 89.6337 73.8105 90.1979 75.457 90.1979C77.1034 90.1979 78.7001 89.6337 79.981 88.5991L86.9009 83.0641L93.8179 88.5981C94.561 89.1922 95.4138 89.6341 96.3277 89.8986C97.2415 90.1631 98.1985 90.2449 99.144 90.1395C100.09 90.0341 101.005 89.7435 101.838 89.2843C102.671 88.8251 103.406 88.2063 104 87.4631C104.594 86.7205 105.037 85.8681 105.302 84.9546C105.567 84.041 105.649 83.0842 105.544 82.1388C105.439 81.1934 105.149 80.2779 104.691 79.4446C104.232 78.6113 103.614 77.8765 102.871 77.2821ZM101.271 85.2821C100.651 86.0571 99.7478 86.5538 98.7612 86.6632C97.7746 86.7725 96.7849 86.4854 96.0099 85.8651L87.9999 79.4511C87.6897 79.203 87.3042 79.0678 86.9069 79.0678C86.5097 79.0678 86.1242 79.203 85.814 79.4511L77.8 85.8601C77.1377 86.3945 76.3124 86.6859 75.4615 86.6859C74.6105 86.6859 73.7852 86.3945 73.123 85.8601L65.0999 79.4501C64.7897 79.202 64.4042 79.0668 64.007 79.0668C63.6097 79.0668 63.2242 79.202 62.914 79.4501L54.9 85.8601C54.2382 86.3947 53.4132 86.6863 52.5624 86.6863C51.7117 86.6863 50.8867 86.3947 50.2249 85.8601L42.1999 79.4481C41.8898 79.2003 41.5045 79.0652 41.1074 79.0652C40.7104 79.0652 40.3251 79.2003 40.0149 79.4481L31.9889 85.8621C31.2125 86.4717 30.2267 86.7498 29.2462 86.636C28.2656 86.5223 27.3698 86.0257 26.7535 85.2546C26.1373 84.4834 25.8507 83.5001 25.956 82.5186C26.0614 81.5371 26.5501 80.637 27.3159 80.0141L38.7699 70.8571C39.4316 70.3227 40.2564 70.0311 41.1069 70.0311C41.9575 70.0311 42.7823 70.3227 43.4439 70.8571L51.4669 77.2701C51.7771 77.518 52.1624 77.653 52.5595 77.653C52.9565 77.653 53.3418 77.518 53.6519 77.2701L61.667 70.8581C62.3296 70.3242 63.155 70.0331 64.0059 70.0331C64.8569 70.0331 65.6823 70.3242 66.345 70.8581L74.3619 77.2701C74.6724 77.5178 75.0578 77.6526 75.455 77.6526C75.8521 77.6526 76.2375 77.5178 76.5479 77.2701L84.5609 70.8581C85.2234 70.3239 86.0489 70.0325 86.8999 70.0325C87.751 70.0325 88.5765 70.3239 89.2389 70.8581L100.682 80.0151C101.457 80.6357 101.954 81.5386 102.063 82.5254C102.172 83.5122 101.885 84.502 101.265 85.2771L101.271 85.2821Z" fill="white" style="fill:white;fill-opacity:1;"/>
</svg>
