<svg width="128" height="128" viewBox="0 0 128 128" fill="none" xmlns="http://www.w3.org/2000/svg">
<path d="M100.155 91.121H92.8351C91.3903 91.1204 89.9709 90.7416 88.718 90.0223C87.465 89.303 86.4222 88.2683 85.6931 87.021L102.942 65.736C104.754 63.5012 105.895 60.7989 106.234 57.9421C106.573 55.0852 106.096 52.1908 104.858 49.594C103.62 46.9971 101.672 44.804 99.239 43.2688C96.806 41.7335 93.9879 40.9188 91.1111 40.919H84.5541V39.655C84.558 36.5708 83.7085 33.5456 82.0997 30.9142C80.4909 28.2827 78.1855 26.1477 75.4386 24.7452C72.6916 23.3428 69.6102 22.7276 66.5353 22.9678C63.4605 23.2079 60.512 24.2941 58.0161 26.106C55.169 24.033 51.7379 22.9162 48.2161 22.9162C44.6943 22.9162 41.2631 24.033 38.4161 26.106C35.5674 24.0361 32.1374 22.9196 28.6161 22.916C27.6978 22.905 26.7864 23.0764 25.9348 23.4202C25.0832 23.764 24.3083 24.2734 23.655 24.9188C23.0017 25.5643 22.483 26.3331 22.129 27.1805C21.7751 28.0279 21.5928 28.9371 21.5928 29.8555C21.5928 30.7739 21.7751 31.6832 22.129 32.5306C22.483 33.378 23.0017 34.1467 23.655 34.7922C24.3083 35.4377 25.0832 35.9471 25.9348 36.2909C26.7864 36.6347 27.6978 36.806 28.6161 36.795C29.3741 36.7958 30.1008 37.0973 30.6368 37.6333C31.1728 38.1693 31.4743 38.896 31.4751 39.654V65.861C31.4641 66.7793 31.6354 67.6907 31.9792 68.5423C32.323 69.3939 32.8324 70.1688 33.4779 70.8221C34.1234 71.4754 34.8921 71.9941 35.7395 72.3481C36.5869 72.7021 37.4962 72.8843 38.4146 72.8843C39.333 72.8843 40.2422 72.7021 41.0896 72.3481C41.937 71.9941 42.7058 71.4754 43.3513 70.8221C43.9967 70.1688 44.5062 69.3939 44.85 68.5423C45.1937 67.6907 45.3651 66.7793 45.3541 65.861V39.655C45.3541 38.8965 45.6554 38.1691 46.1918 37.6327C46.7281 37.0963 47.4556 36.795 48.2141 36.795C48.9726 36.795 49.7 37.0963 50.2364 37.6327C50.7728 38.1691 51.0741 38.8965 51.0741 39.655V65.861C51.0631 66.7793 51.2344 67.6907 51.5782 68.5423C51.922 69.3939 52.4314 70.1688 53.0769 70.8221C53.7224 71.4754 54.4911 71.9941 55.3385 72.3481C56.1859 72.7021 57.0952 72.8843 58.0136 72.8843C58.932 72.8843 59.8412 72.7021 60.6886 72.3481C61.536 71.9941 62.3048 71.4754 62.9503 70.8221C63.5957 70.1688 64.1052 69.3939 64.449 68.5423C64.7927 67.6907 64.9641 66.7793 64.9531 65.861V39.655C64.9531 38.8965 65.2544 38.1691 65.7907 37.6327C66.3271 37.0963 67.0546 36.795 67.8131 36.795C68.5716 36.795 69.299 37.0963 69.8354 37.6327C70.3718 38.1691 70.6731 38.8965 70.6731 39.655V82.839C70.6731 83.059 70.6731 83.277 70.6851 83.495L62.4211 93.695C61.8408 94.4024 61.4061 95.2175 61.142 96.0935C60.8779 96.9694 60.7896 97.889 60.8822 98.7992C60.9748 99.7094 61.2465 100.592 61.6816 101.397C62.1167 102.202 62.7066 102.913 63.4175 103.489C64.1283 104.065 64.9461 104.495 65.8236 104.753C66.7012 105.012 67.6212 105.095 68.5309 104.997C69.4405 104.899 70.3218 104.622 71.124 104.182C71.9262 103.742 72.6334 103.147 73.2051 102.433L76.7451 98.065C78.8086 100.262 81.3017 102.011 84.0696 103.204C86.8374 104.397 89.821 105.008 92.8351 105H100.155C101.073 105.011 101.985 104.84 102.836 104.496C103.688 104.152 104.463 103.643 105.116 102.997C105.769 102.352 106.288 101.583 106.642 100.736C106.996 99.8882 107.178 98.9789 107.178 98.0605C107.178 97.1422 106.996 96.2329 106.642 95.3855C106.288 94.5381 105.769 93.7693 105.116 93.1238C104.463 92.4784 103.688 91.969 102.836 91.6252C101.985 91.2814 101.073 91.11 100.155 91.121ZM100.155 101.5H92.8351C89.9862 101.505 87.1745 100.854 84.6176 99.598C82.0608 98.3417 79.8276 96.5134 78.0911 94.255C77.9296 94.0468 77.7231 93.8777 77.4871 93.7605C77.251 93.6433 76.9916 93.5809 76.7281 93.578H76.7091C76.4485 93.578 76.1912 93.6363 75.9561 93.7486C75.7209 93.8609 75.5139 94.0243 75.3501 94.227L70.4871 100.227C69.9037 100.905 69.0791 101.329 68.1882 101.41C67.2973 101.49 66.4102 101.22 65.7149 100.657C65.0197 100.094 64.571 99.2828 64.4641 98.3947C64.3571 97.5066 64.6003 96.6118 65.1421 95.9L73.8251 85.186C74.0995 84.8484 74.2379 84.4204 74.2131 83.986C74.1901 83.609 74.1751 83.231 74.1751 82.849V39.655C74.1751 37.9682 73.505 36.3506 72.3123 35.1578C71.1195 33.9651 69.5019 33.295 67.8151 33.295C66.1283 33.295 64.5106 33.9651 63.3179 35.1578C62.1251 36.3506 61.4551 37.9682 61.4551 39.655V65.861C61.4629 66.3176 61.3797 66.7712 61.2103 67.1954C61.0409 67.6195 60.7888 68.0056 60.4687 68.3313C60.1485 68.657 59.7667 68.9156 59.3455 69.0922C58.9244 69.2687 58.4723 69.3597 58.0156 69.3597C57.5589 69.3597 57.1068 69.2687 56.6856 69.0922C56.2644 68.9156 55.8826 68.657 55.5625 68.3313C55.2423 68.0056 54.9902 67.6195 54.8209 67.1954C54.6515 66.7712 54.5683 66.3176 54.5761 65.861V39.655C54.5761 37.9682 53.906 36.3506 52.7133 35.1578C51.5205 33.9651 49.9029 33.295 48.2161 33.295C46.5293 33.295 44.9116 33.9651 43.7189 35.1578C42.5261 36.3506 41.8561 37.9682 41.8561 39.655V65.861C41.8639 66.3176 41.7807 66.7712 41.6113 67.1954C41.4419 67.6195 41.1898 68.0056 40.8697 68.3313C40.5495 68.657 40.1677 68.9156 39.7465 69.0922C39.3254 69.2687 38.8733 69.3597 38.4166 69.3597C37.9599 69.3597 37.5078 69.2687 37.0866 69.0922C36.6654 68.9156 36.2836 68.657 35.9635 68.3313C35.6433 68.0056 35.3912 67.6195 35.2219 67.1954C35.0525 66.7712 34.9693 66.3176 34.9771 65.861V39.655C34.9742 37.9698 34.3031 36.3544 33.1111 35.1632C31.9191 33.9719 30.3033 33.3019 28.6181 33.3C28.1615 33.3078 27.7079 33.2246 27.2837 33.0552C26.8596 32.8859 26.4735 32.6338 26.1478 32.3136C25.8221 31.9935 25.5635 31.6117 25.3869 31.1905C25.2104 30.7693 25.1194 30.3172 25.1194 29.8605C25.1194 29.4038 25.2104 28.9517 25.3869 28.5306C25.5635 28.1094 25.8221 27.7276 26.1478 27.4074C26.4735 27.0873 26.8596 26.8352 27.2837 26.6658C27.7079 26.4965 28.1615 26.4132 28.6181 26.421C31.7989 26.4264 34.8711 27.5785 37.2711 29.666C37.5892 29.9417 37.9961 30.0935 38.4171 30.0935C38.8381 30.0935 39.2449 29.9417 39.5631 29.666C41.9606 27.5741 45.0347 26.4214 48.2166 26.4214C51.3984 26.4214 54.4726 27.5741 56.8701 29.666C57.1882 29.9417 57.5951 30.0935 58.0161 30.0935C58.4371 30.0935 58.8439 29.9417 59.1621 29.666C61.0769 28.0007 63.4307 26.9218 65.9422 26.5582C68.4537 26.1946 71.0168 26.5617 73.3253 27.6155C75.6339 28.6694 77.5902 30.3656 78.9607 32.5014C80.3312 34.6372 81.058 37.1223 81.0541 39.66V42.674C81.0541 43.1382 81.2385 43.5833 81.5666 43.9115C81.8948 44.2397 82.3399 44.424 82.8041 44.424H91.1111C93.3268 44.4239 95.4973 45.0513 97.3712 46.2338C99.245 47.4162 100.746 49.1053 101.699 51.1053C102.653 53.1054 103.02 55.3346 102.759 57.535C102.498 59.7353 101.619 61.8166 100.224 63.538L82.2621 85.7C82.0601 85.9487 81.9302 86.2481 81.8867 86.5655C81.8431 86.8829 81.8875 87.2061 82.0151 87.5C82.9244 89.6159 84.4339 91.4189 86.3569 92.6861C88.2799 93.9533 90.5321 94.6291 92.8351 94.63H100.155C100.612 94.6222 101.065 94.7055 101.489 94.8748C101.914 95.0442 102.3 95.2963 102.625 95.6164C102.951 95.9366 103.21 96.3184 103.386 96.7396C103.563 97.1607 103.654 97.6129 103.654 98.0695C103.654 98.5262 103.563 98.9783 103.386 99.3995C103.21 99.8207 102.951 100.202 102.625 100.523C102.3 100.843 101.914 101.095 101.489 101.264C101.065 101.434 100.612 101.517 100.155 101.509V101.5Z" fill="white" style="fill:white;fill-opacity:1;"/>
<path d="M82.7998 73.072C83.0604 73.0721 83.3178 73.014 83.5531 72.9019C83.7884 72.7898 83.9957 72.6265 84.1598 72.4241L94.8778 59.2001C95.4539 58.4884 95.8168 57.6282 95.9244 56.7189C96.032 55.8096 95.8799 54.8885 95.4858 54.062C95.0917 53.2355 94.4717 52.5375 93.6975 52.0488C92.9232 51.56 92.0264 51.3004 91.1108 51.3H82.7998C82.3357 51.3 81.8906 51.4844 81.5624 51.8126C81.2342 52.1408 81.0498 52.5859 81.0498 53.05V71.322C81.0497 71.5519 81.0948 71.7795 81.1827 71.9919C81.2706 72.2043 81.3995 72.3973 81.5621 72.5598C81.7246 72.7223 81.9176 72.8512 82.13 72.9391C82.3423 73.027 82.57 73.0722 82.7998 73.072ZM84.5538 54.8H91.1108C91.3659 54.7998 91.6159 54.8719 91.8317 55.008C92.0475 55.1441 92.2203 55.3386 92.33 55.5689C92.4397 55.7992 92.4818 56.0559 92.4515 56.3092C92.4212 56.5626 92.3197 56.8021 92.1588 57L84.5538 66.3841V54.8Z" fill="white" style="fill:white;fill-opacity:1;"/>
</svg>
