<svg width="48" height="48" viewBox="0 0 48 48" fill="none" xmlns="http://www.w3.org/2000/svg">
<path fill-rule="evenodd" clip-rule="evenodd" d="M24 48C37.2548 48 48 37.2548 48 24C48 10.7452 37.2548 0 24 0C10.7452 0 0 10.7452 0 24C0 37.2548 10.7452 48 24 48ZM19.5368 17.332C18.3089 18.2309 18.3089 20.291 18.3089 24.4111C18.3089 28.5313 18.3089 30.5914 19.5368 31.4903C19.7118 31.6184 19.9002 31.7272 20.0987 31.8147C21.4911 32.4286 23.2752 31.3986 26.8433 29.3385C30.4115 27.2784 32.1956 26.2484 32.3601 24.7356C32.3836 24.5199 32.3836 24.3024 32.3601 24.0867C32.1956 22.5739 30.4115 21.5439 26.8433 19.4838C23.2752 17.4237 21.4911 16.3937 20.0987 17.0076C19.9002 17.0951 19.7118 17.2039 19.5368 17.332Z" fill="white"/>
</svg>
