 <svg width="235" height="41" viewBox="0 0 235 41" fill="none" xmlns="http://www.w3.org/2000/svg">
      <rect y="17.6738" width="4" height="5" rx="2" fill="white"/>
      <rect x="8.23047" y="12.6738" width="4" height="15" rx="2" fill="white"/>
      <rect x="16.4609" y="4.67383" width="4" height="31" rx="2" fill="white"/>
      <rect x="24.6934" y="4.67383" width="4" height="31" rx="2" fill="white"/>
      <rect x="32.9238" y="12.6738" width="4" height="15" rx="2" fill="white"/>
      <rect x="41.1543" y="12.6738" width="4" height="15" rx="2" fill="white"/>
      <rect x="49.3848" y="4.67383" width="4" height="31" rx="2" fill="white"/>
      <rect x="57.6152" y="0.173828" width="4" height="40" rx="2" fill="white"/>
      <rect x="65.8457" y="4.67383" width="4" height="31" rx="2" fill="white"/>
      <rect x="74.0781" y="8.67383" width="4" height="23" rx="2" fill="white"/>
      <rect x="82.3086" y="8.67383" width="4" height="23" rx="2" fill="white"/>
      <rect x="90.5391" y="12.6738" width="4" height="15" rx="2" fill="white"/>
      <rect x="98.7695" y="12.6738" width="4" height="15" rx="2" fill="white"/>
      <rect x="107" y="12.6738" width="4" height="15" rx="2" fill="white"/>
      <rect x="115.23" y="0.173828" width="4" height="40" rx="2" fill="white"/>
      <rect x="123.463" y="4.67383" width="4" height="31" rx="2" fill="white"/>
      <rect x="131.693" y="0.173828" width="4" height="40" rx="2" fill="white"/>
      <rect x="139.924" y="12.6738" width="4" height="15" rx="2" fill="white"/>
      <rect x="148.154" y="12.6738" width="4" height="15" rx="2" fill="white"/>
      <rect x="156.385" y="8.67383" width="4" height="23" rx="2" fill="white"/>
      <rect x="164.615" y="8.67383" width="4" height="23" rx="2" fill="white"/>
      <rect x="172.848" y="15.6738" width="4" height="9" rx="2" fill="white"/>
      <rect x="181.078" y="15.6738" width="4" height="9" rx="2" fill="white"/>
      <rect x="189.309" y="12.6738" width="4" height="15" rx="2" fill="white"/>
      <rect x="197.539" y="12.6738" width="4" height="15" rx="2" fill="white"/>
      <rect x="205.77" y="4.67383" width="4" height="31" rx="2" fill="white"/>
      <rect x="214" y="4.67383" width="4" height="31" rx="2" fill="white"/>
      <rect x="222.232" y="12.6738" width="4" height="15" rx="2" fill="white"/>
      <rect x="230.463" y="17.6738" width="4" height="5" rx="2" fill="white"/>
      </svg>