<svg width="817" height="623" viewBox="0 0 817 623" fill="none" xmlns="http://www.w3.org/2000/svg">
<path d="M744.421 425.028C689.502 425.962 728.211 547.897 708.926 604.871C650.171 666.202 578.733 550.731 514.586 539.565C475.325 520.343 494.955 462.539 490.497 430.11C461.811 451.545 416.639 492.132 380.246 494.103C373.783 494.691 310.673 493.273 318.968 464.475C331.065 422.366 298.473 363.283 264.499 365.703C254.995 366.394 246.424 360.483 244.35 351.183C229.177 283.318 166.552 353.983 150.308 258.668C118.062 157.165 35.4601 331.926 0 120.001C2.97229 119.897 3.11054 118.583 1.48615 116.509C58.6163 85.8436 112.221 47.3305 174.501 27.832C183.453 35.6107 189.846 50.926 194.512 64.6856C202.219 77.6501 242.795 51.41 249.292 51.9286C269.856 50.1309 270.167 75.1955 290.731 76.8203C306.077 78.0304 321.111 73.9855 335.489 66.4834C344.406 61.8507 350.972 53.6918 354.152 44.1499C368.737 0.243662 389.819 64.4782 403.575 9.68178C418.782 -9.78218 442.802 21.0214 472.56 1.14253C492.536 -2.45295 492.882 18.705 531.798 3.6317C551.256 -3.90496 547.489 52.862 589.205 62.4039C605.518 66.3451 622.418 51.7903 638.04 60.1567C672.187 77.7538 731.598 114.331 686.357 151.496C665.655 172.723 691.127 230.734 740.722 230.319C790.318 229.905 803.175 263.474 796.366 280.933C786.344 306.723 823.912 308.659 815.859 354.432C807.806 400.206 812.852 423.472 744.455 424.959L744.421 425.028Z" fill="#D9D9D9"/>
</svg>
