<svg width="818" height="623" viewBox="0 0 818 623" fill="none" xmlns="http://www.w3.org/2000/svg">
<path fill-rule="evenodd" clip-rule="evenodd" d="M491.419 434.084C491.993 442.354 491.413 451.901 490.809 461.854C488.997 491.668 486.965 525.133 515.044 538.876C538.876 543.024 563.714 561.559 588.534 580.08C628.715 610.064 668.849 640.013 704.596 608.836C707.92 605.936 710.262 602.039 711.328 597.758C716.648 576.386 715.612 547.967 714.604 520.329C712.819 471.393 711.123 424.907 744.963 424.332L744.997 424.263C805.763 422.943 808.581 404.443 814.094 368.254C814.789 363.694 815.526 358.854 816.427 353.732C820.828 328.724 811.609 316.801 803.972 306.924C797.629 298.721 792.378 291.929 796.928 280.227C803.739 262.767 790.877 229.196 741.263 229.611C691.649 230.025 666.168 172.01 686.878 150.781C732.136 113.614 672.703 77.0348 638.543 59.4365C629.919 54.8193 620.906 57.1827 611.816 59.5661C604.435 61.5016 597.003 63.4502 589.69 61.6839C566.26 56.3263 557.173 36.0813 550.264 20.6887C544.867 8.66519 540.799 -0.397681 532.262 2.90778C508.299 12.1867 498.955 7.73682 490.651 3.78241C485.465 1.31259 480.685 -0.963951 473.002 0.418435C457.535 10.7476 443.618 7.39393 431.682 4.51765C420.644 1.85803 411.301 -0.393449 403.992 8.95825C396.784 37.6629 387.565 33.7064 378.323 29.7398C369.921 26.1338 361.499 22.5195 354.551 43.4287C351.37 52.9712 344.801 61.1307 335.881 65.7636C321.498 73.2662 306.458 77.3114 291.107 76.1013C281.178 75.3169 275.968 69.0709 270.923 63.0208C265.515 56.5368 260.295 50.2778 249.653 51.2079C247.603 51.0443 242.162 53.5427 235.431 56.6335C220.82 63.3423 200.131 72.8419 194.853 63.9658C190.185 50.2052 183.789 34.8889 174.835 27.1097C130.692 40.9258 90.9052 64.2879 51.1342 87.641C35.9434 96.5608 20.7549 105.479 5.32672 113.864C4.13802 114.51 2.94788 115.153 1.75622 115.792C2.32877 116.523 2.68241 117.16 2.77028 117.682C2.87168 118.285 2.61916 118.736 1.94068 119.005C1.53839 119.164 0.986347 119.259 0.269531 119.284C0.494401 120.628 0.721166 121.956 0.949801 123.269C21.8889 243.481 58.5146 234.769 91.7417 226.866C115.385 221.242 137.307 216.028 150.633 257.961C159.46 309.74 181.977 312.54 203.14 315.172C220.937 317.385 237.776 319.479 244.709 350.482C246.783 359.782 255.358 365.695 264.866 365.003C298.852 362.583 331.456 421.67 319.355 463.781C311.057 492.582 374.189 493.999 380.655 493.411C411.077 491.765 447.631 463.152 475.57 441.282C479.658 438.082 483.561 435.027 487.234 432.221C488.499 431.255 489.737 430.318 490.946 429.415C491.153 430.919 491.308 432.477 491.419 434.084ZM4.79997 121.966C13.5749 172.656 25.019 199.622 37.2043 213.433C43.3351 220.381 49.6357 223.977 55.9575 225.653C62.3515 227.347 69.042 227.15 76.042 226.065C80.9412 225.306 85.733 224.166 90.6288 223.001C92.8468 222.473 95.086 221.94 97.3662 221.436C104.468 219.864 111.811 218.611 118.892 219.274C126.13 219.951 133.041 222.622 139.188 228.694C145.236 234.668 150.318 243.711 154.46 256.745L154.545 257.011L154.592 257.286C158.581 280.688 165.303 293.157 172.794 300.152C180.244 307.109 189.017 309.199 198.627 310.538C200.179 310.755 201.774 310.951 203.398 311.151C211.462 312.144 220.225 313.222 227.782 317.254C237.357 322.364 244.657 331.849 248.628 349.605L248.629 349.608C250.238 356.82 256.901 361.555 264.574 360.997L264.58 360.997C274.325 360.303 283.681 364.04 291.861 370.306C300.042 376.572 307.261 385.515 312.909 395.753C324.157 416.14 329.636 442.545 323.215 464.891L323.214 464.893C322.375 467.805 322.494 470.134 323.146 472.061C323.808 474.021 325.124 475.864 327.142 477.599C331.277 481.156 337.857 483.828 345.441 485.72C360.546 489.489 377.493 489.666 380.291 489.412L380.364 489.405L380.437 489.401C397.463 488.48 417.071 478.416 436.45 465.38C449.384 456.68 461.762 446.989 472.917 438.256C478.454 433.921 483.689 429.823 488.543 426.197L493.997 422.123L494.925 428.868C496.101 437.422 495.677 447.496 495.079 457.731C494.994 459.19 494.905 460.655 494.816 462.123C494.271 471.097 493.719 480.194 493.954 488.991C494.497 509.349 499.206 526.373 516.317 535.024C533.078 538.094 549.982 547.754 566.502 559.108C574.65 564.708 582.821 570.806 590.916 576.846L591.661 577.402C600.025 583.643 608.306 589.807 616.531 595.399C633.068 606.644 648.881 615.222 663.897 617.456C676.487 619.329 688.75 616.778 700.726 606.856C704.315 603.883 706.76 599.763 707.806 595.221C710.64 582.922 711.448 568.119 711.4 552.191C711.371 542.536 711.03 532.581 710.669 522.633L710.59 520.459C710.254 511.261 709.919 502.087 709.826 493.286C709.625 474.43 710.506 456.672 715.163 443.479C717.515 436.818 720.92 431.048 725.882 426.908C730.354 423.176 735.853 420.968 742.418 420.437L742.486 420.301L744.91 420.248C778.997 419.507 792.985 413.3 800.071 403.286C803.728 398.12 805.857 391.541 807.552 383.067C808.504 378.304 809.263 373.308 810.098 367.814C810.787 363.277 811.528 358.401 812.472 353.036C814.387 342.152 813.556 334.111 811.542 327.779C809.516 321.412 806.215 316.507 802.736 311.909C802.144 311.127 801.533 310.338 800.914 309.539C798.051 305.844 795.039 301.956 793.2 297.772C790.781 292.265 790.295 286.204 793.184 278.772L793.186 278.768C796.01 271.527 794.893 260.277 787.14 250.751C779.506 241.372 765.165 233.427 741.297 233.627C714.774 233.848 694.789 218.428 684.23 200.337C678.951 191.292 675.922 181.415 675.647 172.233C675.373 163.061 677.859 154.275 684.003 147.977L684.158 147.818L684.329 147.678C695.066 138.861 698.993 130.6 699.208 123.187C699.208 114.862 695.837 107.975 689.42 100.358C676.521 85.0464 653.794 71.8113 636.704 63.0068L636.676 62.9922L636.648 62.9772C630.336 59.5981 623.625 60.6826 615.37 62.7918C614.541 63.0037 613.692 63.228 612.826 63.457C605.592 65.3688 597.131 67.6047 588.771 65.5935C565.923 60.3578 555.734 42.1177 548.984 27.5825C548.076 25.6275 547.243 23.7723 546.458 22.026C544.193 16.9822 542.336 12.848 540.27 9.8468C538.931 7.90075 537.82 6.93805 536.924 6.52465C536.211 6.19574 535.285 6.04401 533.712 6.65302C523.698 10.5306 515.921 12.1752 509.522 12.3867C503.051 12.6005 498.182 11.3418 494.046 9.70072C491.854 8.83115 490.009 7.95719 488.334 7.16378C483.672 4.95547 480.327 3.37117 474.495 4.24236C458.383 14.6167 443.686 11.5215 432.104 8.74985C431.703 8.65381 431.307 8.55879 430.917 8.46512C425.422 7.14476 421.045 6.09309 417.139 6.22169C413.585 6.33869 410.531 7.44193 407.666 10.8067C405.962 17.4031 404.101 22.4651 402.052 26.2744C399.914 30.2496 397.447 33.0921 394.509 34.7739C388.444 38.2456 382.227 35.7528 378.021 33.9777C377.544 33.7763 377.086 33.58 376.643 33.3902C374.88 32.6344 373.357 31.9818 371.824 31.5222C369.974 30.9675 368.584 30.8568 367.425 31.1321C365.367 31.6212 361.935 33.9438 358.362 44.6951L358.361 44.6987C354.88 55.1433 347.659 64.1697 337.738 69.3245C322.87 77.0803 307.076 81.3888 290.792 80.1051C279.142 79.1849 272.932 71.7183 267.998 65.786C267.762 65.5025 267.529 65.2226 267.299 64.947C264.655 61.7846 262.393 59.2225 259.717 57.4711C257.206 55.8278 254.223 54.84 250.003 55.2088L249.668 55.2381L249.447 55.2205C249.396 55.2274 249.256 55.248 249.006 55.3093C248.552 55.4202 247.935 55.614 247.135 55.9083C245.534 56.4972 243.498 57.3773 241.085 58.4663C239.863 59.0179 238.552 59.62 237.175 60.2523C233.217 62.0696 228.715 64.1367 224.227 65.9719C218.207 68.4329 211.8 70.6555 206.256 71.3539C200.972 72.0196 194.65 71.4814 191.401 66.0185L191.185 65.6557L191.05 65.2558C188.743 58.4546 186.047 51.3873 182.868 45.1089C180.108 39.6566 177.085 35.0063 173.799 31.6515C143.882 41.267 115.889 55.3024 88.3288 70.7658C76.6781 77.3028 65.0129 84.1512 53.3092 91.0221C37.8912 100.074 22.4065 109.164 6.80034 117.634C6.83381 118.227 6.77263 118.881 6.54187 119.564C6.17637 120.645 5.51725 121.422 4.79997 121.966Z" fill="url(#paint0_linear_930_9237)"/>
<path fill-rule="evenodd" clip-rule="evenodd" d="M491.419 434.084C491.993 442.354 491.413 451.901 490.809 461.854C488.997 491.668 486.965 525.133 515.044 538.876C538.876 543.024 563.714 561.559 588.534 580.08C628.715 610.064 668.849 640.013 704.596 608.836C707.92 605.936 710.262 602.039 711.328 597.758C716.648 576.386 715.612 547.967 714.604 520.329C712.819 471.393 711.123 424.907 744.963 424.332L744.997 424.263C805.763 422.943 808.581 404.443 814.094 368.254C814.789 363.694 815.526 358.854 816.427 353.732C820.828 328.724 811.609 316.801 803.972 306.924C797.629 298.721 792.378 291.929 796.928 280.227C803.739 262.767 790.877 229.196 741.263 229.611C691.649 230.025 666.168 172.01 686.878 150.781C732.136 113.614 672.703 77.0348 638.543 59.4365C629.919 54.8193 620.906 57.1827 611.816 59.5661C604.435 61.5016 597.003 63.4502 589.69 61.6839C566.26 56.3263 557.173 36.0813 550.264 20.6887C544.867 8.66519 540.799 -0.397681 532.262 2.90778C508.299 12.1867 498.955 7.73682 490.651 3.78241C485.465 1.31259 480.685 -0.963951 473.002 0.418435C457.535 10.7476 443.618 7.39393 431.682 4.51765C420.644 1.85803 411.301 -0.393449 403.992 8.95825C396.784 37.6629 387.565 33.7064 378.323 29.7398C369.921 26.1338 361.499 22.5195 354.551 43.4287C351.37 52.9712 344.801 61.1307 335.881 65.7636C321.498 73.2662 306.458 77.3114 291.107 76.1013C281.178 75.3169 275.968 69.0709 270.923 63.0208C265.515 56.5368 260.295 50.2778 249.653 51.2079C247.603 51.0443 242.162 53.5427 235.431 56.6335C220.82 63.3423 200.131 72.8419 194.853 63.9658C190.185 50.2052 183.789 34.8889 174.835 27.1097C130.692 40.9258 90.9052 64.2879 51.1342 87.641C35.9434 96.5608 20.7549 105.479 5.32672 113.864C4.13802 114.51 2.94788 115.153 1.75622 115.792C2.32877 116.523 2.68241 117.16 2.77028 117.682C2.87168 118.285 2.61916 118.736 1.94068 119.005C1.53839 119.164 0.986347 119.259 0.269531 119.284C0.494401 120.628 0.721166 121.956 0.949801 123.269C21.8889 243.481 58.5146 234.769 91.7417 226.866C115.385 221.242 137.307 216.028 150.633 257.961C159.46 309.74 181.977 312.54 203.14 315.172C220.937 317.385 237.776 319.479 244.709 350.482C246.783 359.782 255.358 365.695 264.866 365.003C298.852 362.583 331.456 421.67 319.355 463.781C311.057 492.582 374.189 493.999 380.655 493.411C411.077 491.765 447.631 463.152 475.57 441.282C479.658 438.082 483.561 435.027 487.234 432.221C488.499 431.255 489.737 430.318 490.946 429.415C491.153 430.919 491.308 432.477 491.419 434.084ZM4.79997 121.966C13.5749 172.656 25.019 199.622 37.2043 213.433C43.3351 220.381 49.6357 223.977 55.9575 225.653C62.3515 227.347 69.042 227.15 76.042 226.065C80.9412 225.306 85.733 224.166 90.6288 223.001C92.8468 222.473 95.086 221.94 97.3662 221.436C104.468 219.864 111.811 218.611 118.892 219.274C126.13 219.951 133.041 222.622 139.188 228.694C145.236 234.668 150.318 243.711 154.46 256.745L154.545 257.011L154.592 257.286C158.581 280.688 165.303 293.157 172.794 300.152C180.244 307.109 189.017 309.199 198.627 310.538C200.179 310.755 201.774 310.951 203.398 311.151C211.462 312.144 220.225 313.222 227.782 317.254C237.357 322.364 244.657 331.849 248.628 349.605L248.629 349.608C250.238 356.82 256.901 361.555 264.574 360.997L264.58 360.997C274.325 360.303 283.681 364.04 291.861 370.306C300.042 376.572 307.261 385.515 312.909 395.753C324.157 416.14 329.636 442.545 323.215 464.891L323.214 464.893C322.375 467.805 322.494 470.134 323.146 472.061C323.808 474.021 325.124 475.864 327.142 477.599C331.277 481.156 337.857 483.828 345.441 485.72C360.546 489.489 377.493 489.666 380.291 489.412L380.364 489.405L380.437 489.401C397.463 488.48 417.071 478.416 436.45 465.38C449.384 456.68 461.762 446.989 472.917 438.256C478.454 433.921 483.689 429.823 488.543 426.197L493.997 422.123L494.925 428.868C496.101 437.422 495.677 447.496 495.079 457.731C494.994 459.19 494.905 460.655 494.816 462.123C494.271 471.097 493.719 480.194 493.954 488.991C494.497 509.349 499.206 526.373 516.317 535.024C533.078 538.094 549.982 547.754 566.502 559.108C574.65 564.708 582.821 570.806 590.916 576.846L591.661 577.402C600.025 583.643 608.306 589.807 616.531 595.399C633.068 606.644 648.881 615.222 663.897 617.456C676.487 619.329 688.75 616.778 700.726 606.856C704.315 603.883 706.76 599.763 707.806 595.221C710.64 582.922 711.448 568.119 711.4 552.191C711.371 542.536 711.03 532.581 710.669 522.633L710.59 520.459C710.254 511.261 709.919 502.087 709.826 493.286C709.625 474.43 710.506 456.672 715.163 443.479C717.515 436.818 720.92 431.048 725.882 426.908C730.354 423.176 735.853 420.968 742.418 420.437L742.486 420.301L744.91 420.248C778.997 419.507 792.985 413.3 800.071 403.286C803.728 398.12 805.857 391.541 807.552 383.067C808.504 378.304 809.263 373.308 810.098 367.814C810.787 363.277 811.528 358.401 812.472 353.036C814.387 342.152 813.556 334.111 811.542 327.779C809.516 321.412 806.215 316.507 802.736 311.909C802.144 311.127 801.533 310.338 800.914 309.539C798.051 305.844 795.039 301.956 793.2 297.772C790.781 292.265 790.295 286.204 793.184 278.772L793.186 278.768C796.01 271.527 794.893 260.277 787.14 250.751C779.506 241.372 765.165 233.427 741.297 233.627C714.774 233.848 694.789 218.428 684.23 200.337C678.951 191.292 675.922 181.415 675.647 172.233C675.373 163.061 677.859 154.275 684.003 147.977L684.158 147.818L684.329 147.678C695.066 138.861 698.993 130.6 699.208 123.187C699.208 114.862 695.837 107.975 689.42 100.358C676.521 85.0464 653.794 71.8113 636.704 63.0068L636.676 62.9922L636.648 62.9772C630.336 59.5981 623.625 60.6826 615.37 62.7918C614.541 63.0037 613.692 63.228 612.826 63.457C605.592 65.3688 597.131 67.6047 588.771 65.5935C565.923 60.3578 555.734 42.1177 548.984 27.5825C548.076 25.6275 547.243 23.7723 546.458 22.026C544.193 16.9822 542.336 12.848 540.27 9.8468C538.931 7.90075 537.82 6.93805 536.924 6.52465C536.211 6.19574 535.285 6.04401 533.712 6.65302C523.698 10.5306 515.921 12.1752 509.522 12.3867C503.051 12.6005 498.182 11.3418 494.046 9.70072C491.854 8.83115 490.009 7.95719 488.334 7.16378C483.672 4.95547 480.327 3.37117 474.495 4.24236C458.383 14.6167 443.686 11.5215 432.104 8.74985C431.703 8.65381 431.307 8.55879 430.917 8.46512C425.422 7.14476 421.045 6.09309 417.139 6.22169C413.585 6.33869 410.531 7.44193 407.666 10.8067C405.962 17.4031 404.101 22.4651 402.052 26.2744C399.914 30.2496 397.447 33.0921 394.509 34.7739C388.444 38.2456 382.227 35.7528 378.021 33.9777C377.544 33.7763 377.086 33.58 376.643 33.3902C374.88 32.6344 373.357 31.9818 371.824 31.5222C369.974 30.9675 368.584 30.8568 367.425 31.1321C365.367 31.6212 361.935 33.9438 358.362 44.6951L358.361 44.6987C354.88 55.1433 347.659 64.1697 337.738 69.3245C322.87 77.0803 307.076 81.3888 290.792 80.1051C279.142 79.1849 272.932 71.7183 267.998 65.786C267.762 65.5025 267.529 65.2226 267.299 64.947C264.655 61.7846 262.393 59.2225 259.717 57.4711C257.206 55.8278 254.223 54.84 250.003 55.2088L249.668 55.2381L249.447 55.2205C249.396 55.2274 249.256 55.248 249.006 55.3093C248.552 55.4202 247.935 55.614 247.135 55.9083C245.534 56.4972 243.498 57.3773 241.085 58.4663C239.863 59.0179 238.552 59.62 237.175 60.2523C233.217 62.0696 228.715 64.1367 224.227 65.9719C218.207 68.4329 211.8 70.6555 206.256 71.3539C200.972 72.0196 194.65 71.4814 191.401 66.0185L191.185 65.6557L191.05 65.2558C188.743 58.4546 186.047 51.3873 182.868 45.1089C180.108 39.6566 177.085 35.0063 173.799 31.6515C143.882 41.267 115.889 55.3024 88.3288 70.7658C76.6781 77.3028 65.0129 84.1512 53.3092 91.0221C37.8912 100.074 22.4065 109.164 6.80034 117.634C6.83381 118.227 6.77263 118.881 6.54187 119.564C6.17637 120.645 5.51725 121.422 4.79997 121.966Z" fill="url(#paint1_radial_930_9237)"/>
<defs>
<linearGradient id="paint0_linear_930_9237" x1="0.269531" y1="294.851" x2="826.207" y2="294.851" gradientUnits="userSpaceOnUse">
<stop stop-color="#B28325"/>
<stop offset="0.2" stop-color="#FFDA8F"/>
<stop offset="0.390625" stop-color="#B28325"/>
<stop offset="0.6" stop-color="#B28325"/>
<stop offset="0.8" stop-color="#FFDA8F"/>
<stop offset="0.973958" stop-color="#B28325"/>
</linearGradient>
<radialGradient id="paint1_radial_930_9237" cx="0" cy="0" r="1" gradientUnits="userSpaceOnUse" gradientTransform="translate(413.238 294.851) scale(412.969 1111.76)">
<stop stop-color="#B28325"/>
<stop offset="0.654862" stop-color="#FFDA8F"/>
<stop offset="1" stop-color="#B28325"/>
</radialGradient>
</defs>
</svg>
