<svg width="1578" height="1200" viewBox="0 0 1578 1200" fill="none" xmlns="http://www.w3.org/2000/svg">
<path d="M662.838 140.981C652.661 131.611 639.604 127.413 624.023 128.503C606.009 129.767 592.311 136.357 583.302 148.094L581.681 150.199V135.319L544.5 137.926V275.898L581.681 273.292V198.808C581.681 187.533 584.545 178.759 590.197 172.736C595.85 166.708 603.495 163.318 612.917 162.659C621.386 162.071 628.259 164.019 633.341 168.469C638.414 172.915 640.99 179.775 640.99 188.849V269.138L678.175 266.532V181.871C678.175 164.111 673.019 150.347 662.842 140.972L662.838 140.981Z" fill="white"/>
<path d="M753.214 123.337V91.9438L716.033 98.3158V125.939L691.199 127.687V159.202L716.033 157.463V217.486C716.033 236.367 721.294 249.294 731.671 255.909C737.807 259.819 746.746 261.802 758.244 261.802C766.063 261.802 775.172 260.882 785.322 259.065L785.47 259.039V226.491L785.27 226.517C778.297 227.371 772.347 227.833 767.588 227.894C762.899 227.951 759.281 226.966 756.858 224.978C755.045 223.492 753.898 221.217 753.441 218.188C753.288 217.177 753.21 216.087 753.21 214.91V154.861L785.466 152.603V121.084L753.21 123.341L753.214 123.337Z" fill="white"/>
<path d="M1064.94 203.808C1059.19 207.395 1052.54 209.474 1045.19 209.988C1034.24 210.755 1025.07 207.852 1017.92 201.358C1012.55 196.495 1009.16 190.367 1007.81 183.075C1007.35 180.648 1007.13 178.089 1007.13 175.409C1007.13 164.496 1010.76 155.16 1017.93 147.664C1025.1 140.163 1034.27 135.97 1045.21 135.203C1052.38 134.702 1058.92 135.9 1064.67 138.768C1067.89 140.372 1070.7 142.425 1073.03 144.874L1098.13 116.693C1093.89 112.853 1088.98 109.55 1083.54 106.869C1073.82 102.088 1063.04 99.6606 1051.49 99.6606C1049.52 99.6606 1047.5 99.7304 1045.48 99.8742C1024.02 101.378 1005.88 109.702 991.549 124.617C977.215 139.531 969.949 157.492 969.949 177.998C969.949 181.842 970.206 185.564 970.712 189.155C972.922 204.723 979.908 217.877 991.558 228.363C1005.89 241.272 1024.04 247.056 1045.5 245.561C1059.36 244.589 1072.16 240.401 1083.55 233.105C1091.95 227.731 1099.07 221.141 1104.75 213.518L1075.92 193.095C1073.18 197.388 1069.49 200.997 1064.95 203.821L1064.94 203.808Z" fill="white"/>
<path d="M1173.34 94.2218V62.8286L1136.16 69.2005V96.8325L1111.33 98.5715V130.091L1136.16 128.352V128.356V188.38C1136.16 193.1 1136.49 197.445 1137.15 201.416C1139.11 213.327 1144.02 221.834 1151.8 226.794C1157.94 230.704 1166.88 232.687 1178.38 232.687C1186.19 232.687 1195.3 231.767 1205.46 229.95L1205.6 229.924V197.375L1205.4 197.402C1198.43 198.256 1192.48 198.722 1187.73 198.779C1183.08 198.848 1179.42 197.85 1177 195.863C1175.18 194.377 1174.04 192.102 1173.58 189.073C1173.43 188.062 1173.35 186.972 1173.35 185.795V125.746L1205.6 123.488V91.9686L1173.35 94.2262L1173.34 94.2218Z" fill="white"/>
<path d="M398.294 269.117C412.816 282.104 430.882 287.94 451.95 286.472C473.018 284.998 491.114 276.63 505.732 261.603C514.449 252.642 520.659 242.522 524.198 231.526C526.164 224.409 527.167 216.838 527.167 209.041C527.167 176.92 510.862 162.699 505.719 158.135C498.55 151.768 490.434 147.07 481.604 144.167C479.748 143.6 477.852 143.103 475.973 142.689C463.543 139.935 450.202 142.598 439.381 149.99C409.038 170.714 399.205 204.552 398.974 205.249L398.922 205.406C398.055 208.056 396.865 211.695 392.999 211.804C392.964 211.804 392.929 211.804 392.894 211.804C389.517 211.804 388.004 207.359 386.897 204.103L386.719 203.576C385.585 200.268 384.496 196.655 383.485 192.837L383.459 192.732L383.428 192.61C383.402 192.532 383.358 192.462 383.319 192.388C383.101 191.995 382.691 191.725 382.216 191.725C381.711 191.725 381.292 191.961 381.127 192.34L380.931 192.854C377.928 201.043 376.402 209.808 376.402 218.904C376.402 239.231 383.772 256.12 398.299 269.112L398.294 269.117ZM413.579 216.328C413.579 205.415 417.262 196.031 424.519 188.435C430.014 182.677 436.7 178.825 444.393 176.977C446.829 176.393 449.37 176.005 451.95 175.826C462.885 175.068 472.16 178.005 479.508 184.578C486.856 191.146 490.578 200.006 490.578 210.911C490.578 221.828 486.852 231.216 479.495 238.822C476.701 241.707 473.576 244.148 470.216 246.07C464.79 249.164 458.636 250.973 451.92 251.443C450.791 251.522 449.675 251.561 448.59 251.561C439.102 251.561 430.999 248.576 424.506 242.683C417.253 236.106 413.575 227.246 413.575 216.337L413.579 216.328Z" fill="white"/>
<path d="M912.372 125.125C912.402 124.925 907.861 121.128 906.052 119.982C905.708 119.747 903.45 117.664 896.433 114.931C896.198 114.839 895.95 114.757 895.71 114.669C887.974 111.797 877.082 111.165 876.585 111.152C834.75 108.786 798.087 147.248 799.111 189.014C798.052 227.743 830.217 260.435 868.671 256.996C888.431 255.632 903.869 247.869 915.009 234.062C915.009 234.062 915.009 249.896 915.009 249.9L952.194 247.294V109.313L915.009 111.919V127.775C915.009 127.775 912.742 125.487 912.368 125.125H912.372ZM915.013 180.899C915.558 204.635 895.339 222.948 871.992 222.43C851.372 222.665 835.9 207.428 836.301 186.425C835.913 164.054 853.316 146.224 875.526 145.038C886.841 144.245 896.346 147.218 903.799 153.877C911.243 160.537 915.017 169.628 915.017 180.899H915.013Z" fill="white"/>
<path d="M534.258 72.0563C524.351 68.2166 520.084 63.5706 516.698 52.9406C506.255 20.157 474.884 3.20305 420.788 1.1154C418.064 1.0108 415.34 0.958496 412.682 0.958496C377.963 0.958496 347.855 9.85826 323.196 27.405C322.939 27.588 322.664 27.7885 322.376 27.9977L322.263 28.0805C318.589 30.7522 312.444 35.2195 303.853 35.5595C284.302 36.3396 251.575 37.6515 228.824 55.7692C227.395 56.9067 225.734 58.6326 225.939 60.389C226.092 61.6704 227.255 62.8253 229.4 63.8234C259.337 77.7527 261.442 92.5319 254.961 113.347C252.983 119.702 251.61 124.954 250.642 129.874C239.385 187.017 256.888 243.331 297.464 280.516C345.349 324.401 400.6 322.509 429.265 317.471L429.396 317.449C431.558 317.135 432.747 316.011 432.922 314.115C433.279 310.28 429.631 310.022 429.357 309.996C396.621 306.902 367.716 290.205 348.548 262.564C321.945 224.202 319.16 176.456 330.126 138.992C330.574 137.453 331.943 136.468 333.477 136.468C335.094 136.468 336.519 137.584 336.877 139.149C338.72 148.855 344.325 180.836 349.812 180.836C352.571 180.836 353.369 177.389 354.306 174.669C369.63 130.262 406.214 102.225 452.151 99.5096C465.457 98.5638 479.064 98.7905 492.221 99.004C498.101 99.0999 504.172 99.2045 510.121 99.1958C517.661 99.1914 525.306 97.6529 533.482 94.5019C541.231 91.5164 545.289 87.0011 545.542 81.0825C545.759 75.9527 541.423 74.5014 536.829 72.9585C536.829 72.9585 535.448 72.514 534.258 72.052V72.0563Z" fill="white"/>
<path d="M547.3 368.544V894.634L397.355 905.119V648.838L280.398 853.924L266.903 854.868L149.945 666.139V922.42L0 932.905L1.27573e-06 406.815L54.6585 402.993C113.137 398.903 168.972 427.943 199.201 478.17L273.65 601.873L397.355 379.029L547.3 368.544Z" fill="white"/>
<path d="M925.971 868.155L907.977 801.773L756.533 812.363L738.539 881.261L577.348 892.533L744.537 354.752L798.4 350.985C869.841 345.989 935.507 390.277 957.643 458.385L1087.16 856.883L925.971 868.155ZM788.771 689.859L875.739 683.778L832.255 525.234L788.771 689.859Z" fill="white"/>
<path d="M1514.41 825.514C1516.56 826.471 1518.91 826.908 1521.26 826.744L1577.84 822.787L1419.65 567.797L1574.09 296.958L1407.66 308.597L1336.43 433.827L1293.11 364.482C1275.48 336.253 1243.71 320.062 1210.5 322.383L1098.02 330.249L1253.21 579.436L1094.27 856.601L1155.95 852.288C1158.48 852.111 1160.91 851.243 1163.01 849.809C1180.89 837.574 1200.11 826.728 1220.52 817.459C1230.35 812.992 1241.27 808.821 1254.88 804.329C1273.83 798.073 1288.92 790.465 1299.01 778.415L1308.57 761.803C1314.25 746.458 1314.93 725.938 1309.61 697.544C1308.67 692.539 1309.24 689.054 1311.29 687.183C1314.11 684.625 1319.21 685.372 1323 686.451C1383.22 703.612 1426.5 759.29 1452.34 792.558C1463.7 807.178 1479.22 812.348 1488.5 815.437L1488.78 815.532L1489.09 815.635C1489.71 815.839 1490.3 816.035 1490.85 816.225C1498.84 818.979 1506.7 822.076 1514.41 825.514Z" fill="white"/>
<path d="M222.304 1163.94C219.67 1163.39 217.549 1162.88 215.94 1162.4C214.33 1162.07 213.525 1161.91 213.525 1161.91C213.818 1161.16 213.672 1160.51 213.087 1159.96C212.648 1159.41 211.623 1159.11 210.014 1159.08C207.819 1157.76 205.552 1155.87 203.211 1153.39C200.87 1150.92 198.821 1148.35 197.066 1145.68C195.31 1143.02 194.139 1141.05 193.554 1139.77C192.53 1137.64 192.603 1136.31 193.774 1135.79C194.944 1135.12 196.334 1134.37 197.944 1133.52C199.553 1132.23 201.235 1131.24 202.991 1130.53C204.893 1129.81 206.429 1130.65 207.6 1133.06C209.502 1136.3 212.428 1138.96 216.378 1141.03C220.475 1143.09 225.084 1144.16 230.205 1144.24C235.472 1144.32 240.739 1143.07 246.006 1140.5C249.518 1138.64 251.42 1136.31 251.712 1133.5C252.005 1130.55 250.908 1127.25 248.42 1123.61C247.981 1122.47 247.323 1121.56 246.445 1120.89C245.714 1120.21 244.543 1119.33 242.934 1118.27C241.471 1117.2 239.349 1115.44 236.569 1113C234.375 1112.13 232.326 1111.32 230.424 1110.57C228.668 1109.81 226.766 1108.99 224.718 1108.11C222.377 1107.1 219.744 1105.67 216.817 1103.82C213.891 1101.82 211.185 1099.67 208.697 1097.35C206.21 1094.88 204.308 1092.52 202.991 1090.27C200.65 1088.23 199.187 1085.33 198.602 1081.55C198.017 1077.63 198.09 1073.45 198.821 1069C199.699 1064.54 201.089 1060.48 202.991 1056.83C203.869 1054.71 205.478 1051.96 207.819 1048.57C210.16 1045.03 212.794 1041.4 215.72 1037.68C218.646 1033.95 221.426 1030.6 224.06 1027.63C226.84 1024.51 229.034 1022.37 230.644 1021.23C231.814 1019.98 233.058 1018.72 234.375 1017.45C235.691 1016.04 236.35 1015.33 236.35 1015.33C236.496 1014.59 236.715 1014.21 237.008 1014.19C237.447 1014.16 237.667 1014.14 237.667 1014.14C238.398 1013.65 240.007 1012.81 242.495 1011.6C244.982 1010.4 247.689 1008.31 250.615 1005.32C260.418 999.938 268.757 996.201 275.634 994.107C282.51 991.866 287.924 990.608 291.874 990.332C295.532 990.222 299.116 990.999 302.628 992.66C306.139 994.174 309.139 996.238 311.626 998.85C314.259 1001.45 315.796 1004.5 316.235 1007.99C317.259 1011.44 316.747 1015.73 314.698 1020.86C312.796 1025.83 310.09 1030.64 306.578 1035.28C303.213 1039.77 299.702 1043.17 296.044 1045.48C291.947 1047.53 288.436 1047.99 285.51 1046.88C282.73 1045.75 281.413 1043.79 281.559 1040.99C281.559 1039.82 281.925 1038.4 282.657 1036.74C283.535 1035.06 285.802 1032.04 289.46 1027.68C294.142 1020.46 296.629 1015.37 296.922 1012.42C297.214 1009.46 295.898 1007.87 292.971 1007.63C292.094 1007.4 290.411 1007.59 287.924 1008.21C285.437 1008.82 282.73 1009.6 279.804 1010.54C277.024 1011.32 274.536 1012.15 272.342 1013.04C270.294 1013.91 269.269 1014.5 269.269 1014.79C269.269 1014.79 269.269 1015.01 269.269 1015.45C269.269 1015.89 268.977 1016.06 268.391 1015.95C268.099 1015.97 267.075 1016.56 265.319 1017.71C263.71 1018.7 261.734 1020.01 259.393 1021.64C257.053 1023.27 254.712 1024.98 252.371 1026.75C250.176 1028.37 248.274 1029.83 246.665 1031.11C245.055 1032.4 244.177 1033.19 244.031 1033.5C243.738 1035.13 242.056 1036.72 238.983 1038.25C236.057 1040.21 233.497 1042.89 231.302 1046.27C229.107 1049.65 226.547 1053.93 223.621 1059.12C221.134 1062.67 219.378 1066.46 218.354 1070.49C217.33 1074.38 217.33 1077.46 218.354 1079.73C219.085 1082.03 221.06 1084.24 224.279 1086.36C227.644 1088.32 232.18 1090.79 237.886 1093.77C242.86 1096.21 247.542 1098.81 251.932 1101.58C256.321 1104.36 260.052 1107.1 263.124 1109.82C266.197 1112.39 268.172 1114.6 269.05 1116.45C270.806 1118.82 271.83 1121.61 272.122 1124.81C272.561 1128.01 272.561 1131.16 272.122 1134.27C271.83 1137.23 271.391 1139.68 270.806 1141.62C269.781 1144.04 268.172 1146.65 265.977 1149.44C263.929 1152.23 262.027 1153.61 260.271 1153.58C258.662 1154.13 257.418 1154.73 256.54 1155.38C255.809 1156.02 254.931 1156.59 253.907 1157.11C252.883 1157.76 250.469 1158.59 246.665 1159.59C242.86 1160.74 238.691 1161.69 234.155 1162.45C229.619 1163.35 225.669 1163.85 222.304 1163.94ZM299.478 1140.5C298.308 1139.41 297.43 1137.71 296.845 1135.4C296.406 1133.09 296.259 1130.82 296.406 1128.61C296.552 1126.26 296.918 1124.47 297.503 1123.26C297.503 1122.08 297.649 1121.19 297.942 1120.59C298.381 1119.82 298.527 1119.15 298.381 1118.58C298.235 1118 298.381 1116.96 298.82 1115.47C299.259 1113.97 299.698 1112.54 300.137 1111.19C301.161 1108.78 302.331 1105.69 303.648 1101.93C304.965 1098.02 306.282 1094.12 307.598 1090.21C308.915 1086.16 310.013 1082.71 310.89 1079.86C311.768 1076.87 312.28 1075.07 312.427 1074.47C312.427 1072.71 313.597 1071.68 315.938 1071.37C317.694 1070.66 319.815 1071.24 322.302 1073.12C324.79 1075 326.765 1077.07 328.228 1079.31C329.398 1080.4 329.837 1081.91 329.545 1083.84C329.252 1085.76 328.301 1088.54 326.692 1092.18C326.107 1093.39 325.375 1095.42 324.497 1098.27C323.766 1100.96 323.254 1103.2 322.961 1104.98C322.376 1106.19 321.644 1107.93 320.766 1110.19C320.035 1112.3 319.376 1114.32 318.791 1116.27C318.498 1117.02 318.206 1118.44 317.913 1120.51C317.621 1122.44 317.255 1124.44 316.816 1126.53C316.377 1128.61 315.792 1130.27 315.06 1131.49C313.743 1137.6 311.402 1141.28 308.037 1142.54C304.819 1143.79 301.965 1143.11 299.478 1140.5ZM323.18 1050.62C321.571 1049.56 320.327 1048.26 319.449 1046.7C318.718 1044.99 318.279 1043.49 318.133 1042.18C318.133 1040.86 318.279 1040.04 318.572 1039.72C320.035 1038.01 321.278 1035.8 322.302 1033.08C323.473 1030.36 324.717 1027.86 326.033 1025.56C326.326 1025.1 326.692 1024.49 327.131 1023.73C327.716 1022.81 328.301 1022.25 328.886 1022.06C330.642 1020.77 333.056 1020.67 336.129 1021.78C339.348 1022.87 341.688 1024.54 343.152 1026.79C344.468 1029.48 344.834 1032.31 344.249 1035.29C343.81 1038.25 342.274 1041.44 339.64 1044.85C337.446 1047.94 334.666 1050.04 331.301 1051.15C327.935 1052.12 325.229 1051.95 323.18 1050.62ZM444.169 1128.84C443.144 1128.62 441.535 1127.78 439.34 1126.32C437.146 1124.86 435.17 1122.58 433.415 1119.47C431.805 1116.36 431.074 1112.23 431.22 1107.09C431.366 1102.68 431.659 1099.58 432.098 1097.79C432.683 1095.84 432.464 1094.83 431.44 1094.75C430.708 1094.66 429.245 1095.42 427.05 1097.04C424.856 1098.66 422.003 1101.21 418.491 1104.68C414.98 1108.15 410.737 1112.7 405.762 1118.33C404.007 1119.92 402.031 1121.89 399.837 1124.24C397.788 1126.44 395.667 1128.13 393.472 1129.31C391.424 1130.48 389.595 1130.38 387.986 1129.03L385.791 1127.2C384.767 1126.4 383.889 1125.28 383.157 1123.87C382.426 1122.45 382.206 1121.22 382.499 1120.17L388.644 1102.58C390.4 1098.65 391.57 1095.78 392.156 1093.98C392.887 1092.17 393.18 1091.05 393.033 1090.62C393.033 1090.18 392.668 1090.06 391.936 1090.25C391.058 1090.46 389.815 1091.36 388.205 1092.94C386.596 1094.37 385.498 1095.54 384.913 1096.47C384.328 1096.51 383.523 1097.15 382.499 1098.39C381.621 1099.63 380.743 1100.72 379.866 1101.66C378.988 1102.6 377.451 1104.39 375.257 1107.04C373.062 1109.54 370.721 1112.2 368.234 1115.01C366.332 1116.91 364.137 1119.41 361.65 1122.51C359.163 1125.62 356.968 1128.41 355.066 1130.89C353.164 1133.37 351.994 1134.63 351.555 1134.66C348.921 1134.7 346.507 1133.98 344.312 1132.52C342.264 1131.05 340.874 1129.17 340.143 1126.88C339.265 1125.32 339.192 1122.4 339.923 1118.09C340.655 1113.64 342.045 1106.58 344.093 1096.9C344.678 1094.66 345.19 1092.72 345.629 1091.07C346.214 1089.42 346.8 1087.76 347.385 1086.11C347.97 1084.46 348.628 1082.58 349.36 1080.47C350.238 1078.36 351.335 1075.79 352.652 1072.76C353.384 1070.66 353.676 1068.73 353.53 1066.98C353.384 1065.08 353.237 1063.55 353.091 1062.39C353.091 1060.19 353.749 1058.38 355.066 1056.97C356.529 1055.55 358.139 1054.56 359.894 1054C361.65 1053.29 363.04 1053.04 364.064 1053.26C368.161 1053.42 370.941 1054.69 372.404 1057.08C373.867 1059.47 374.672 1061.84 374.818 1064.17C374.964 1066.36 374.672 1068.36 373.94 1070.17C373.208 1071.98 372.623 1073.49 372.184 1074.7L369.77 1080.8C368.307 1084.28 367.21 1086.85 366.478 1088.51C365.893 1090.02 365.527 1091.07 365.381 1091.67C365.381 1092.11 365.381 1092.55 365.381 1092.99C365.527 1093.42 366.186 1093.16 367.356 1092.19C368.527 1091.23 369.916 1089.96 371.526 1088.38C373.282 1086.65 374.891 1085.14 376.354 1083.86C378.988 1081.48 381.768 1079.09 384.694 1076.68C387.766 1074.12 390.766 1071.86 393.692 1069.89C396.618 1067.93 399.032 1066.59 400.934 1065.87C403.421 1066.13 405.689 1067.22 407.737 1069.13C409.932 1071.03 411.322 1072.69 411.907 1074.12C412.639 1076.27 412.712 1078.24 412.127 1080.04C411.688 1081.83 411.322 1083.47 411.029 1084.96C410.883 1085.56 410.591 1086.68 410.152 1088.32C409.713 1089.96 409.274 1091.54 408.835 1093.03C408.396 1094.38 408.176 1095.06 408.176 1095.06C408.176 1095.06 408.615 1094.59 409.493 1093.65C410.371 1092.71 411.542 1091.6 413.005 1090.32C414.468 1088.9 415.931 1087.62 417.394 1086.49C424.709 1080.41 430.489 1076.49 434.732 1074.72C439.121 1072.8 442.852 1073.79 445.924 1077.68C447.68 1079.17 448.777 1081.29 449.216 1084.05C449.801 1086.79 450.094 1090.51 450.094 1095.21C450.24 1097.1 450.387 1099.22 450.533 1101.56C450.826 1103.88 451.118 1105.92 451.411 1107.66C451.85 1109.39 452.216 1110.46 452.508 1110.88C452.947 1111.43 453.752 1111.97 454.922 1112.47C456.093 1112.83 457.19 1113.12 458.214 1113.34C460.263 1114.22 461.36 1116.05 461.506 1118.83C461.799 1121.45 460.775 1123.57 458.434 1125.2C456.239 1126.68 453.898 1127.65 451.411 1128.12C449.07 1128.57 446.656 1128.81 444.169 1128.84ZM464.872 1173.37C462.824 1174.1 460.702 1173.74 458.507 1172.28C456.459 1170.81 454.85 1168.72 453.679 1166.02C452.655 1163.3 452.655 1160.44 453.679 1157.44C453.972 1156.54 454.411 1155.04 454.996 1152.95C455.581 1151 455.947 1149.29 456.093 1147.81C456.24 1146.77 456.679 1144.98 457.41 1142.44C458.142 1140.04 458.946 1137.64 459.824 1135.23C460.848 1132.81 461.653 1131.07 462.238 1130C463.116 1128.47 463.701 1126.74 463.994 1124.82C464.433 1122.88 464.652 1121.4 464.652 1120.37C464.945 1119.32 465.311 1118.12 465.75 1116.77C466.335 1115.41 466.92 1114.34 467.505 1113.57C467.798 1112.38 468.237 1111.1 468.822 1109.74C469.407 1108.23 470.066 1106.94 470.797 1105.86C471.09 1104.81 471.309 1103.55 471.456 1102.07C471.748 1100.59 472.187 1099.75 472.773 1099.56C472.919 1098.97 472.992 1098.37 472.992 1097.79C473.138 1097.19 473.431 1096.36 473.87 1095.31C474.163 1093.67 474.821 1091.28 475.845 1088.13C476.869 1084.98 478.113 1081.52 479.576 1077.75C481.185 1073.38 482.283 1069.64 482.868 1066.52C483.453 1063.25 482.648 1061.25 480.454 1060.52C479.283 1060.02 478.552 1058.75 478.259 1056.72C477.967 1054.54 478.113 1052.33 478.698 1050.09C479.283 1047.85 480.161 1046.47 481.332 1045.94C482.648 1045.26 484.258 1044.79 486.16 1044.51C488.062 1044.23 489.744 1044.11 491.208 1044.15C492.817 1044.04 493.549 1044.14 493.402 1044.44C493.402 1045.17 493.768 1045.59 494.5 1045.68C494.792 1045.22 495.377 1045.84 496.255 1047.54C497.279 1049.08 498.23 1050.85 499.108 1052.84C499.986 1054.83 500.425 1056.19 500.425 1056.93C500.132 1057.54 499.986 1057.91 499.986 1058.06C499.986 1058.06 500.279 1058.04 500.864 1058C500.864 1058 501.669 1057.57 503.278 1056.73C504.887 1055.74 506.57 1054.67 508.326 1053.52C510.228 1052.21 511.471 1051.24 512.057 1050.61C512.057 1050.61 512.422 1050.44 513.154 1050.1C514.032 1049.6 514.763 1049.03 515.349 1048.4C518.275 1047.03 521.42 1046.59 524.786 1047.08C528.297 1047.57 531.077 1048.7 533.125 1050.46C536.051 1053.92 538.246 1058.32 539.709 1063.64C541.319 1068.96 541.099 1074.25 539.051 1079.53C538.758 1080.28 538.1 1081.57 537.076 1083.41C536.198 1085.08 535.32 1086.68 534.442 1088.21C533.564 1089.59 533.125 1090.28 533.125 1090.28C529.76 1095.8 526.029 1100.46 521.933 1104.26C517.982 1108.06 513.666 1111.44 508.984 1114.41C507.521 1115.54 505.473 1116.64 502.839 1117.7C500.352 1118.75 498.011 1119.58 495.816 1120.17C493.768 1120.75 492.524 1120.91 492.085 1120.65C490.476 1119.59 489.013 1117.2 487.696 1113.48C486.965 1115.44 486.233 1117.39 485.501 1119.35C484.916 1121.15 484.55 1122.35 484.404 1122.95C484.258 1123.99 484.112 1124.88 483.965 1125.62C483.819 1126.22 483.453 1126.76 482.868 1127.24C482.868 1127.24 482.795 1127.53 482.648 1128.13C482.502 1128.73 481.99 1129.64 481.112 1130.88C479.649 1135.23 478.479 1138.62 477.601 1141.02C476.723 1143.58 475.991 1145.61 475.406 1147.12C474.967 1148.76 474.528 1150.48 474.089 1152.27C473.797 1156.25 472.846 1160.5 471.236 1165.01C469.773 1169.51 467.652 1172.3 464.872 1173.37ZM497.572 1099.59C498.157 1099.25 499.181 1098.67 500.645 1097.83C502.254 1096.99 504.01 1095.98 505.912 1094.82C507.814 1093.52 509.569 1092.3 511.179 1091.16C512.934 1089.86 514.178 1088.75 514.91 1087.82C516.08 1086.41 516.739 1085.34 516.885 1084.6C517.031 1083.71 517.397 1082.29 517.982 1080.34C518.421 1079.14 518.933 1077.78 519.518 1076.27C520.104 1074.77 520.616 1073.34 521.055 1071.99C521.64 1070.77 521.859 1069.58 521.713 1068.42C521.713 1067.1 521.274 1066.03 520.396 1065.21C519.811 1065.11 518.421 1065.42 516.226 1066.16C514.178 1066.89 511.764 1068.24 508.984 1070.19C506.351 1072.13 503.717 1074.88 501.083 1078.44C498.011 1082.62 495.963 1086.35 494.938 1089.65C493.914 1092.8 493.695 1095.31 494.28 1097.18C494.865 1098.9 495.963 1099.7 497.572 1099.59ZM551.325 1133.23C549.423 1132.63 547.887 1131.56 546.717 1130.03C545.546 1128.65 544.888 1126.49 544.741 1123.57C544.595 1121.67 544.668 1118.88 544.961 1115.19C545.253 1111.36 545.766 1107.51 546.497 1103.65C546.497 1103.35 546.497 1103.06 546.497 1102.77C546.643 1102.32 546.717 1102.02 546.717 1101.87C546.863 1101.27 547.009 1100.38 547.155 1099.2C547.302 1097.87 547.448 1096.83 547.594 1096.09C547.887 1095.19 548.033 1095.11 548.033 1095.84L549.35 1089.81C549.935 1087.13 550.594 1084.37 551.325 1081.53C552.057 1078.69 552.715 1076.23 553.3 1074.13C554.032 1071.88 554.471 1070.6 554.617 1070.3C554.617 1070.3 554.837 1069.48 555.276 1067.83C555.861 1066.03 556.446 1064.23 557.031 1062.43C559.372 1054.93 561.567 1048.69 563.615 1043.71C565.81 1038.72 567.712 1035.06 569.321 1032.75C569.468 1032.3 569.687 1031.77 569.98 1031.16C570.272 1030.41 570.492 1029.81 570.638 1029.36C570.638 1027.75 570.711 1026.57 570.858 1025.82C571.15 1025.07 571.516 1024.38 571.955 1023.77C572.248 1023.16 572.686 1022.4 573.272 1021.47C573.857 1020.41 574.515 1019.11 575.247 1017.6L576.125 1015.11C577.003 1013.15 578.1 1010.87 579.417 1008.28C580.733 1005.55 581.684 1003.51 582.27 1002.15C582.709 1000.79 583.587 999.193 584.903 997.341C586.22 995.342 587.683 993.993 589.293 993.294L589.073 993.089C589.805 991.718 591.195 990.594 593.243 989.718C595.291 988.695 596.974 988.137 598.291 988.045C600.339 987.902 601.875 988.381 602.899 989.483C604.07 990.574 604.655 992.146 604.655 994.2C604.655 996.4 604.582 998.018 604.436 999.055C604.436 999.935 603.924 1001 602.899 1002.24L603.119 1002.23C603.411 1001.91 603.338 1002.36 602.899 1003.56C602.46 1004.77 602.095 1005.6 601.802 1006.06C601.509 1006.81 601.144 1007.65 600.705 1008.56C600.412 1009.46 600.046 1010.14 599.607 1010.61C599.168 1011.23 597.998 1013.37 596.096 1017.02C594.194 1020.52 592.072 1024.71 589.731 1029.56C587.391 1034.27 585.123 1038.91 582.928 1043.46C580.88 1047.86 579.417 1051.26 578.539 1053.67L577.442 1057.04C577.295 1057.64 577.222 1058.08 577.222 1058.38C576.783 1059.44 576.344 1060.49 575.905 1061.55C575.466 1062.61 575.027 1063.52 574.588 1064.28L571.077 1078.17L570.199 1082.85L568.224 1088.05L566.907 1092.32C566.615 1093.22 566.395 1094.19 566.249 1095.23C566.103 1096.26 565.81 1097.02 565.371 1097.49C565.371 1097.63 565.298 1097.86 565.152 1098.16C565.152 1098.31 565.152 1098.46 565.152 1098.6C564.566 1100.99 563.542 1104.36 562.079 1108.72C560.762 1113.06 559.958 1117.81 559.665 1122.97C559.665 1123.11 559.592 1123.26 559.445 1123.42C559.445 1123.57 559.445 1123.71 559.445 1123.86C559.007 1126.97 558.056 1129.39 556.592 1131.1C555.276 1132.95 553.52 1133.66 551.325 1133.23ZM585.723 1169.98C580.456 1171.38 575.408 1171.88 570.58 1171.48C565.752 1171.23 561.728 1170.27 558.509 1168.59C555.144 1166.92 553.096 1164.93 552.364 1162.64C551.486 1159.32 551.925 1156.8 553.681 1155.06C555.437 1153.33 557.558 1152.23 560.046 1151.76C562.386 1151.3 563.923 1151.49 564.654 1152.32C565.825 1152.97 567.654 1153.94 570.141 1155.23C572.774 1156.52 575.993 1156.66 579.797 1155.66C583.162 1154.69 586.162 1152.87 588.795 1150.19C591.429 1147.51 593.77 1144.71 595.818 1141.78C596.989 1139.94 598.964 1136.64 601.744 1131.9C604.524 1127.16 607.377 1121.98 610.303 1116.34C613.375 1110.56 615.936 1105.24 617.984 1100.41C618.423 1099.2 618.935 1097.77 619.52 1096.12C620.106 1094.47 620.837 1093.09 621.715 1092.01C622.593 1090.19 623.324 1088.52 623.91 1087.01C624.641 1085.35 625.08 1084.22 625.226 1083.62C625.373 1082.88 626.031 1081.37 627.202 1079.08C628.372 1076.8 629.469 1074.52 630.494 1072.25C631.225 1070 632.322 1066.7 633.785 1062.34C635.249 1057.99 636.712 1054.44 638.175 1051.7C639.93 1048.2 641.32 1045.39 642.345 1043.26C643.515 1040.98 644.759 1039.58 646.075 1039.04C647.392 1037.92 648.636 1037.32 649.806 1037.24C650.977 1037.16 652.367 1037.5 653.976 1038.27C655.732 1039.91 657.122 1041.57 658.146 1043.26C659.316 1044.79 659.755 1046.81 659.463 1049.33C659.316 1051.68 658.146 1054.99 655.951 1059.25C654.781 1062.85 653.464 1066.17 652.001 1069.21C650.684 1072.09 649.66 1073.99 648.929 1074.92C648.197 1076.74 647.319 1078.78 646.295 1081.05C645.417 1083.16 644.612 1085.13 643.881 1086.94C641.247 1092.99 638.979 1097.91 637.077 1101.71C635.175 1105.51 633.493 1109 632.03 1112.19C630.567 1115.37 629.03 1119.07 627.421 1123.29C624.056 1128.95 620.764 1134.31 617.545 1139.38C614.473 1144.58 611.181 1149.43 607.669 1153.93C606.206 1155.35 604.085 1157.19 601.305 1159.43C598.671 1161.82 595.891 1163.99 592.965 1165.96C590.185 1168.06 587.771 1169.4 585.723 1169.98ZM613.156 1118.35C610.961 1118.21 608.547 1116.91 605.914 1114.45C603.426 1111.99 601.305 1109.35 599.549 1106.54C597.94 1103.72 597.281 1101.71 597.574 1100.51C597.574 1099.78 597.574 1099.19 597.574 1098.75C597.574 1098.31 597.574 1098.09 597.574 1098.09C596.696 1098.16 595.965 1096.96 595.379 1094.51C594.94 1091.9 594.575 1088.62 594.282 1084.69C594.136 1080.74 594.062 1076.63 594.062 1072.38C594.209 1068.12 594.428 1064.21 594.721 1060.67C595.306 1058.14 595.599 1055.41 595.599 1052.47C595.599 1049.39 595.672 1046.97 595.818 1045.2C595.672 1042.86 596.111 1040.92 597.135 1039.39C598.305 1037.84 599.183 1036.82 599.769 1036.34C605.182 1033.62 609.132 1034.59 611.62 1039.25C614.107 1043.92 614.985 1051.56 614.253 1062.17C613.961 1068.06 613.814 1073.71 613.814 1079.14C613.814 1084.42 614.326 1088.93 615.351 1092.67C616.375 1096.41 618.13 1099 620.618 1100.44C621.642 1100.96 622.008 1102.18 621.715 1104.11C621.422 1106.03 620.764 1108.13 619.74 1110.41C618.716 1112.53 617.545 1114.45 616.228 1116.15C615.058 1117.7 614.034 1118.43 613.156 1118.35ZM745.275 1114.39C743.227 1113.94 741.178 1113.06 739.13 1111.74C737.082 1110.41 734.96 1108.87 732.766 1107.12C731.01 1104.9 729.766 1102.86 729.035 1101C728.303 1099 727.864 1096.68 727.718 1094.05C727.718 1091.27 727.718 1087.75 727.718 1083.49C727.718 1081.73 728.01 1079.22 728.596 1075.95C729.327 1072.68 730.059 1069.25 730.79 1065.68C731.668 1062.1 732.473 1058.96 733.204 1056.27C733.936 1053.43 734.375 1051.57 734.521 1050.68C734.96 1048.74 734.229 1047.69 732.327 1047.53C730.425 1047.37 728.303 1047.45 725.962 1047.76C723.767 1047.91 722.304 1047.79 721.573 1047.4C720.988 1047.3 720.695 1046.59 720.695 1045.27C720.695 1043.8 720.695 1043.07 720.695 1043.07C720.695 1042.48 720.402 1042.13 719.817 1042.03C719.232 1041.77 718.72 1041.3 718.281 1040.59C717.988 1040.03 718.354 1038.9 719.378 1037.22C720.402 1035.53 721.719 1034.49 723.329 1034.08C724.645 1033.7 726.621 1033.34 729.254 1033.01C731.888 1032.53 734.521 1031.83 737.155 1030.91C739.935 1029.84 742.056 1028.37 743.519 1026.51C744.836 1023.19 746.299 1019.64 747.909 1015.86C749.518 1011.94 751.054 1008.53 752.517 1005.64C753.98 1002.6 755.005 1000.7 755.59 999.925C758.077 998.432 760.637 997.739 763.271 997.848C765.905 997.811 767.953 998.914 769.416 1001.16C770.148 1002.13 770.733 1002.83 771.172 1003.24C771.757 1003.63 771.976 1004.28 771.83 1005.17C771.83 1006.05 771.245 1007.7 770.074 1010.13C769.05 1012.4 767.295 1015.97 764.807 1020.84C764.076 1022.36 763.417 1023.72 762.832 1024.94C762.247 1026.01 761.954 1026.54 761.954 1026.54C762.539 1026.65 763.417 1026.66 764.588 1026.58C765.758 1026.49 767.221 1026.32 768.977 1026.05C770.586 1025.64 772.342 1025.3 774.244 1025.02C776.146 1024.59 777.829 1024.48 779.292 1024.67C782.657 1024.43 785.144 1025.21 786.754 1027.01C788.363 1028.8 789.241 1031.16 789.387 1034.08C789.68 1035.67 789.095 1037.11 787.632 1038.38C786.168 1039.66 783.462 1040.44 779.511 1040.71C778.195 1040.8 776.293 1041.01 773.805 1041.33C771.318 1041.65 768.758 1041.98 766.124 1042.31C763.49 1042.64 761.223 1043.02 759.321 1043.44C757.565 1043.71 756.687 1044 756.687 1044.29C756.248 1044.61 755.517 1045.84 754.492 1047.96C753.615 1049.93 752.664 1052.34 751.639 1055.2C750.762 1058.05 749.957 1060.75 749.225 1063.29C748.201 1068.35 747.47 1073.24 747.031 1077.96C746.592 1082.69 746.519 1086.8 746.811 1090.3C747.25 1093.64 748.128 1096 749.445 1097.38C750.762 1098.6 752.737 1098.46 755.37 1096.96C758.15 1095.3 760.711 1093.43 763.052 1091.36C765.685 1088.98 767.953 1088.16 769.855 1088.91C771.757 1089.51 772.927 1091.04 773.366 1093.5C773.952 1095.81 773.293 1098.42 771.391 1101.34C769.635 1104.25 767.148 1106.77 763.929 1108.9C760.711 1111.03 757.419 1112.58 754.054 1113.55C750.688 1114.67 747.762 1114.95 745.275 1114.39ZM868.406 1102.92C865.626 1103.84 862.7 1104.56 859.628 1105.07C856.702 1105.72 854.141 1105.01 851.947 1102.97C850.63 1101.01 849.459 1099.25 848.435 1097.71C847.411 1096.17 846.753 1093.36 846.46 1089.27C846.314 1086.49 846.46 1083.48 846.899 1080.22C847.484 1076.81 847.704 1074.37 847.557 1072.91C848.728 1067.41 849.02 1063.5 848.435 1061.19C847.996 1058.88 847.411 1057.74 846.679 1057.8C845.07 1057.62 842.51 1058.97 838.998 1061.85C835.633 1064.73 831.61 1068.75 826.928 1073.92C822.392 1078.93 817.491 1084.62 812.224 1091.01C809.444 1095.01 807.395 1098.02 806.079 1100.01C804.908 1101.86 804.03 1102.8 803.445 1102.84C800.811 1103.02 798.397 1102.75 796.203 1102.03C794.008 1101.3 792.252 1100.18 790.935 1098.65C789.619 1097.13 788.814 1095.5 788.521 1093.76C788.521 1093.18 788.887 1091.61 789.619 1089.07C790.35 1086.37 791.228 1083.31 792.252 1079.86C793.276 1076.42 794.227 1073.2 795.105 1070.2C796.129 1067.2 796.861 1065.09 797.3 1063.89C798.617 1059.98 800.153 1055.26 801.909 1049.71C803.811 1044 805.493 1038.97 806.956 1034.61C807.542 1032.67 808.566 1029.88 810.029 1026.26C811.492 1022.49 812.955 1018.72 814.418 1014.95C815.881 1011.18 816.905 1008.4 817.491 1006.6C817.93 1005.39 818.734 1003.28 819.905 1000.27C821.075 997.106 822.319 993.646 823.636 989.887C825.099 986.118 826.416 982.653 827.586 979.491C828.903 976.172 829.781 973.764 830.22 972.267C830.073 970.957 830.146 969.779 830.439 968.731C830.878 967.527 831.317 966.617 831.756 965.999C832.341 965.958 832.999 965.912 833.731 965.861C834.463 965.663 834.828 965.565 834.828 965.565C834.828 965.271 835.779 965.498 837.681 966.245C839.73 966.982 841.705 967.944 843.607 969.131C845.655 970.161 846.679 971.116 846.679 971.996C847.411 973.851 847.484 976.34 846.899 979.46C846.314 982.435 844.777 987.016 842.29 993.203C840.681 995.662 839.071 999.295 837.462 1004.1C835.999 1008.9 834.536 1012.96 833.073 1016.29C832.487 1017.35 831.61 1019.25 830.439 1021.97C829.415 1024.54 828.171 1027.63 826.708 1031.25C825.391 1034.72 824.075 1038.4 822.758 1042.31C821.441 1046.21 820.271 1050.04 819.246 1053.77C817.783 1057.4 817.271 1059.78 817.71 1060.92C818.149 1062.06 819.905 1060.62 822.977 1056.59C827.074 1051.91 830.878 1047.68 834.389 1043.92C838.047 1040.14 841.412 1037.12 844.485 1034.85C847.704 1032.42 850.557 1031.27 853.044 1031.39C854.361 1031.59 856.043 1032.43 858.092 1033.9C860.286 1035.21 862.334 1036.83 864.237 1038.75C866.285 1040.51 867.602 1042.25 868.187 1043.97C868.772 1045.98 869.138 1047.94 869.284 1049.84C869.577 1051.72 869.65 1054.43 869.504 1057.96C869.357 1061.34 868.992 1066.43 868.406 1073.22C867.528 1078.26 866.943 1081.9 866.651 1084.12C866.358 1086.19 866.431 1087.65 866.87 1088.5C867.455 1089.34 868.333 1090.24 869.504 1091.18C871.698 1092.79 872.576 1094.85 872.137 1097.38C871.698 1099.75 870.455 1101.6 868.406 1102.92ZM933.344 1095.52C928.954 1098.32 924.273 1100.11 919.298 1100.9C914.47 1101.53 909.934 1101.19 905.691 1099.87C901.448 1098.41 898.01 1096.08 895.376 1092.89C893.913 1091.09 892.523 1088.18 891.207 1084.16C889.89 1080 889.67 1074.3 890.548 1067.05C891.426 1060.24 893.474 1053.28 896.693 1046.16C900.058 1039.03 904.155 1032.66 908.983 1027.04C913.811 1021.42 919.079 1017.46 924.785 1015.15C926.833 1014.28 928.881 1013.62 930.93 1013.18C933.124 1012.59 935.977 1012.32 939.489 1012.37C942.854 1012.57 945.853 1013.24 948.487 1014.38C951.12 1015.37 953.022 1016.55 954.193 1017.94C956.534 1020.12 958.07 1022.29 958.802 1024.44C959.533 1026.58 959.826 1028.69 959.679 1030.75C958.948 1035.5 956.826 1040.71 953.315 1046.38C949.95 1052.04 945.195 1056.41 939.05 1059.48C936.562 1060.68 933.636 1061.54 930.271 1062.07C926.906 1062.6 922.297 1062.48 916.445 1061.72C912.934 1061.23 910.593 1061.76 909.422 1063.31C908.398 1064.85 907.959 1067.74 908.105 1071.98C908.398 1074.6 908.983 1076.91 909.861 1078.9C910.885 1080.73 912.714 1081.92 915.348 1082.47C918.713 1082.83 921.127 1082.73 922.59 1082.19C924.053 1081.5 925.882 1080.56 928.077 1079.38C929.247 1078.57 930.344 1077.69 931.369 1076.73C932.539 1075.77 933.636 1074.82 934.66 1073.86C935.831 1072.9 936.782 1072.18 937.514 1071.68C938.245 1071.05 938.977 1070.63 939.708 1070.43C940.44 1070.23 941.171 1070.11 941.903 1070.06C943.512 1070.09 945.048 1070.86 946.512 1072.37C947.975 1073.89 948.926 1075.36 949.365 1076.8C949.365 1077.97 948.633 1079.71 947.17 1082.01C945.707 1084.16 943.732 1086.5 941.244 1089.02C938.903 1091.39 936.27 1093.55 933.344 1095.52ZM930.491 1046.66C931.515 1046.14 932.978 1045.01 934.88 1043.27C936.928 1041.51 938.757 1039.7 940.367 1037.82C941.976 1035.81 942.781 1034.28 942.781 1033.26C942.781 1031.64 941.683 1030.33 939.489 1029.31C937.44 1028.28 934.734 1028.25 931.369 1029.21C930.198 1029.59 928.808 1030.49 927.199 1031.93C925.589 1033.36 923.98 1035.01 922.37 1036.88C920.761 1038.61 919.371 1040.32 918.201 1042.01C917.03 1043.56 916.225 1044.79 915.787 1045.7C916.372 1046.4 917.542 1046.9 919.298 1047.22C921.054 1047.54 922.956 1047.62 925.004 1047.48C927.199 1047.33 929.028 1047.05 930.491 1046.66ZM1045.75 1090.74C1042.82 1090.65 1040.48 1090.08 1038.72 1089.03C1037.11 1087.82 1035.87 1086.29 1034.99 1084.45C1033.82 1083.21 1033.09 1082.23 1032.8 1081.52C1032.65 1080.8 1032.65 1080.14 1032.8 1079.54C1033.53 1079.49 1034.19 1079.44 1034.77 1079.4C1035.36 1079.22 1035.72 1078.9 1035.87 1078.45C1035.87 1078.01 1036.09 1077.7 1036.53 1077.52C1037.11 1077.33 1037.7 1077.29 1038.29 1077.4C1041.07 1077.35 1044.43 1076.16 1048.38 1073.83C1052.48 1071.49 1056.94 1068.32 1061.77 1064.32C1066.6 1060.16 1071.42 1055.72 1076.25 1050.98C1080.06 1045.73 1082.69 1041.88 1084.15 1039.43C1085.76 1036.97 1086.57 1035.15 1086.57 1033.98C1086.71 1032.65 1086.42 1031.35 1085.69 1030.08C1085.1 1028.95 1083.71 1028.46 1081.52 1028.61C1079.33 1028.77 1075.96 1030.47 1071.42 1033.72C1065.13 1038.12 1060.09 1042.14 1056.28 1045.78C1052.48 1049.42 1048.97 1053.48 1045.75 1057.96C1044.58 1059.5 1043.26 1061.21 1041.8 1063.07C1040.48 1064.78 1039.31 1066.25 1038.29 1067.5C1037.41 1068.73 1036.97 1069.35 1036.97 1069.35C1036.97 1069.94 1036.09 1070.73 1034.33 1071.73C1032.73 1072.73 1031.34 1073.26 1030.17 1073.35C1029.58 1073.09 1028.78 1072.64 1027.75 1071.97C1026.87 1071.16 1026.29 1070.1 1026 1068.8C1024.68 1067.86 1023.58 1067.06 1022.7 1066.39C1021.83 1065.57 1021.39 1064.21 1021.39 1062.3C1021.39 1061.13 1021.53 1059.65 1021.83 1057.87C1022.26 1056.08 1022.85 1053.76 1023.58 1050.93C1024.46 1047.05 1025.41 1043.02 1026.43 1038.85C1027.46 1034.52 1028.41 1030.86 1029.29 1027.87C1030.31 1024.72 1031.04 1022.98 1031.48 1022.65C1031.48 1022.65 1031.77 1021.97 1032.36 1020.61C1032.94 1019.25 1033.24 1017.69 1033.24 1015.93C1033.53 1014.15 1033.97 1012.58 1034.55 1011.22C1035.29 1009.85 1035.65 1008.87 1035.65 1008.28C1036.24 1007.8 1037.11 1005.98 1038.29 1002.82C1039.46 999.656 1040.92 995.52 1042.67 990.411C1042.67 989.971 1043.19 988.541 1044.21 986.123C1045.23 983.558 1046.48 980.611 1047.94 977.282C1049.4 973.807 1050.87 970.258 1052.33 966.635C1053.94 962.856 1055.26 959.537 1056.28 956.679C1058.04 954.063 1059.5 951.467 1060.67 948.892C1061.99 946.16 1063.16 944.538 1064.18 944.027C1064.91 943.829 1066.16 944.035 1067.91 944.646C1069.81 945.246 1071.72 946.066 1073.62 947.107C1075.52 948.147 1076.84 949.228 1077.57 950.35C1078.01 951.053 1078.23 951.771 1078.23 952.504C1078.37 953.228 1078.08 954.495 1077.35 956.306C1076.62 957.97 1075.37 960.771 1073.62 964.707C1071.86 968.496 1069.38 973.877 1066.16 980.848C1062.06 989.935 1058.84 997.493 1056.5 1003.52C1054.31 1009.54 1052.48 1014.73 1051.01 1019.09C1049.7 1023.43 1048.31 1027.56 1046.84 1031.48L1045.75 1036.4L1051.45 1029.62C1052.92 1028.05 1054.45 1026.55 1056.06 1025.11C1057.67 1023.68 1059.43 1022.24 1061.33 1020.79C1062.5 1019.82 1064.04 1018.84 1065.94 1017.82C1067.99 1016.65 1069.96 1015.64 1071.86 1014.77C1073.77 1013.9 1075.16 1013.37 1076.03 1013.16C1076.47 1012.98 1077.94 1012.58 1080.42 1011.97C1083.06 1011.2 1085.62 1010.73 1088.1 1010.55C1091.32 1010.33 1094.1 1011.31 1096.44 1013.49C1098.93 1015.52 1101.13 1018.08 1103.03 1021.17C1104.64 1024.14 1105.22 1028.06 1104.78 1032.93C1104.34 1037.65 1103.1 1041.77 1101.05 1045.29C1100.32 1045.93 1099.59 1046.78 1098.86 1047.86C1098.13 1048.79 1097.76 1049.55 1097.76 1050.14C1097.61 1051.18 1096.3 1053.39 1093.81 1056.79C1091.32 1060.05 1088.84 1063.16 1086.35 1066.12C1083.71 1069.09 1080.5 1072.1 1076.69 1075.15C1072.89 1078.06 1069.08 1080.74 1065.28 1083.21C1061.62 1085.52 1058.48 1087.21 1055.84 1088.27C1054.67 1088.5 1052.99 1088.91 1050.79 1089.5C1048.6 1089.95 1046.92 1090.36 1045.75 1090.74ZM1137.12 1089.63C1129.07 1090.19 1122.85 1088.28 1118.46 1083.89C1114.22 1079.49 1112.1 1072.46 1112.1 1062.78C1112.1 1057.5 1113.05 1051.64 1114.95 1045.2C1117 1038.75 1119.63 1032.4 1122.85 1026.16C1126.22 1019.92 1129.88 1014.45 1133.83 1009.78C1137.78 1004.95 1141.73 1001.52 1145.68 999.488C1147.14 998.652 1148.68 998.031 1150.29 997.626C1152.04 997.063 1153.72 996.725 1155.33 996.613C1157.09 996.49 1158.99 996.504 1161.04 996.654C1163.23 996.647 1165.28 996.944 1167.18 997.544C1170.55 998.335 1173.48 1000.11 1175.96 1002.87C1178.6 1005.62 1179.91 1009.78 1179.91 1015.35C1179.91 1016.82 1179.77 1018.44 1179.47 1020.22C1179.18 1021.86 1178.67 1023.51 1177.94 1025.17C1176.04 1030.14 1173.11 1034.97 1169.16 1039.65C1165.36 1044.31 1161.33 1047.67 1157.09 1049.73C1155.92 1050.4 1154.75 1050.92 1153.58 1051.3C1152.55 1051.51 1151.46 1051.66 1150.29 1051.75C1147.21 1051.96 1144.43 1051.71 1141.95 1051.01C1139.61 1050.29 1137.41 1049.27 1135.36 1047.95L1133.61 1046.53L1132.51 1048.81C1131.48 1051.67 1130.75 1054.06 1130.31 1056C1130.02 1057.93 1129.88 1059.33 1129.88 1060.21C1129.88 1061.97 1129.95 1063.8 1130.09 1065.7C1130.24 1067.45 1130.68 1068.88 1131.41 1070.01C1132 1070.7 1132.73 1071.23 1133.61 1071.61C1134.63 1071.98 1135.87 1072.11 1137.34 1072.01C1138.22 1071.95 1139.02 1071.89 1139.75 1071.84C1140.63 1071.63 1141.36 1071.44 1141.95 1071.25C1144.58 1070.48 1146.7 1069.38 1148.31 1067.94C1150.07 1066.35 1151.9 1064.98 1153.8 1063.82L1154.67 1063.32L1154.46 1062.67C1156.94 1061.18 1158.63 1060.26 1159.5 1059.9C1160.38 1059.4 1161.04 1058.99 1161.48 1058.66C1162.06 1058.04 1162.72 1057.7 1163.45 1057.64C1165.5 1057.21 1167.48 1057.66 1169.38 1058.99C1171.43 1060.17 1172.45 1061.78 1172.45 1063.84C1172.45 1064.72 1171.79 1066.16 1170.48 1068.15C1169.31 1070.14 1167.77 1072.16 1165.87 1074.2C1164.11 1076.08 1162.28 1077.6 1160.38 1078.76C1159.94 1078.94 1159.5 1079.19 1159.06 1079.51C1158.63 1079.69 1158.19 1079.94 1157.75 1080.26L1157.97 1080.25C1156.65 1082.1 1155.33 1083.07 1154.02 1083.16L1152.26 1083.29C1151.68 1084.36 1149.77 1085.59 1146.55 1086.99C1143.34 1088.53 1140.19 1089.41 1137.12 1089.63ZM1148.53 1035.81C1149.85 1035.72 1151.02 1035.41 1152.04 1034.9C1153.21 1034.38 1154.31 1033.79 1155.33 1033.13C1158.84 1030.39 1161.11 1027.01 1162.14 1022.98C1163.16 1018.95 1162.8 1015.96 1161.04 1014.03C1160.75 1013.61 1160.38 1013.35 1159.94 1013.23C1159.5 1012.97 1158.99 1012.86 1158.41 1012.9C1156.8 1013.01 1154.97 1013.65 1152.92 1014.82C1151.02 1015.98 1149.12 1017.58 1147.21 1019.62C1145.31 1021.66 1143.56 1024.06 1141.95 1026.81L1139.09 1031.63C1139.39 1031.46 1139.61 1031.37 1139.75 1031.36C1140.04 1031.2 1140.26 1031.11 1140.41 1031.1C1141.73 1031 1142.6 1031.38 1143.04 1032.23C1143.48 1033.08 1143.99 1033.93 1144.58 1034.76C1145.31 1035.59 1146.63 1035.94 1148.53 1035.81ZM1208.88 1081.97C1204.2 1082.3 1199.88 1081.57 1195.93 1079.79C1192.13 1077.86 1189.05 1075.43 1186.71 1072.52C1184.37 1069.46 1183.2 1066.46 1183.2 1063.52C1183.2 1062.2 1183.42 1061.24 1183.86 1060.62C1184.45 1059.99 1185.25 1059.64 1186.27 1059.57C1187.01 1059.66 1187.88 1059.97 1188.91 1060.48C1189.93 1061 1190.96 1061.59 1191.98 1062.25C1194.32 1063.7 1196.88 1064.55 1199.66 1064.79C1202.44 1065.04 1204.93 1064.72 1207.12 1063.83C1209.32 1062.8 1210.56 1061.39 1210.85 1059.61C1210.85 1059.02 1210.56 1057.8 1209.98 1055.93C1209.39 1054.07 1208.66 1052.28 1207.78 1050.59C1204.12 1045.41 1201.86 1040.44 1200.98 1035.66C1200.1 1030.74 1199.52 1025.79 1199.22 1020.82C1199.22 1018.77 1200.17 1016.43 1202.08 1013.8C1203.98 1011.03 1206.32 1008.3 1209.1 1005.61C1212.17 1002.76 1215.54 1000.03 1219.19 997.427C1223 994.814 1226.73 992.574 1230.39 990.704C1234.04 988.835 1237.12 987.667 1239.6 987.2C1242.24 987.016 1245.02 986.968 1247.94 987.057C1251.02 986.989 1253.06 987.359 1254.09 988.167C1256.14 989.637 1258.04 992.144 1259.79 995.688C1261.55 999.232 1262.43 1002.25 1262.43 1004.74C1262.43 1005.92 1261.77 1007.43 1260.45 1009.28C1259.28 1010.98 1258.19 1012.89 1257.16 1015.01C1256.58 1016.08 1256.06 1017.22 1255.63 1018.42C1255.19 1019.62 1254.67 1020.83 1254.09 1022.05C1253.21 1024.16 1251.6 1025.15 1249.26 1025.02C1247.07 1024.74 1245.02 1023.71 1243.12 1021.93C1241.21 1020.01 1240.26 1017.73 1240.26 1015.09C1240.26 1012.89 1240.92 1010.94 1242.24 1009.24C1243.55 1007.53 1244.21 1006.38 1244.21 1005.8C1244.21 1005.5 1244.07 1005.29 1243.77 1005.17C1243.48 1005.04 1242.97 1005 1242.24 1005.06C1241.21 1005.13 1239.53 1005.68 1237.19 1006.73C1235 1007.62 1232.65 1008.88 1230.17 1010.52C1227.68 1012.16 1225.41 1014.08 1223.36 1016.28C1221.9 1017.99 1220.66 1019.84 1219.63 1021.82C1218.76 1023.64 1218.32 1025.58 1218.32 1027.63C1218.32 1029.68 1218.68 1032.08 1219.41 1034.81C1220.29 1037.39 1221.24 1039.52 1222.27 1041.21C1222.56 1041.49 1223 1042.26 1223.58 1043.54C1224.31 1044.66 1225.12 1046.07 1226 1047.77C1231.41 1058.54 1232.29 1066.76 1228.63 1072.45C1225.12 1078.12 1218.54 1081.29 1208.88 1081.97ZM1285.39 1088.5C1278.22 1088.85 1273.61 1087.12 1271.56 1083.31C1269.66 1079.62 1269.15 1074.82 1270.02 1068.89C1270.9 1066.04 1271.41 1063.52 1271.56 1061.31C1271.85 1058.94 1272.51 1057.43 1273.54 1056.77C1273.54 1056.77 1273.61 1056.54 1273.75 1056.09C1274.05 1055.63 1273.97 1055.2 1273.54 1054.79C1273.54 1052.88 1274.19 1050.19 1275.51 1046.73C1275.8 1045.83 1276.17 1044.78 1276.61 1043.57C1277.19 1042.21 1277.49 1041.53 1277.49 1041.53C1276.75 1040.41 1276.75 1039.46 1277.49 1038.67C1278.22 1037.89 1278.95 1037.18 1279.68 1036.54C1280.56 1035.74 1280.63 1034.93 1279.9 1034.1C1279.61 1033.54 1279.97 1032.19 1281 1030.07C1282.02 1027.79 1283.19 1025.44 1284.51 1023C1285.83 1020.56 1286.7 1018.67 1287.14 1017.32C1287.14 1017.02 1287.51 1015.97 1288.24 1014.16C1288.97 1012.35 1289.85 1010.23 1290.87 1007.81C1291.9 1005.4 1292.85 1003.2 1293.73 1001.24C1294.75 999.257 1295.41 997.964 1295.7 997.357C1297.16 996.522 1296.58 996.049 1293.95 995.94C1291.31 995.831 1288.53 995.952 1285.61 996.303C1281.07 996.474 1277.41 996.509 1274.63 996.41C1272 996.301 1269.8 995.795 1268.05 994.891C1266.29 992.96 1266.07 990.556 1267.39 987.677C1268.71 984.651 1270.83 982.963 1273.75 982.612C1275.66 982.332 1277.12 982.157 1278.14 982.085C1279.31 982.003 1280.78 981.827 1282.53 981.558C1284.44 981.132 1287.36 980.56 1291.31 979.844L1302.5 978.181L1303.16 974.395C1304.33 972.407 1305.14 971.104 1305.58 970.487C1306.02 969.869 1306.31 969.262 1306.45 968.665C1306.6 967.922 1306.82 966.66 1307.11 964.879C1307.11 964.879 1307.77 963.66 1309.09 961.221C1310.41 958.636 1311.21 956.013 1311.5 953.352C1313.26 950.296 1314.79 947.549 1316.11 945.11C1317.43 942.525 1318.23 940.928 1318.53 940.321C1321.01 936.481 1323.43 934.332 1325.77 933.875C1328.26 933.407 1330.6 933.83 1332.79 935.144C1334.11 935.785 1335.35 936.651 1336.52 937.743C1337.69 938.688 1338.42 940.03 1338.72 941.769C1339.01 943.362 1338.35 945.535 1336.74 948.287C1336.45 948.895 1336.01 950.025 1335.42 951.679C1334.84 953.187 1334.4 954.464 1334.11 955.512C1333.23 956.6 1332.13 958.363 1330.82 960.802C1329.64 963.084 1328.84 965.413 1328.4 967.791C1327.23 970.366 1326.5 971.957 1326.21 972.564C1325.91 973.171 1325.48 973.495 1324.89 973.536C1325.18 974.982 1326.06 975.654 1327.52 975.552C1328.99 975.303 1331.4 974.987 1334.77 974.606C1337.55 974.118 1339.45 973.691 1340.47 973.327C1341.64 972.805 1342.96 972.859 1344.42 973.49C1345.15 974.466 1345.52 975.98 1345.52 978.034C1345.67 979.93 1345.45 981.852 1344.86 983.8C1344.28 985.601 1343.47 986.757 1342.45 987.268C1341.72 987.32 1340.18 987.867 1337.84 988.911C1335.64 989.797 1332.86 990.432 1329.5 990.814L1317.87 992.727L1314.14 1000.47C1313.11 1002.45 1312.23 1004.27 1311.5 1005.93C1310.77 1007.45 1310.26 1008.37 1309.97 1008.68C1309.97 1009.56 1309.45 1010.92 1308.43 1012.75C1307.55 1014.57 1306.6 1016.54 1305.58 1018.67C1304.7 1021.22 1303.68 1023.57 1302.5 1025.7C1301.48 1027.83 1300.97 1028.89 1300.97 1028.89C1300.38 1028.93 1300.09 1029.39 1300.09 1030.27C1300.82 1031.98 1300.6 1033.31 1299.43 1034.28C1298.7 1034.77 1298.04 1035.47 1297.46 1036.39C1297.02 1037.16 1296.8 1037.54 1296.8 1037.54C1297.38 1038.09 1297.46 1038.81 1297.02 1039.73C1296.73 1040.63 1296.29 1041.61 1295.7 1042.68C1295.7 1043.85 1295.34 1045.56 1294.6 1047.81C1294.02 1050.05 1293.36 1052.15 1292.63 1054.11C1292.78 1056.74 1292.92 1058.42 1293.07 1059.14C1293.21 1059.86 1293.58 1060.13 1294.16 1059.94C1294.9 1060.04 1295.92 1059.97 1297.24 1059.73C1298.55 1059.49 1299.51 1059.35 1300.09 1059.31C1302.29 1058.13 1301.26 1063.34 1297.02 1074.93C1294.68 1078.76 1292.34 1081.93 1290 1084.44C1287.65 1087.09 1286.12 1088.45 1285.39 1088.5ZM1412.51 1030.99C1408.41 1032.01 1405.19 1030.55 1402.85 1026.6C1400.51 1022.51 1400.66 1015.1 1403.29 1004.35C1404.17 1002.53 1404.9 1000.79 1405.49 999.14C1406.07 997.339 1406.36 995.926 1406.36 994.899C1406.95 992.951 1407.68 990.7 1408.56 988.145C1409.58 985.434 1410.61 982.942 1411.63 980.671C1412.66 978.252 1413.39 976.661 1413.83 975.897C1414.41 975.856 1415 975.302 1415.58 974.234C1416.31 973.156 1416.68 972.104 1416.68 971.078C1416.68 969.904 1416.9 968.569 1417.34 967.072C1417.92 965.564 1418.51 964.496 1419.09 963.869C1419.09 963.135 1419.39 962.308 1419.97 961.387C1420.56 960.466 1420.85 959.713 1420.85 959.126C1420.85 958.539 1421 958.016 1421.29 957.555C1421.73 957.085 1421.95 956.556 1421.95 955.969C1423.26 953.531 1424.95 949.966 1426.99 945.276C1429.19 940.43 1431.31 935.368 1433.36 930.091C1435.55 924.804 1437.38 920.13 1438.84 916.068C1440.31 912.005 1441.04 909.534 1441.04 908.654C1441.33 907.46 1441.77 906.33 1442.36 905.262C1442.94 904.194 1443.82 903.766 1444.99 903.978C1445.58 903.497 1446.45 903.216 1447.62 903.134C1448.79 902.905 1449.67 902.771 1450.26 902.73C1450.26 902.73 1450.92 902.977 1452.23 903.471C1453.55 903.966 1454.72 904.764 1455.74 905.866C1456.91 906.811 1457.57 908.158 1457.72 909.908C1457.87 911.658 1457.94 913.412 1457.94 915.172C1457.79 917.969 1456.77 921.194 1454.87 924.847C1452.96 928.5 1450.84 932.535 1448.5 936.952C1447.04 939.841 1445.58 942.584 1444.11 945.179C1442.8 947.765 1442.14 949.351 1442.14 949.937C1442.14 950.524 1441.84 951.425 1441.26 952.639C1440.67 953.853 1440.02 955.366 1439.28 957.177C1438.41 958.705 1437.53 960.526 1436.65 962.641C1435.92 964.746 1435.26 966.698 1434.68 968.499C1434.09 970.153 1433.8 971.201 1433.8 971.641C1433.65 972.237 1433.43 972.839 1433.14 973.447C1432.99 974.044 1432.63 974.656 1432.04 975.283C1431.46 975.324 1431.09 975.79 1430.94 976.68C1430.94 977.413 1430.94 977.78 1430.94 977.78C1430.94 978.367 1430.58 979.786 1429.85 982.037C1429.26 984.131 1428.24 986.696 1426.77 989.732C1423.99 997.699 1422.02 1004.07 1420.85 1008.85C1419.68 1013.47 1418.95 1017.41 1418.65 1020.66C1418.36 1024.2 1417.56 1026.68 1416.24 1028.09C1414.92 1029.35 1413.68 1030.32 1412.51 1030.99ZM1400.88 1065.9C1397.81 1067.29 1395.24 1067.98 1393.2 1067.98C1391.15 1068.12 1388.88 1067.33 1386.39 1065.6C1383.47 1062.87 1382.44 1060 1383.32 1057.01C1384.34 1053.86 1386.98 1050.74 1391.22 1047.66C1394.15 1045.55 1396.27 1044.44 1397.59 1044.35C1399.05 1044.1 1401.17 1044.47 1403.95 1045.45C1408.92 1048.18 1411.12 1051.47 1410.53 1055.33C1409.95 1059.03 1406.73 1062.56 1400.88 1065.9Z" fill="white"/>
</svg>
