<svg fill="none" height="1200" viewBox="0 0 1578 1200" width="1578" xmlns="http://www.w3.org/2000/svg"><g fill="#fff"><path d="m662.838 140.981c-10.177-9.37-23.234-13.568-38.815-12.478-18.014 1.264-31.712 7.854-40.721 19.591l-1.621 2.105v-14.88l-37.181 2.607v137.972l37.181-2.606v-74.484c0-11.275 2.864-20.049 8.516-26.072 5.653-6.028 13.298-9.418 22.72-10.077 8.469-.588 15.342 1.36 20.424 5.81 5.073 4.446 7.649 11.306 7.649 20.38v80.289l37.185-2.606v-84.661c0-17.76-5.156-31.524-15.333-40.899z"/><path d="m753.214 123.337v-31.3932l-37.181 6.372v27.6232l-24.834 1.748v31.515l24.834-1.739v60.023c0 18.881 5.261 31.808 15.638 38.423 6.136 3.91 15.075 5.893 26.573 5.893 7.819 0 16.928-.92 27.078-2.737l.148-.026v-32.548l-.2.026c-6.973.854-12.923 1.316-17.682 1.377-4.689.057-8.307-.928-10.73-2.916-1.813-1.486-2.96-3.761-3.417-6.79-.153-1.011-.231-2.101-.231-3.278v-60.049l32.256-2.258v-31.519l-32.256 2.257z"/><path d="m1064.94 203.808c-5.75 3.587-12.4 5.666-19.75 6.18-10.95.767-20.12-2.136-27.27-8.63-5.37-4.863-8.76-10.991-10.11-18.283-.46-2.427-.68-4.986-.68-7.666 0-10.913 3.63-20.249 10.8-27.745 7.17-7.501 16.34-11.694 27.28-12.461 7.17-.501 13.71.697 19.46 3.565 3.22 1.604 6.03 3.657 8.36 6.106l25.1-28.181c-4.24-3.84-9.15-7.143-14.59-9.824-9.72-4.781-20.5-7.2084-32.05-7.2084-1.97 0-3.99.0698-6.01.2136-21.46 1.5038-39.6 9.8278-53.931 24.7428-14.334 14.914-21.6 32.875-21.6 53.381 0 3.844.257 7.566.763 11.157 2.21 15.568 9.196 28.722 20.846 39.208 14.332 12.909 32.482 18.693 53.942 17.198 13.86-.972 26.66-5.16 38.05-12.456 8.4-5.374 15.52-11.964 21.2-19.587l-28.83-20.423c-2.74 4.293-6.43 7.902-10.97 10.726z"/><path d="m1173.34 94.2218v-31.3932l-37.18 6.3719v27.632l-24.83 1.739v31.5195l24.83-1.739v.004 60.024c0 4.72.33 9.065.99 13.036 1.96 11.911 6.87 20.418 14.65 25.378 6.14 3.91 15.08 5.893 26.58 5.893 7.81 0 16.92-.92 27.08-2.737l.14-.026v-32.549l-.2.027c-6.97.854-12.92 1.32-17.67 1.377-4.65.069-8.31-.929-10.73-2.916-1.82-1.486-2.96-3.761-3.42-6.79-.15-1.011-.23-2.101-.23-3.278v-60.049l32.25-2.258v-31.5194l-32.25 2.2576z"/><path d="m398.294 269.117c14.522 12.987 32.588 18.823 53.656 17.355 21.068-1.474 39.164-9.842 53.782-24.869 8.717-8.961 14.927-19.081 18.466-30.077 1.966-7.117 2.969-14.688 2.969-22.485 0-32.121-16.305-46.342-21.448-50.906-7.169-6.367-15.285-11.065-24.115-13.968-1.856-.567-3.752-1.064-5.631-1.478-12.43-2.754-25.771-.091-36.592 7.301-30.343 20.724-40.176 54.562-40.407 55.259l-.052.157c-.867 2.65-2.057 6.289-5.923 6.398-.035 0-.07 0-.105 0-3.377 0-4.89-4.445-5.997-7.701l-.178-.527c-1.134-3.308-2.223-6.921-3.234-10.739l-.026-.105-.031-.122c-.026-.078-.07-.148-.109-.222-.218-.393-.628-.663-1.103-.663-.505 0-.924.236-1.089.615l-.196.514c-3.003 8.189-4.529 16.954-4.529 26.05 0 20.327 7.37 37.216 21.897 50.208zm15.285-52.789c0-10.913 3.683-20.297 10.94-27.893 5.495-5.758 12.181-9.61 19.874-11.458 2.436-.584 4.977-.972 7.557-1.151 10.935-.758 20.21 2.179 27.558 8.752 7.348 6.568 11.07 15.428 11.07 26.333 0 10.917-3.726 20.305-11.083 27.911-2.794 2.885-5.919 5.326-9.279 7.248-5.426 3.094-11.58 4.903-18.296 5.373-1.129.079-2.245.118-3.33.118-9.488 0-17.591-2.985-24.084-8.878-7.253-6.577-10.931-15.437-10.931-26.346z"/><path d="m912.372 125.125c.03-.2-4.511-3.997-6.32-5.143-.344-.235-2.602-2.318-9.619-5.051-.235-.092-.483-.174-.723-.262-7.736-2.872-18.628-3.504-19.125-3.517-41.835-2.366-78.498 36.096-77.474 77.862-1.059 38.729 31.106 71.421 69.56 67.982 19.76-1.364 35.198-9.127 46.338-22.934v15.838l37.185-2.606v-137.981l-37.185 2.606v15.856s-2.267-2.288-2.641-2.65zm2.641 55.774c.545 23.736-19.674 42.049-43.021 41.531-20.62.235-36.092-15.002-35.691-36.005-.388-22.371 17.015-40.201 39.225-41.387 11.315-.793 20.82 2.18 28.273 8.839 7.444 6.66 11.218 15.751 11.218 27.022z"/><path d="m534.258 72.0563c-9.907-3.8397-14.174-8.4857-17.56-19.1157-10.443-32.7836-41.814-49.73755-95.91-51.8252-2.724-.1046-5.448-.156904-8.106-.156904-34.719 0-64.827 8.899764-89.486 26.446504-.257.183-.532.3835-.82.5927l-.113.0828c-3.674 2.6717-9.819 7.139-18.41 7.479-19.551.7801-52.278 2.092-75.029 20.2097-1.429 1.1375-3.09 2.8634-2.885 4.6198.153 1.2814 1.316 2.4363 3.461 3.4344 29.937 13.9293 32.042 28.7085 25.561 49.5236-1.978 6.355-3.351 11.607-4.319 16.527-11.257 57.143 6.246 113.457 46.822 150.642 47.885 43.885 103.136 41.993 131.801 36.955l.131-.022c2.162-.314 3.351-1.438 3.526-3.334.357-3.835-3.291-4.093-3.565-4.119-32.736-3.094-61.641-19.791-80.809-47.432-26.603-38.362-29.388-86.108-18.422-123.572.448-1.539 1.817-2.524 3.351-2.524 1.617 0 3.042 1.116 3.4 2.681 1.843 9.706 7.448 41.687 12.935 41.687 2.759 0 3.557-3.447 4.494-6.167 15.324-44.407 51.908-72.444 97.845-75.1594 13.306-.9458 26.913-.7191 40.07-.5056 5.88.0959 11.951.2005 17.9.1918 7.54-.0044 15.185-1.5429 23.361-4.6939 7.749-2.9855 11.807-7.5008 12.06-13.4194.217-5.1298-4.119-6.5811-8.713-8.124 0 0-1.381-.4445-2.571-.9065z"/><path d="m547.3 368.544v526.09l-149.945 10.485v-256.281l-116.957 205.086-13.495.944-116.958-188.729v256.281l-149.945 10.485.00000128-526.09 54.65849872-3.822c58.4785-4.09 114.3135 24.95 144.5425 75.177l74.449 123.703 123.705-222.844z"/><path d="m925.971 868.155-17.994-66.382-151.444 10.59-17.994 68.898-161.191 11.272 167.189-537.781 53.863-3.767c71.441-4.996 137.107 39.292 159.243 107.4l129.517 398.498zm-137.2-178.296 86.968-6.081-43.484-158.544z"/><path d="m1514.41 825.514c2.15.957 4.5 1.394 6.85 1.23l56.58-3.957-158.19-254.99 154.44-270.839-166.43 11.639-71.23 125.23-43.32-69.345c-17.63-28.229-49.4-44.42-82.61-42.099l-112.48 7.866 155.19 249.187-158.94 277.165 61.68-4.313c2.53-.177 4.96-1.045 7.06-2.479 17.88-12.235 37.1-23.081 57.51-32.35 9.83-4.467 20.75-8.638 34.36-13.13 18.95-6.256 34.04-13.864 44.13-25.914l9.56-16.612c5.68-15.345 6.36-35.865 1.04-64.259-.94-5.005-.37-8.49 1.68-10.361 2.82-2.558 7.92-1.811 11.71-.732 60.22 17.161 103.5 72.839 129.34 106.107 11.36 14.62 26.88 19.79 36.16 22.879l.28.095.31.103c.62.204 1.21.4 1.76.59 7.99 2.754 15.85 5.851 23.56 9.289z"/><path d="m222.304 1163.94c-2.634-.55-4.755-1.06-6.364-1.54-1.61-.33-2.415-.49-2.415-.49.293-.75.147-1.4-.438-1.95-.439-.55-1.464-.85-3.073-.88-2.195-1.32-4.462-3.21-6.803-5.69-2.341-2.47-4.39-5.04-6.145-7.71-1.756-2.66-2.927-4.63-3.512-5.91-1.024-2.13-.951-3.46.22-3.98 1.17-.67 2.56-1.42 4.17-2.27 1.609-1.29 3.291-2.28 5.047-2.99 1.902-.72 3.438.12 4.609 2.53 1.902 3.24 4.828 5.9 8.778 7.97 4.097 2.06 8.706 3.13 13.827 3.21 5.267.08 10.534-1.17 15.801-3.74 3.512-1.86 5.414-4.19 5.706-7 .293-2.95-.804-6.25-3.292-9.89-.439-1.14-1.097-2.05-1.975-2.72-.731-.68-1.902-1.56-3.511-2.62-1.463-1.07-3.585-2.83-6.365-5.27-2.194-.87-4.243-1.68-6.145-2.43-1.756-.76-3.658-1.58-5.706-2.46-2.341-1.01-4.974-2.44-7.901-4.29-2.926-2-5.632-4.15-8.12-6.47-2.487-2.47-4.389-4.83-5.706-7.08-2.341-2.04-3.804-4.94-4.389-8.72-.585-3.92-.512-8.1.219-12.55.878-4.46 2.268-8.52 4.17-12.17.878-2.12 2.487-4.87 4.828-8.26 2.341-3.54 4.975-7.17 7.901-10.89 2.926-3.73 5.706-7.08 8.34-10.05 2.78-3.12 4.974-5.26 6.584-6.4 1.17-1.25 2.414-2.51 3.731-3.78 1.316-1.41 1.975-2.12 1.975-2.12.146-.74.365-1.12.658-1.14.439-.03.659-.05.659-.05.731-.49 2.34-1.33 4.828-2.54 2.487-1.2 5.194-3.29 8.12-6.28 9.803-5.382 18.142-9.119 25.019-11.213 6.876-2.241 12.29-3.499 16.24-3.775 3.658-.11 7.242.667 10.754 2.328 3.511 1.514 6.511 3.578 8.998 6.19 2.633 2.6 4.17 5.65 4.609 9.14 1.024 3.45.512 7.74-1.537 12.87-1.902 4.97-4.608 9.78-8.12 14.42-3.365 4.49-6.876 7.89-10.534 10.2-4.097 2.05-7.608 2.51-10.534 1.4-2.78-1.13-4.097-3.09-3.951-5.89 0-1.17.366-2.59 1.098-4.25.878-1.68 3.145-4.7 6.803-9.06 4.682-7.22 7.169-12.31 7.462-15.26.292-2.96-1.024-4.55-3.951-4.79-.877-.23-2.56-.04-5.047.58-2.487.61-5.194 1.39-8.12 2.33-2.78.78-5.268 1.61-7.462 2.5-2.048.87-3.073 1.46-3.073 1.75v.66c0 .44-.292.61-.878.5-.292.02-1.316.61-3.072 1.76-1.609.99-3.585 2.3-5.926 3.93-2.34 1.63-4.681 3.34-7.022 5.11-2.195 1.62-4.097 3.08-5.706 4.36-1.61 1.29-2.488 2.08-2.634 2.39-.293 1.63-1.975 3.22-5.048 4.75-2.926 1.96-5.486 4.64-7.681 8.02s-4.755 7.66-7.681 12.85c-2.487 3.55-4.243 7.34-5.267 11.37-1.024 3.89-1.024 6.97 0 9.24.731 2.3 2.706 4.51 5.925 6.63 3.365 1.96 7.901 4.43 13.607 7.41 4.974 2.44 9.656 5.04 14.046 7.81 4.389 2.78 8.12 5.52 11.192 8.24 3.073 2.57 5.048 4.78 5.926 6.63 1.756 2.37 2.78 5.16 3.072 8.36.439 3.2.439 6.35 0 9.46-.292 2.96-.731 5.41-1.316 7.35-1.025 2.42-2.634 5.03-4.829 7.82-2.048 2.79-3.95 4.17-5.706 4.14-1.609.55-2.853 1.15-3.731 1.8-.731.64-1.609 1.21-2.633 1.73-1.024.65-3.438 1.48-7.242 2.48-3.805 1.15-7.974 2.1-12.51 2.86-4.536.9-8.486 1.4-11.851 1.49zm77.174-23.44c-1.17-1.09-2.048-2.79-2.633-5.1-.439-2.31-.586-4.58-.439-6.79.146-2.35.512-4.14 1.097-5.35 0-1.18.146-2.07.439-2.67.439-.77.585-1.44.439-2.01-.146-.58 0-1.62.439-3.11.439-1.5.878-2.93 1.317-4.28 1.024-2.41 2.194-5.5 3.511-9.26 1.317-3.91 2.634-7.81 3.95-11.72 1.317-4.05 2.415-7.5 3.292-10.35.878-2.99 1.39-4.79 1.537-5.39 0-1.76 1.17-2.79 3.511-3.1 1.756-.71 3.877-.13 6.364 1.75 2.488 1.88 4.463 3.95 5.926 6.19 1.17 1.09 1.609 2.6 1.317 4.53-.293 1.92-1.244 4.7-2.853 8.34-.585 1.21-1.317 3.24-2.195 6.09-.731 2.69-1.243 4.93-1.536 6.71-.585 1.21-1.317 2.95-2.195 5.21-.731 2.11-1.39 4.13-1.975 6.08-.293.75-.585 2.17-.878 4.24-.292 1.93-.658 3.93-1.097 6.02-.439 2.08-1.024 3.74-1.756 4.96-1.317 6.11-3.658 9.79-7.023 11.05-3.218 1.25-6.072.57-8.559-2.04zm23.702-89.88c-1.609-1.06-2.853-2.36-3.731-3.92-.731-1.71-1.17-3.21-1.316-4.52 0-1.32.146-2.14.439-2.46 1.463-1.71 2.706-3.92 3.73-6.64 1.171-2.72 2.415-5.22 3.731-7.52.293-.46.659-1.07 1.098-1.83.585-.92 1.17-1.48 1.755-1.67 1.756-1.29 4.17-1.39 7.243-.28 3.219 1.09 5.559 2.76 7.023 5.01 1.316 2.69 1.682 5.52 1.097 8.5-.439 2.96-1.975 6.15-4.609 9.56-2.194 3.09-4.974 5.19-8.339 6.3-3.366.97-6.072.8-8.121-.53zm120.989 78.22c-1.025-.22-2.634-1.06-4.829-2.52-2.194-1.46-4.17-3.74-5.925-6.85-1.61-3.11-2.341-7.24-2.195-12.38.146-4.41.439-7.51.878-9.3.585-1.95.366-2.96-.658-3.04-.732-.09-2.195.67-4.39 2.29-2.194 1.62-5.047 4.17-8.559 7.64-3.511 3.47-7.754 8.02-12.729 13.65-1.755 1.59-3.731 3.56-5.925 5.91-2.049 2.2-4.17 3.89-6.365 5.07-2.048 1.17-3.877 1.07-5.486-.28l-2.195-1.83c-1.024-.8-1.902-1.92-2.634-3.33-.731-1.42-.951-2.65-.658-3.7l6.145-17.59c1.756-3.93 2.926-6.8 3.512-8.6.731-1.81 1.024-2.93.877-3.36 0-.44-.365-.56-1.097-.37-.878.21-2.121 1.11-3.731 2.69-1.609 1.43-2.707 2.6-3.292 3.53-.585.04-1.39.68-2.414 1.92-.878 1.24-1.756 2.33-2.633 3.27-.878.94-2.415 2.73-4.609 5.38-2.195 2.5-4.536 5.16-7.023 7.97-1.902 1.9-4.097 4.4-6.584 7.5-2.487 3.11-4.682 5.9-6.584 8.38s-3.072 3.74-3.511 3.77c-2.634.04-5.048-.68-7.243-2.14-2.048-1.47-3.438-3.35-4.169-5.64-.878-1.56-.951-4.48-.22-8.79.732-4.45 2.122-11.51 4.17-21.19.585-2.24 1.097-4.18 1.536-5.83.585-1.65 1.171-3.31 1.756-4.96s1.243-3.53 1.975-5.64c.878-2.11 1.975-4.68 3.292-7.71.732-2.1 1.024-4.03.878-5.78-.146-1.9-.293-3.43-.439-4.59 0-2.2.658-4.01 1.975-5.42 1.463-1.42 3.073-2.41 4.828-2.97 1.756-.71 3.146-.96 4.17-.74 4.097.16 6.877 1.43 8.34 3.82s2.268 4.76 2.414 7.09c.146 2.19-.146 4.19-.878 6s-1.317 3.32-1.756 4.53l-2.414 6.1c-1.463 3.48-2.56 6.05-3.292 7.71-.585 1.51-.951 2.56-1.097 3.16v1.32c.146.43.805.17 1.975-.8 1.171-.96 2.56-2.23 4.17-3.81 1.756-1.73 3.365-3.24 4.828-4.52 2.634-2.38 5.414-4.77 8.34-7.18 3.072-2.56 6.072-4.82 8.998-6.79 2.926-1.96 5.34-3.3 7.242-4.02 2.487.26 4.755 1.35 6.803 3.26 2.195 1.9 3.585 3.56 4.17 4.99.732 2.15.805 4.12.22 5.92-.439 1.79-.805 3.43-1.098 4.92-.146.6-.438 1.72-.877 3.36s-.878 3.22-1.317 4.71c-.439 1.35-.659 2.03-.659 2.03s.439-.47 1.317-1.41 2.049-2.05 3.512-3.33c1.463-1.42 2.926-2.7 4.389-3.83 7.315-6.08 13.095-10 17.338-11.77 4.389-1.92 8.12-.93 11.192 2.96 1.756 1.49 2.853 3.61 3.292 6.37.585 2.74.878 6.46.878 11.16.146 1.89.293 4.01.439 6.35.293 2.32.585 4.36.878 6.1.439 1.73.805 2.8 1.097 3.22.439.55 1.244 1.09 2.414 1.59 1.171.36 2.268.65 3.292.87 2.049.88 3.146 2.71 3.292 5.49.293 2.62-.731 4.74-3.072 6.37-2.195 1.48-4.536 2.45-7.023 2.92-2.341.45-4.755.69-7.242.72zm20.703 44.53c-2.048.73-4.17.37-6.365-1.09-2.048-1.47-3.657-3.56-4.828-6.26-1.024-2.72-1.024-5.58 0-8.58.293-.9.732-2.4 1.317-4.49.585-1.95.951-3.66 1.097-5.14.147-1.04.586-2.83 1.317-5.37.732-2.4 1.536-4.8 2.414-7.21 1.024-2.42 1.829-4.16 2.414-5.23.878-1.53 1.463-3.26 1.756-5.18.439-1.94.658-3.42.658-4.45.293-1.05.659-2.25 1.098-3.6.585-1.36 1.17-2.43 1.755-3.2.293-1.19.732-2.47 1.317-3.83.585-1.51 1.244-2.8 1.975-3.88.293-1.05.512-2.31.659-3.79.292-1.48.731-2.32 1.317-2.51.146-.59.219-1.19.219-1.77.146-.6.439-1.43.878-2.48.293-1.64.951-4.03 1.975-7.18s2.268-6.61 3.731-10.38c1.609-4.37 2.707-8.11 3.292-11.23.585-3.27-.22-5.27-2.414-6-1.171-.5-1.902-1.77-2.195-3.8-.292-2.18-.146-4.39.439-6.63s1.463-3.62 2.634-4.15c1.316-.68 2.926-1.15 4.828-1.43s3.584-.4 5.048-.36c1.609-.11 2.341-.01 2.194.29 0 .73.366 1.15 1.098 1.24.292-.46.877.16 1.755 1.86 1.024 1.54 1.975 3.31 2.853 5.3s1.317 3.35 1.317 4.09c-.293.61-.439.98-.439 1.13 0 0 .293-.02.878-.06 0 0 .805-.43 2.414-1.27 1.609-.99 3.292-2.06 5.048-3.21 1.902-1.31 3.145-2.28 3.731-2.91 0 0 .365-.17 1.097-.51.878-.5 1.609-1.07 2.195-1.7 2.926-1.37 6.071-1.81 9.437-1.32 3.511.49 6.291 1.62 8.339 3.38 2.926 3.46 5.121 7.86 6.584 13.18 1.61 5.32 1.39 10.61-.658 15.89-.293.75-.951 2.04-1.975 3.88-.878 1.67-1.756 3.27-2.634 4.8-.878 1.38-1.317 2.07-1.317 2.07-3.365 5.52-7.096 10.18-11.192 13.98-3.951 3.8-8.267 7.18-12.949 10.15-1.463 1.13-3.511 2.23-6.145 3.29-2.487 1.05-4.828 1.88-7.023 2.47-2.048.58-3.292.74-3.731.48-1.609-1.06-3.072-3.45-4.389-7.17-.731 1.96-1.463 3.91-2.195 5.87-.585 1.8-.951 3-1.097 3.6-.146 1.04-.292 1.93-.439 2.67-.146.6-.512 1.14-1.097 1.62 0 0-.073.29-.22.89-.146.6-.658 1.51-1.536 2.75-1.463 4.35-2.633 7.74-3.511 10.14-.878 2.56-1.61 4.59-2.195 6.1-.439 1.64-.878 3.36-1.317 5.15-.292 3.98-1.243 8.23-2.853 12.74-1.463 4.5-3.584 7.29-6.364 8.36zm32.7-73.78c.585-.34 1.609-.92 3.073-1.76 1.609-.84 3.365-1.85 5.267-3.01 1.902-1.3 3.657-2.52 5.267-3.66 1.755-1.3 2.999-2.41 3.731-3.34 1.17-1.41 1.829-2.48 1.975-3.22.146-.89.512-2.31 1.097-4.26.439-1.2.951-2.56 1.536-4.07.586-1.5 1.098-2.93 1.537-4.28.585-1.22.804-2.41.658-3.57 0-1.32-.439-2.39-1.317-3.21-.585-.1-1.975.21-4.17.95-2.048.73-4.462 2.08-7.242 4.03-2.633 1.94-5.267 4.69-7.901 8.25-3.072 4.18-5.12 7.91-6.145 11.21-1.024 3.15-1.243 5.66-.658 7.53.585 1.72 1.683 2.52 3.292 2.41zm53.753 33.64c-1.902-.6-3.438-1.67-4.608-3.2-1.171-1.38-1.829-3.54-1.976-6.46-.146-1.9-.073-4.69.22-8.38.292-3.83.805-7.68 1.536-11.54 0-.3 0-.59 0-.88.146-.45.22-.75.22-.9.146-.6.292-1.49.438-2.67.147-1.33.293-2.37.439-3.11.293-.9.439-.98.439-.25l1.317-6.03c.585-2.68 1.244-5.44 1.975-8.28.732-2.84 1.39-5.3 1.975-7.4.732-2.25 1.171-3.53 1.317-3.83 0 0 .22-.82.659-2.47l1.755-5.4c2.341-7.5 4.536-13.74 6.584-18.72 2.195-4.99 4.097-8.65 5.706-10.96.147-.45.366-.98.659-1.59.292-.75.512-1.35.658-1.8 0-1.61.073-2.79.22-3.54.292-.75.658-1.44 1.097-2.05.293-.61.731-1.37 1.317-2.3.585-1.06 1.243-2.36 1.975-3.87l.878-2.49c.878-1.96 1.975-4.24 3.292-6.83 1.316-2.73 2.267-4.77 2.853-6.13.439-1.36 1.317-2.957 2.633-4.809 1.317-1.999 2.78-3.348 4.39-4.047l-.22-.205c.732-1.371 2.122-2.495 4.17-3.371 2.048-1.023 3.731-1.581 5.048-1.673 2.048-.143 3.584.336 4.608 1.438 1.171 1.091 1.756 2.663 1.756 4.717 0 2.2-.073 3.818-.219 4.855 0 .88-.512 1.945-1.537 3.185l.22-.01c.292-.32.219.13-.22 1.33-.439 1.21-.804 2.04-1.097 2.5-.293.75-.658 1.59-1.097 2.5-.293.9-.659 1.58-1.098 2.05-.439.62-1.609 2.76-3.511 6.41-1.902 3.5-4.024 7.69-6.365 12.54-2.34 4.71-4.608 9.35-6.803 13.9-2.048 4.4-3.511 7.8-4.389 10.21l-1.097 3.37c-.147.6-.22 1.04-.22 1.34-.439 1.06-.878 2.11-1.317 3.17s-.878 1.97-1.317 2.73l-3.511 13.89-.878 4.68-1.975 5.2-1.317 4.27c-.292.9-.512 1.87-.658 2.91-.146 1.03-.439 1.79-.878 2.26 0 .14-.073.37-.219.67v.44c-.586 2.39-1.61 5.76-3.073 10.12-1.317 4.34-2.121 9.09-2.414 14.25 0 .14-.073.29-.22.45v.44c-.438 3.11-1.389 5.53-2.853 7.24-1.316 1.85-3.072 2.56-5.267 2.13zm34.398 36.75c-5.267 1.4-10.315 1.9-15.143 1.5-4.828-.25-8.852-1.21-12.071-2.89-3.365-1.67-5.413-3.66-6.145-5.95-.878-3.32-.439-5.84 1.317-7.58 1.756-1.73 3.877-2.83 6.365-3.3 2.34-.46 3.877-.27 4.608.56 1.171.65 3 1.62 5.487 2.91 2.633 1.29 5.852 1.43 9.656.43 3.365-.97 6.365-2.79 8.998-5.47 2.634-2.68 4.975-5.48 7.023-8.41 1.171-1.84 3.146-5.14 5.926-9.88s5.633-9.92 8.559-15.56c3.072-5.78 5.633-11.1 7.681-15.93.439-1.21.951-2.64 1.536-4.29.586-1.65 1.317-3.03 2.195-4.11.878-1.82 1.609-3.49 2.195-5 .731-1.66 1.17-2.79 1.316-3.39.147-.74.805-2.25 1.976-4.54 1.17-2.28 2.267-4.56 3.292-6.83.731-2.25 1.828-5.55 3.291-9.91 1.464-4.35 2.927-7.9 4.39-10.64 1.755-3.5 3.145-6.31 4.17-8.44 1.17-2.28 2.414-3.68 3.73-4.22 1.317-1.12 2.561-1.72 3.731-1.8 1.171-.08 2.561.26 4.17 1.03 1.756 1.64 3.146 3.3 4.17 4.99 1.17 1.53 1.609 3.55 1.317 6.07-.147 2.35-1.317 5.66-3.512 9.92-1.17 3.6-2.487 6.92-3.95 9.96-1.317 2.88-2.341 4.78-3.072 5.71-.732 1.82-1.61 3.86-2.634 6.13-.878 2.11-1.683 4.08-2.414 5.89-2.634 6.05-4.902 10.97-6.804 14.77s-3.584 7.29-5.047 10.48c-1.463 3.18-3 6.88-4.609 11.1-3.365 5.66-6.657 11.02-9.876 16.09-3.072 5.2-6.364 10.05-9.876 14.55-1.463 1.42-3.584 3.26-6.364 5.5-2.634 2.39-5.414 4.56-8.34 6.53-2.78 2.1-5.194 3.44-7.242 4.02zm27.433-51.63c-2.195-.14-4.609-1.44-7.242-3.9-2.488-2.46-4.609-5.1-6.365-7.91-1.609-2.82-2.268-4.83-1.975-6.03 0-.73 0-1.32 0-1.76s0-.66 0-.66c-.878.07-1.609-1.13-2.195-3.58-.439-2.61-.804-5.89-1.097-9.82-.146-3.95-.22-8.06-.22-12.31.147-4.26.366-8.17.659-11.71.585-2.53.878-5.26.878-8.2 0-3.08.073-5.5.219-7.27-.146-2.34.293-4.28 1.317-5.81 1.17-1.55 2.048-2.57 2.634-3.05 5.413-2.72 9.363-1.75 11.851 2.91 2.487 4.67 3.365 12.31 2.633 22.92-.292 5.89-.439 11.54-.439 16.97 0 5.28.512 9.79 1.537 13.53 1.024 3.74 2.779 6.33 5.267 7.77 1.024.52 1.39 1.74 1.097 3.67-.293 1.92-.951 4.02-1.975 6.3-1.024 2.12-2.195 4.04-3.512 5.74-1.17 1.55-2.194 2.28-3.072 2.2zm132.119-3.96c-2.048-.45-4.097-1.33-6.145-2.65-2.048-1.33-4.17-2.87-6.364-4.62-1.756-2.22-3-4.26-3.731-6.12-.732-2-1.171-4.32-1.317-6.95 0-2.78 0-6.3 0-10.56 0-1.76.292-4.27.878-7.54.731-3.27 1.463-6.7 2.194-10.27.878-3.58 1.683-6.72 2.414-9.41.732-2.84 1.171-4.7 1.317-5.59.439-1.94-.292-2.99-2.194-3.15s-4.024-.08-6.365.23c-2.195.15-3.658.03-4.389-.36-.585-.1-.878-.81-.878-2.13 0-1.47 0-2.2 0-2.2 0-.59-.293-.94-.878-1.04-.585-.26-1.097-.73-1.536-1.44-.293-.56.073-1.69 1.097-3.37 1.024-1.69 2.341-2.73 3.951-3.14 1.316-.38 3.292-.74 5.925-1.07 2.634-.48 5.267-1.18 7.901-2.1 2.78-1.07 4.901-2.54 6.364-4.4 1.317-3.32 2.78-6.87 4.39-10.65 1.609-3.92 3.145-7.33 4.608-10.22 1.463-3.04 2.488-4.94 3.073-5.715 2.487-1.493 5.047-2.186 7.681-2.077 2.634-.037 4.682 1.066 6.145 3.312.732.97 1.317 1.67 1.756 2.08.585.39.804 1.04.658 1.93 0 .88-.585 2.53-1.756 4.96-1.024 2.27-2.779 5.84-5.267 10.71-.731 1.52-1.39 2.88-1.975 4.1-.585 1.07-.878 1.6-.878 1.6.585.11 1.463.12 2.634.04 1.17-.09 2.633-.26 4.389-.53 1.609-.41 3.365-.75 5.267-1.03 1.902-.43 3.585-.54 5.048-.35 3.365-.24 5.852.54 7.462 2.34 1.609 1.79 2.487 4.15 2.633 7.07.293 1.59-.292 3.03-1.755 4.3-1.464 1.28-4.17 2.06-8.121 2.33-1.316.09-3.218.3-5.706.62-2.487.32-5.047.65-7.681.98s-4.901.71-6.803 1.13c-1.756.27-2.634.56-2.634.85-.439.32-1.17 1.55-2.195 3.67-.877 1.97-1.828 4.38-2.853 7.24-.877 2.85-1.682 5.55-2.414 8.09-1.024 5.06-1.755 9.95-2.194 14.67-.439 4.73-.512 8.84-.22 12.34.439 3.34 1.317 5.7 2.634 7.08 1.317 1.22 3.292 1.08 5.925-.42 2.78-1.66 5.341-3.53 7.682-5.6 2.633-2.38 4.901-3.2 6.803-2.45 1.902.6 3.072 2.13 3.511 4.59.586 2.31-.073 4.92-1.975 7.84-1.756 2.91-4.243 5.43-7.462 7.56-3.218 2.13-6.51 3.68-9.875 4.65-3.366 1.12-6.292 1.4-8.779.84zm123.131-11.47c-2.78.92-5.706 1.64-8.778 2.15-2.926.65-5.487-.06-7.681-2.1-1.317-1.96-2.488-3.72-3.512-5.26s-1.682-4.35-1.975-8.44c-.146-2.78 0-5.79.439-9.05.585-3.41.805-5.85.658-7.31 1.171-5.5 1.463-9.41.878-11.72-.439-2.31-1.024-3.45-1.756-3.39-1.609-.18-4.169 1.17-7.681 4.05-3.365 2.88-7.388 6.9-12.07 12.07-4.536 5.01-9.437 10.7-14.704 17.09-2.78 4-4.829 7.01-6.145 9-1.171 1.85-2.049 2.79-2.634 2.83-2.634.18-5.048-.09-7.242-.81-2.195-.73-3.951-1.85-5.268-3.38-1.316-1.52-2.121-3.15-2.414-4.89 0-.58.366-2.15 1.098-4.69.731-2.7 1.609-5.76 2.633-9.21 1.024-3.44 1.975-6.66 2.853-9.66 1.024-3 1.756-5.11 2.195-6.31 1.317-3.91 2.853-8.63 4.609-14.18 1.902-5.71 3.584-10.74 5.047-15.1.586-1.94 1.61-4.73 3.073-8.35 1.463-3.77 2.926-7.54 4.389-11.31s2.487-6.55 3.073-8.35c.439-1.21 1.243-3.32 2.414-6.33 1.17-3.164 2.414-6.624 3.731-10.383 1.463-3.769 2.78-7.234 3.95-10.396 1.317-3.319 2.195-5.727 2.634-7.224-.147-1.31-.074-2.488.219-3.536.439-1.204.878-2.114 1.317-2.732.585-.041 1.243-.087 1.975-.138.732-.198 1.097-.296 1.097-.296 0-.294.951-.067 2.853.68 2.049.737 4.024 1.699 5.926 2.886 2.048 1.03 3.072 1.985 3.072 2.865.732 1.855.805 4.344.22 7.464-.585 2.975-2.122 7.556-4.609 13.743-1.609 2.459-3.219 6.092-4.828 10.897-1.463 4.8-2.926 8.86-4.389 12.19-.586 1.06-1.463 2.96-2.634 5.68-1.024 2.57-2.268 5.66-3.731 9.28-1.317 3.47-2.633 7.15-3.95 11.06-1.317 3.9-2.487 7.73-3.512 11.46-1.463 3.63-1.975 6.01-1.536 7.15s2.195-.3 5.267-4.33c4.097-4.68 7.901-8.91 11.412-12.67 3.658-3.78 7.023-6.8 10.096-9.07 3.219-2.43 6.072-3.58 8.559-3.46 1.317.2 2.999 1.04 5.048 2.51 2.194 1.31 4.242 2.93 6.145 4.85 2.048 1.76 3.365 3.5 3.95 5.22.585 2.01.951 3.97 1.097 5.87.293 1.88.366 4.59.22 8.12-.147 3.38-.512 8.47-1.098 15.26-.878 5.04-1.463 8.68-1.755 10.9-.293 2.07-.22 3.53.219 4.38.585.84 1.463 1.74 2.634 2.68 2.194 1.61 3.072 3.67 2.633 6.2-.439 2.37-1.682 4.22-3.731 5.54zm64.938-7.4c-4.39 2.8-9.071 4.59-14.046 5.38-4.828.63-9.364.29-13.607-1.03-4.243-1.46-7.681-3.79-10.315-6.98-1.463-1.8-2.853-4.71-4.169-8.73-1.317-4.16-1.537-9.86-.659-17.11.878-6.81 2.926-13.77 6.145-20.89 3.365-7.13 7.462-13.5 12.29-19.12s10.096-9.58 15.802-11.89c2.048-.87 4.096-1.53 6.145-1.97 2.194-.59 5.047-.86 8.559-.81 3.365.2 6.364.87 8.998 2.01 2.633.99 4.535 2.17 5.706 3.56 2.341 2.18 3.877 4.35 4.609 6.5.731 2.14 1.024 4.25.877 6.31-.731 4.75-2.853 9.96-6.364 15.63-3.365 5.66-8.12 10.03-14.265 13.1-2.488 1.2-5.414 2.06-8.779 2.59s-7.974.41-13.826-.35c-3.511-.49-5.852.04-7.023 1.59-1.024 1.54-1.463 4.43-1.317 8.67.293 2.62.878 4.93 1.756 6.92 1.024 1.83 2.853 3.02 5.487 3.57 3.365.36 5.779.26 7.242-.28 1.463-.69 3.292-1.63 5.487-2.81 1.17-.81 2.267-1.69 3.292-2.65 1.17-.96 2.267-1.91 3.291-2.87 1.171-.96 2.122-1.68 2.854-2.18.731-.63 1.463-1.05 2.194-1.25.732-.2 1.463-.32 2.195-.37 1.609.03 3.145.8 4.609 2.31 1.463 1.52 2.414 2.99 2.853 4.43 0 1.17-.732 2.91-2.195 5.21-1.463 2.15-3.438 4.49-5.926 7.01-2.341 2.37-4.974 4.53-7.9 6.5zm-2.853-48.86c1.024-.52 2.487-1.65 4.389-3.39 2.048-1.76 3.877-3.57 5.487-5.45 1.609-2.01 2.414-3.54 2.414-4.56 0-1.62-1.098-2.93-3.292-3.95-2.049-1.03-4.755-1.06-8.12-.1-1.171.38-2.561 1.28-4.17 2.72-1.61 1.43-3.219 3.08-4.829 4.95-1.609 1.73-2.999 3.44-4.169 5.13-1.171 1.55-1.976 2.78-2.414 3.69.585.7 1.755 1.2 3.511 1.52s3.658.4 5.706.26c2.195-.15 4.024-.43 5.487-.82zm115.259 44.08c-2.93-.09-5.27-.66-7.03-1.71-1.61-1.21-2.85-2.74-3.73-4.58-1.17-1.24-1.9-2.22-2.19-2.93-.15-.72-.15-1.38 0-1.98.73-.05 1.39-.1 1.97-.14.59-.18.95-.5 1.1-.95 0-.44.22-.75.66-.93.58-.19 1.17-.23 1.76-.12 2.78-.05 6.14-1.24 10.09-3.57 4.1-2.34 8.56-5.51 13.39-9.51 4.83-4.16 9.65-8.6 14.48-13.34 3.81-5.25 6.44-9.1 7.9-11.55 1.61-2.46 2.42-4.28 2.42-5.45.14-1.33-.15-2.63-.88-3.9-.59-1.13-1.98-1.62-4.17-1.47-2.19.16-5.56 1.86-10.1 5.11-6.29 4.4-11.33 8.42-15.14 12.06-3.8 3.64-7.31 7.7-10.53 12.18-1.17 1.54-2.49 3.25-3.95 5.11-1.32 1.71-2.49 3.18-3.51 4.43-.88 1.23-1.32 1.85-1.32 1.85 0 .59-.88 1.38-2.64 2.38-1.6 1-2.99 1.53-4.16 1.62-.59-.26-1.39-.71-2.42-1.38-.88-.81-1.46-1.87-1.75-3.17-1.32-.94-2.42-1.74-3.3-2.41-.87-.82-1.31-2.18-1.31-4.09 0-1.17.14-2.65.44-4.43.43-1.79 1.02-4.11 1.75-6.94.88-3.88 1.83-7.91 2.85-12.08 1.03-4.33 1.98-7.99 2.86-10.98 1.02-3.15 1.75-4.89 2.19-5.22 0 0 .29-.68.88-2.04.58-1.36.88-2.92.88-4.68.29-1.78.73-3.35 1.31-4.71.74-1.37 1.1-2.35 1.1-2.94.59-.48 1.46-2.3 2.64-5.46 1.17-3.164 2.63-7.3 4.38-12.409 0-.44.52-1.87 1.54-4.288 1.02-2.565 2.27-5.512 3.73-8.841 1.46-3.475 2.93-7.024 4.39-10.647 1.61-3.779 2.93-7.098 3.95-9.956 1.76-2.616 3.22-5.212 4.39-7.787 1.32-2.732 2.49-4.354 3.51-4.865.73-.198 1.98.008 3.73.619 1.9.6 3.81 1.42 5.71 2.461 1.9 1.04 3.22 2.121 3.95 3.243.44.703.66 1.421.66 2.154.14.724-.15 1.991-.88 3.802-.73 1.664-1.98 4.465-3.73 8.401-1.76 3.789-4.24 9.17-7.46 16.141-4.1 9.087-7.32 16.645-9.66 22.672-2.19 6.02-4.02 11.21-5.49 15.57-1.31 4.34-2.7 8.47-4.17 12.39l-1.09 4.92 5.7-6.78c1.47-1.57 3-3.07 4.61-4.51 1.61-1.43 3.37-2.87 5.27-4.32 1.17-.97 2.71-1.95 4.61-2.97 2.05-1.17 4.02-2.18 5.92-3.05 1.91-.87 3.3-1.4 4.17-1.61.44-.18 1.91-.58 4.39-1.19 2.64-.77 5.2-1.24 7.68-1.42 3.22-.22 6 .76 8.34 2.94 2.49 2.03 4.69 4.59 6.59 7.68 1.61 2.97 2.19 6.89 1.75 11.76-.44 4.72-1.68 8.84-3.73 12.36-.73.64-1.46 1.49-2.19 2.57-.73.93-1.1 1.69-1.1 2.28-.15 1.04-1.46 3.25-3.95 6.65-2.49 3.26-4.97 6.37-7.46 9.33-2.64 2.97-5.85 5.98-9.66 9.03-3.8 2.91-7.61 5.59-11.41 8.06-3.66 2.31-6.8 4-9.44 5.06-1.17.23-2.85.64-5.05 1.23-2.19.45-3.87.86-5.04 1.24zm91.37-1.11c-8.05.56-14.27-1.35-18.66-5.74-4.24-4.4-6.36-11.43-6.36-21.11 0-5.28.95-11.14 2.85-17.58 2.05-6.45 4.68-12.8 7.9-19.04 3.37-6.24 7.03-11.71 10.98-16.38 3.95-4.83 7.9-8.26 11.85-10.292 1.46-.836 3-1.457 4.61-1.862 1.75-.563 3.43-.901 5.04-1.013 1.76-.123 3.66-.109 5.71.041 2.19-.007 4.24.29 6.14.89 3.37.791 6.3 2.566 8.78 5.326 2.64 2.75 3.95 6.91 3.95 12.48 0 1.47-.14 3.09-.44 4.87-.29 1.64-.8 3.29-1.53 4.95-1.9 4.97-4.83 9.8-8.78 14.48-3.8 4.66-7.83 8.02-12.07 10.08-1.17.67-2.34 1.19-3.51 1.57-1.03.21-2.12.36-3.29.45-3.08.21-5.86-.04-8.34-.74-2.34-.72-4.54-1.74-6.59-3.06l-1.75-1.42-1.1 2.28c-1.03 2.86-1.76 5.25-2.2 7.19-.29 1.93-.43 3.33-.43 4.21 0 1.76.07 3.59.21 5.49.15 1.75.59 3.18 1.32 4.31.59.69 1.32 1.22 2.2 1.6 1.02.37 2.26.5 3.73.4.88-.06 1.68-.12 2.41-.17.88-.21 1.61-.4 2.2-.59 2.63-.77 4.75-1.87 6.36-3.31 1.76-1.59 3.59-2.96 5.49-4.12l.87-.5-.21-.65c2.48-1.49 4.17-2.41 5.04-2.77.88-.5 1.54-.91 1.98-1.24.58-.62 1.24-.96 1.97-1.02 2.05-.43 4.03.02 5.93 1.35 2.05 1.18 3.07 2.79 3.07 4.85 0 .88-.66 2.32-1.97 4.31-1.17 1.99-2.71 4.01-4.61 6.05-1.76 1.88-3.59 3.4-5.49 4.56-.44.18-.88.43-1.32.75-.43.18-.87.43-1.31.75l.22-.01c-1.32 1.85-2.64 2.82-3.95 2.91l-1.76.13c-.58 1.07-2.49 2.3-5.71 3.7-3.21 1.54-6.36 2.42-9.43 2.64zm11.41-53.82c1.32-.09 2.49-.4 3.51-.91 1.17-.52 2.27-1.11 3.29-1.77 3.51-2.74 5.78-6.12 6.81-10.15 1.02-4.03.66-7.02-1.1-8.95-.29-.42-.66-.68-1.1-.8-.44-.26-.95-.37-1.53-.33-1.61.11-3.44.75-5.49 1.92-1.9 1.16-3.8 2.76-5.71 4.8-1.9 2.04-3.65 4.44-5.26 7.19l-2.86 4.82c.3-.17.52-.26.66-.27.29-.16.51-.25.66-.26 1.32-.1 2.19.28 2.63 1.13s.95 1.7 1.54 2.53c.73.83 2.05 1.18 3.95 1.05zm60.35 46.16c-4.68.33-9-.4-12.95-2.18-3.8-1.93-6.88-4.36-9.22-7.27-2.34-3.06-3.51-6.06-3.51-9 0-1.32.22-2.28.66-2.9.59-.63 1.39-.98 2.41-1.05.74.09 1.61.4 2.64.91 1.02.52 2.05 1.11 3.07 1.77 2.34 1.45 4.9 2.3 7.68 2.54 2.78.25 5.27-.07 7.46-.96 2.2-1.03 3.44-2.44 3.73-4.22 0-.59-.29-1.81-.87-3.68-.59-1.86-1.32-3.65-2.2-5.34-3.66-5.18-5.92-10.15-6.8-14.93-.88-4.92-1.46-9.87-1.76-14.84 0-2.05.95-4.39 2.86-7.02 1.9-2.77 4.24-5.5 7.02-8.19 3.07-2.85 6.44-5.58 10.09-8.183 3.81-2.613 7.54-4.853 11.2-6.723 3.65-1.869 6.73-3.037 9.21-3.504 2.64-.184 5.42-.232 8.34-.143 3.08-.068 5.12.302 6.15 1.11 2.05 1.47 3.95 3.977 5.7 7.521 1.76 3.544 2.64 6.562 2.64 9.052 0 1.18-.66 2.69-1.98 4.54-1.17 1.7-2.26 3.61-3.29 5.73-.58 1.07-1.1 2.21-1.53 3.41-.44 1.2-.96 2.41-1.54 3.63-.88 2.11-2.49 3.1-4.83 2.97-2.19-.28-4.24-1.31-6.14-3.09-1.91-1.92-2.86-4.2-2.86-6.84 0-2.2.66-4.15 1.98-5.85 1.31-1.71 1.97-2.86 1.97-3.44 0-.3-.14-.51-.44-.63-.29-.13-.8-.17-1.53-.11-1.03.07-2.71.62-5.05 1.67-2.19.89-4.54 2.15-7.02 3.79-2.49 1.64-4.76 3.56-6.81 5.76-1.46 1.71-2.7 3.56-3.73 5.54-.87 1.82-1.31 3.76-1.31 5.81s.36 4.45 1.09 7.18c.88 2.58 1.83 4.71 2.86 6.4.29.28.73 1.05 1.31 2.33.73 1.12 1.54 2.53 2.42 4.23 5.41 10.77 6.29 18.99 2.63 24.68-3.51 5.67-10.09 8.84-19.75 9.52zm76.51 6.53c-7.17.35-11.78-1.38-13.83-5.19-1.9-3.69-2.41-8.49-1.54-14.42.88-2.85 1.39-5.37 1.54-7.58.29-2.37.95-3.88 1.98-4.54 0 0 .07-.23.21-.68.3-.46.22-.89-.21-1.3 0-1.91.65-4.6 1.97-8.06.29-.9.66-1.95 1.1-3.16.58-1.36.88-2.04.88-2.04-.74-1.12-.74-2.07 0-2.86.73-.78 1.46-1.49 2.19-2.13.88-.8.95-1.61.22-2.44-.29-.56.07-1.91 1.1-4.03 1.02-2.28 2.19-4.63 3.51-7.07s2.19-4.33 2.63-5.68c0-.3.37-1.35 1.1-3.16s1.61-3.93 2.63-6.35c1.03-2.41 1.98-4.61 2.86-6.57 1.02-1.983 1.68-3.276 1.97-3.883 1.46-.835.88-1.308-1.75-1.417-2.64-.109-5.42.012-8.34.363-4.54.171-8.2.206-10.98.107-2.63-.109-4.83-.615-6.58-1.519-1.76-1.931-1.98-4.335-.66-7.214 1.32-3.026 3.44-4.714 6.36-5.065 1.91-.28 3.37-.455 4.39-.527 1.17-.082 2.64-.258 4.39-.527 1.91-.426 4.83-.998 8.78-1.714l11.19-1.663.66-3.786c1.17-1.988 1.98-3.291 2.42-3.908.44-.618.73-1.225.87-1.822.15-.743.37-2.005.66-3.786 0 0 .66-1.219 1.98-3.658 1.32-2.585 2.12-5.208 2.41-7.869 1.76-3.056 3.29-5.803 4.61-8.242 1.32-2.585 2.12-4.182 2.42-4.789 2.48-3.84 4.9-5.989 7.24-6.446 2.49-.468 4.83-.045 7.02 1.269 1.32.641 2.56 1.507 3.73 2.599 1.17.945 1.9 2.287 2.2 4.026.29 1.593-.37 3.766-1.98 6.518-.29.608-.73 1.738-1.32 3.392-.58 1.508-1.02 2.785-1.31 3.833-.88 1.088-1.98 2.851-3.29 5.29-1.18 2.282-1.98 4.611-2.42 6.989-1.17 2.575-1.9 4.166-2.19 4.773-.3.607-.73.931-1.32.972.29 1.446 1.17 2.118 2.63 2.016 1.47-.249 3.88-.565 7.25-.946 2.78-.488 4.68-.915 5.7-1.279 1.17-.522 2.49-.468 3.95.163.73.976 1.1 2.49 1.1 4.544.15 1.896-.07 3.818-.66 5.766-.58 1.801-1.39 2.957-2.41 3.468-.73.052-2.27.599-4.61 1.643-2.2.886-4.98 1.521-8.34 1.903l-11.63 1.913-3.73 7.743c-1.03 1.98-1.91 3.8-2.64 5.46-.73 1.52-1.24 2.44-1.53 2.75 0 .88-.52 2.24-1.54 4.07-.88 1.82-1.83 3.79-2.85 5.92-.88 2.55-1.9 4.9-3.08 7.03-1.02 2.13-1.53 3.19-1.53 3.19-.59.04-.88.5-.88 1.38.73 1.71.51 3.04-.66 4.01-.73.49-1.39 1.19-1.97 2.11-.44.77-.66 1.15-.66 1.15.58.55.66 1.27.22 2.19-.29.9-.73 1.88-1.32 2.95 0 1.17-.36 2.88-1.1 5.13-.58 2.24-1.24 4.34-1.97 6.3.15 2.63.29 4.31.44 5.03.14.72.51.99 1.09.8.74.1 1.76.03 3.08-.21 1.31-.24 2.27-.38 2.85-.42 2.2-1.18 1.17 4.03-3.07 15.62-2.34 3.83-4.68 7-7.02 9.51-2.35 2.65-3.88 4.01-4.61 4.06zm127.12-57.51c-4.1 1.02-7.32-.44-9.66-4.39-2.34-4.09-2.19-11.5.44-22.25.88-1.82 1.61-3.56 2.2-5.21.58-1.801.87-3.214.87-4.241.59-1.948 1.32-4.199 2.2-6.754 1.02-2.711 2.05-5.203 3.07-7.474 1.03-2.419 1.76-4.01 2.2-4.774.58-.041 1.17-.595 1.75-1.663.73-1.078 1.1-2.13 1.1-3.156 0-1.174.22-2.509.66-4.006.58-1.508 1.17-2.576 1.75-3.203 0-.734.3-1.561.88-2.482.59-.921.88-1.674.88-2.261s.15-1.11.44-1.571c.44-.47.66-.999.66-1.586 1.31-2.438 3-6.003 5.04-10.693 2.2-4.846 4.32-9.908 6.37-15.185 2.19-5.287 4.02-9.961 5.48-14.023 1.47-4.063 2.2-6.534 2.2-7.414.29-1.194.73-2.324 1.32-3.392.58-1.068 1.46-1.496 2.63-1.284.59-.481 1.46-.762 2.63-.844 1.17-.229 2.05-.363 2.64-.404 0 0 .66.247 1.97.741 1.32.495 2.49 1.293 3.51 2.395 1.17.945 1.83 2.292 1.98 4.042s.22 3.504.22 5.264c-.15 2.797-1.17 6.022-3.07 9.675-1.91 3.653-4.03 7.688-6.37 12.105-1.46 2.889-2.92 5.632-4.39 8.227-1.31 2.586-1.97 4.172-1.97 4.758 0 .587-.3 1.488-.88 2.702-.59 1.214-1.24 2.727-1.98 4.538-.87 1.528-1.75 3.349-2.63 5.464-.73 2.105-1.39 4.057-1.97 5.858-.59 1.654-.88 2.702-.88 3.142-.15.596-.37 1.198-.66 1.806-.15.597-.51 1.209-1.1 1.836-.58.041-.95.507-1.1 1.397v1.1c0 .587-.36 2.006-1.09 4.257-.59 2.094-1.61 4.659-3.08 7.695-2.78 7.967-4.75 14.338-5.92 19.118-1.17 4.62-1.9 8.56-2.2 11.81-.29 3.54-1.09 6.02-2.41 7.43-1.32 1.26-2.56 2.23-3.73 2.9zm-11.63 34.91c-3.07 1.39-5.64 2.08-7.68 2.08-2.05.14-4.32-.65-6.81-2.38-2.92-2.73-3.95-5.6-3.07-8.59 1.02-3.15 3.66-6.27 7.9-9.35 2.93-2.11 5.05-3.22 6.37-3.31 1.46-.25 3.58.12 6.36 1.1 4.97 2.73 7.17 6.02 6.58 9.88-.58 3.7-3.8 7.23-9.65 10.57z"/></g></svg>