<svg fill="none" height="128" viewBox="0 0 128 128" width="128" xmlns="http://www.w3.org/2000/svg"><g fill="#fff"><path d="m95.7644 89.917h-63.53c-2.0555 0-4.0267.8165-5.4801 2.2699s-2.2699 3.4247-2.2699 5.4801.8165 4.027 2.2699 5.48 3.4246 2.27 5.4801 2.27h63.53c2.0554 0 4.0266-.817 5.4796-2.27 1.454-1.453 2.27-3.4246 2.27-5.48s-.816-4.0267-2.27-5.4801c-1.453-1.4534-3.4242-2.2699-5.4796-2.2699zm0 12h-63.53c-1.1272 0-2.2082-.448-3.0052-1.245-.7971-.7968-1.2448-1.8778-1.2448-3.005s.4477-2.2082 1.2448-3.0052c.797-.797 1.878-1.2448 3.0052-1.2448h63.53c1.1271 0 2.2081.4478 3.0052 1.2448.797.797 1.2444 1.878 1.2444 3.0052s-.4474 2.2082-1.2444 3.005c-.7971.797-1.8781 1.245-3.0052 1.245z"/><path d="m32.2344 84.8529h17.576c1.6649.0007 3.2858-.5348 4.6226-1.5273 1.3368-.9924 2.3185-2.3889 2.7997-3.9828s.4362-3.3004-.1281-4.8667c-.5643-1.5664-1.6181-2.9094-3.0052-3.8301-3.2144-2.1282-5.6578-5.2352-6.9681-8.8608-1.3102-3.6255-1.4177-7.5767-.3065-11.2681s3.3821-6.9267 6.476-9.2264c3.094-2.2998 6.8465-3.5416 10.7016-3.5416 3.855 0 7.6075 1.2418 10.7015 3.5416 3.094 2.2997 5.3648 5.535 6.476 9.2264 1.1113 3.6914 1.0038 7.6426-.3065 11.2681-1.3103 3.6256-3.7536 6.7326-6.968 8.8608-1.387.9206-2.4406 2.2633-3.005 3.8294-.5644 1.566-.6096 3.2722-.1288 4.8659.4808 1.5938 1.462 2.9903 2.7983 3.983 1.3364.9926 2.9568 1.5286 4.6215 1.5286h17.573c2.0554 0 4.0266-.8165 5.4796-2.2699 1.454-1.4534 2.27-3.4246 2.27-5.4801 0-2.0554-.816-4.0266-2.27-5.48-1.453-1.4534-3.4242-2.27-5.4796-2.27h-1.239c2.2769-5.0918 3.2439-10.6723 2.8131-16.2334-.4309-5.561-2.246-10.926-5.2801-15.6063-3.0341-4.6804-7.1907-8.5274-12.0914-11.1908-4.9008-2.6635-10.3899-4.0587-15.9676-4.0587-5.5778 0-11.0669 1.3952-15.9676 4.0587-4.9008 2.6634-9.0574 6.5104-12.0915 11.1908-3.034 4.6803-4.8491 10.0453-5.28 15.6063-.4309 5.5611.5362 11.1416 2.8131 16.2334h-1.239c-2.0555 0-4.0267.8166-5.4801 2.27s-2.2699 3.4246-2.2699 5.48c0 2.0555.8165 4.0267 2.2699 5.4801s3.4246 2.2699 5.4801 2.2699zm0-12h4.07c.3046-.0004.6038-.0802.868-.2316.2643-.1515.4845-.3692.6389-.6317.1544-.2626.2377-.5609.2415-.8654.0039-.3046-.0717-.6049-.2194-.8713-2.5341-4.5573-3.8339-9.6974-3.7708-14.9115.063-5.2141 1.4868-10.3213 4.1304-14.8159 2.6436-4.4947 6.4152-8.221 10.9415-10.81 4.5264-2.589 9.6504-3.9509 14.8649-3.9509 5.2144 0 10.3385 1.3619 14.8648 3.9509s8.298 6.3153 10.9415 10.81c2.6436 4.4946 4.0674 9.6018 4.1305 14.8159s-1.2368 10.3542-3.7708 14.9115c-.1477.2664-.2233.5667-.2195.8713.0039.3045.0871.6028.2415.8654.1544.2625.3746.4802.6389.6317.2643.1514.5635.2312.8681.2316h4.07c1.1271 0 2.2081.4478 3.0052 1.2448.797.7971 1.2444 1.8781 1.2444 3.0052 0 1.1272-.4474 2.2082-1.2444 3.0052-.7971.7971-1.8781 1.2448-3.0052 1.2448h-17.576c-.9126-.0003-1.8008-.2945-2.5333-.8388s-1.2703-1.31-1.5338-2.1837c-.2636-.8737-.2389-1.809.0703-2.6676s.8866-1.5949 1.6468-2.0998c3.8407-2.544 6.7598-6.2574 8.3248-10.5902 1.5651-4.3328 1.6929-9.0545.3645-13.4656-1.3284-4.4112-4.0424-8.2771-7.7398-11.025-3.6975-2.748-8.1817-4.2319-12.7885-4.2319s-9.0911 1.4839-12.7886 4.2319c-3.6974 2.7479-6.4114 6.6138-7.7398 11.025-1.3284 4.4111-1.2006 9.1328.3645 13.4656s4.4842 8.0462 8.3249 10.5902c.7601.5049 1.3375 1.2412 1.6467 2.0998.3093.8586.3339 1.7939.0704 2.6676-.2636.8737-.8014 1.6394-1.5338 2.1837-.7325.5443-1.6207.8385-2.5333.8388h-17.576c-1.1272 0-2.2082-.4477-3.0052-1.2448-.7971-.797-1.2448-1.878-1.2448-3.0052 0-1.1271.4477-2.2081 1.2448-3.0052.797-.797 1.878-1.2448 3.0052-1.2448z"/></g></svg>