<svg fill="none" height="128" viewBox="0 0 128 128" width="128" xmlns="http://www.w3.org/2000/svg"><path d="m64.0003 108.619c-2.0547-.003-4.0246-.82-5.4775-2.273s-2.2702-3.422-2.2725-5.477v-51.3812c-.0011-1.8287-.5093-3.6213-1.468-5.1785-.9587-1.5573-2.3304-2.8182-3.9628-3.6427-1.6323-.8244-3.4613-1.1801-5.2836-1.0275-1.8223.1527-3.5666.8076-5.0391 1.8921-1.4724 1.0845-2.6153 2.556-3.3017 4.251-.6863 1.6951-.8892 3.5472-.586 5.3506.3031 1.8035 1.1003 3.4875 2.3031 4.865s2.764 2.3945 4.5101 2.938c.9717.3021 1.8745.7925 2.6567 1.4435.7823.6509 1.4286 1.4495 1.9022 2.3503.4736.9007.7651 1.8859.8579 2.8993.0929 1.0134-.0148 2.0351-.3168 3.0069-.3021.9718-.7926 1.8746-1.4435 2.6568s-1.4496 1.4286-2.3503 1.9022c-.9007.4735-1.8859.7651-2.8993.8579s-2.0352-.0148-3.0069-.3169c-3.6635-1.1356-7.022-3.0864-9.8234-5.7061-2.8014-2.6196-4.9729-5.8399-6.3514-9.419-1.3784-3.5792-1.928-7.4241-1.6075-11.2461s1.5028-7.5217 3.4581-10.8213 4.6327-6.1132 7.8313-8.2297 6.8351-3.4808 10.6365-3.9904 7.6689-.1512 11.312 1.0481 6.9671 3.2084 9.7224 5.8765c2.7556-2.6643 6.0789-4.6699 9.7205-5.8664 3.6416-1.1964 7.5068-1.5526 11.3057-1.0418 3.7989.5109 7.4327 1.8754 10.6289 3.9913 3.1961 2.1159 5.8716 4.9282 7.8256 8.2258s3.136 6.995 3.457 10.8146-.228 7.6623-1.604 11.2397c-1.377 3.5774-3.545 6.7967-6.3437 9.4161-2.7984 2.6195-6.1536 4.5712-9.814 5.7087-1.9626.61-4.0872.4154-5.9063-.541-1.8191-.9565-3.1837-2.5964-3.7937-4.559s-.4154-4.0871.541-5.9062c.9565-1.8191 2.5964-3.1838 4.559-3.7938 1.7473-.5427 3.31-1.5594 4.5141-2.9371s2.0025-3.0623 2.3064-4.8666c.304-1.8044.1015-3.6576-.5848-5.3537-.6864-1.6962-1.8297-3.1687-3.3029-4.2539s-3.2185-1.7405-5.0419-1.8931c-1.8233-.1526-3.6533.2035-5.2863 1.0288-1.6331.8252-3.0053 2.0872-3.964 3.6456-.9587 1.5585-1.4664 3.3523-1.4666 5.182v51.3812c-.0024 2.055-.8197 4.024-2.2726 5.477s-3.4227 2.27-5.4774 2.273zm-17.639-72.5192c3.5499.0029 6.9536 1.4144 9.4638 3.9244 2.5103 2.5101 3.922 5.9137 3.9252 9.4636v51.3812c0 1.127.4477 2.208 1.2448 3.005.797.797 1.878 1.245 3.0052 1.245 1.1271 0 2.2081-.448 3.0052-1.245.797-.797 1.2448-1.878 1.2448-3.005v-51.3812c.0008-2.4761.6883-4.9035 1.986-7.0124 1.2977-2.1088 3.1548-3.8165 5.3649-4.9332 2.21-1.1166 4.6864-1.5986 7.1539-1.3922 2.4676.2064 4.8295 1.093 6.8234 2.5612 1.9938 1.4683 3.5415 3.4607 4.4709 5.7558s1.2041 4.803.7936 7.2449c-.4104 2.4419-1.49 4.7221-3.1187 6.5872s-3.7427 3.242-6.107 3.9777c-.9712.3014-1.8022.9409-2.3422 1.8025-.54.8617-.7532 1.8883-.601 2.8937.1521 1.0054.6597 1.923 1.4305 2.5862s1.7538 1.0282 2.7707 1.0286c.4279-.0009.8533-.0659 1.262-.193 3.2241-.9991 6.1734-2.7304 8.6175-5.0585 2.444-2.3281 4.3162-5.1899 5.4712-8.3617 1.154-3.1718 1.56-6.5676 1.184-9.9221-.375-3.3544-1.522-6.5766-3.349-9.4145-1.8273-2.838-4.2863-5.2148-7.1846-6.9448-2.8984-1.73-6.1576-2.7662-9.5228-3.0277-3.3653-.2614-6.7454.259-9.8762 1.5205-3.1308 1.2616-5.9274 3.2302-8.1711 5.7518-.1687.1764-.3714.3169-.5959.4128s-.466.1454-.7101.1454-.4857-.0495-.7102-.1454c-.2244-.0959-.4271-.2364-.5958-.4128-2.2449-2.5172-5.0412-4.4815-8.1706-5.7395-3.1295-1.258-6.5073-1.7756-9.8699-1.5124-3.3625.2632-6.6187 1.3-9.5143 3.0296s-5.3523 4.105-7.1781 6.9409c-1.8259 2.8359-2.9715 6.0554-3.3475 9.4072s.0278 6.7451 1.18 9.915c1.1521 3.17 3.0214 6.0307 5.4618 8.3588 2.4404 2.3282 5.3859 4.0607 8.6066 5.0624.409.1269.8347.1919 1.263.193 1.0168-.0004 1.9998-.3654 2.7706-1.0286s1.2784-1.5808 1.4306-2.5862c.1521-1.0054-.0611-2.032-.6011-2.8937-.54-.8616-1.371-1.5011-2.3421-1.8025-3.0605-.95-5.6789-2.9659-7.3798-5.6818s-2.3716-5.9516-1.8902-9.1198c.4813-3.1682 2.0828-6.0588 4.5136-8.1469s5.5298-3.2354 8.7344-3.2335z" fill="#fff"/></svg>