<svg fill="none" height="128" viewBox="0 0 128 128" width="128" xmlns="http://www.w3.org/2000/svg"><g fill="#fff"><path d="m64.0003 21.2501c-8.5435-.0144-16.8934 2.5443-23.962 7.343-.7337.4974-1.3622 1.1345-1.8497 1.8748-.4875.7404-.8244 1.5695-.9915 2.4401-.3373 1.7581.0375 3.5783 1.0422 5.0601 1.0046 1.4817 2.5567 2.5037 4.3149 2.8411.8705.167 1.7655.161 2.6337-.0178s1.6927-.5269 2.4264-1.0243c5.9023-3.9916 13.0594-5.6897 20.1258-4.7752s13.5554 4.3786 18.2472 9.7412c-3.7491.2808-7.3349 1.6493-10.3177 3.9379-2.9827 2.2886-5.233 5.3977-6.4749 8.9463-1.2418 3.5486-1.4214 7.3824-.5166 11.0315.9049 3.6491 2.8547 6.955 5.6106 9.5123s6.198 4.2549 9.9045 4.8849c3.7064.6299 7.5162.1647 10.9621-1.3385 3.446-1.5033 6.3787-3.9794 8.4377-7.1247 2.06-3.1453 3.157-6.8231 3.157-10.5827-.013-11.334-4.521-22.1999-12.5355-30.2142-8.0143-8.0144-18.8803-12.5226-30.2142-12.5358zm23.43 58.57c-2.1708.0157-4.3217-.4155-6.3186-1.2667-1.997-.8513-3.7974-2.1045-5.2892-3.6816s-2.6431-3.4443-3.3821-5.4855c-.7391-2.0412-1.0501-4.2127-.9138-6.3793.1363-2.1665.7171-4.2819 1.7062-6.2143.9891-1.9325 2.3653-3.6407 4.043-5.0184 1.6777-1.3776 3.621-2.3953 5.7089-2.9895 2.088-.5943 4.2759-.7525 6.4276-.4647.3339.0397.6723-.0166.9753-.1624.3031-.1458.5583-.3749.7357-.6606.176-.2876.2652-.6199.2569-.957-.0084-.337-.1139-.6645-.3039-.943-4.8721-7.1746-12.3918-12.1231-20.9085-13.7592-8.5168-1.6362-17.3347.1736-24.5185 5.0322-.3533.2396-.7504.4072-1.1685.4934-.4181.0861-.8491.0891-1.2684.0086-.8467-.1624-1.5942-.6545-2.0781-1.368-.4839-.7136-.6645-1.5902-.5021-2.4369s.6545-1.5943 1.3681-2.0781c5.9035-3.9936 12.7828-6.3045 19.9001-6.6849 7.1172-.3803 14.2037 1.1842 20.4992 4.5258s11.5624 8.3342 15.2357 14.442c3.6737 6.1079 5.6147 13.1007 5.6147 20.2281-.004 4.1942-1.673 8.2153-4.6386 11.1811-2.9658 2.9658-6.9869 4.6341-11.1811 4.6389z"/><path d="m87.4294 54.6802c-1.8433 0-3.6453.5466-5.1779 1.5707-1.5327 1.0241-2.7273 2.4797-3.4327 4.1827s-.89 3.5769-.5303 5.3848c.3596 1.8079 1.2472 3.4686 2.5506 4.772 1.3035 1.3034 2.9641 2.1911 4.772 2.5507s3.6819.175 5.3849-.5304 3.1586-1.8999 4.1827-3.4326 1.5707-3.3346 1.5707-5.1779c-.0029-2.4709-.9858-4.8398-2.733-6.587-1.7472-1.7473-4.1161-2.7301-6.587-2.733zm0 15.14c-1.1511 0-2.2763-.3414-3.2334-.9809s-1.7031-1.5484-2.1436-2.6119-.5558-2.2337-.3312-3.3627c.2246-1.1289.7789-2.1659 1.5928-2.9799.814-.8139 1.851-1.3682 2.98-1.5928 1.1289-.2246 2.2991-.1093 3.3626.3312s1.9724 1.1865 2.6119 2.1436.9809 2.0823.9809 3.2334c-.0021 1.5429-.616 3.022-1.707 4.113s-2.5701 1.7049-4.113 1.707z"/><path d="m49.892 64.0002c.0002-1.8435-.5463-3.6457-1.5703-5.1786-1.0241-1.533-2.4797-2.7278-4.1828-3.4335-1.7031-.7056-3.5772-.8904-5.3854-.531-1.8081.3595-3.469 1.2471-4.7727 2.5505s-2.1917 2.9641-2.5515 4.7722-.1755 3.6822.5298 5.3855 1.8999 3.1591 3.4326 4.1835 3.3348 1.5712 5.1783 1.5714c2.4713-.0024 4.8407-.985 6.5883-2.7323 1.7477-1.7472 2.7308-4.1164 2.7337-6.5877zm-15.142 0c-.0002-1.1513.3411-2.2769.9806-3.2343s1.5487-1.7037 2.6123-2.1444c1.0637-.4407 2.2342-.556 3.3635-.3315 1.1292.2246 2.1665.779 2.9807 1.5932.8141.8141 1.3685 1.8514 1.5931 2.9807.2246 1.1292.1092 2.2997-.3315 3.3634s-1.1869 1.9728-2.1443 2.6123c-.9575.6396-2.083.9808-3.2344.9806-1.543-.0018-3.0223-.6156-4.1133-1.7067-1.0911-1.091-1.7048-2.5703-1.7067-4.1133z"/><path d="m85.444 87.1942c-.8704-.1698-1.7659-.1652-2.6345.0137s-1.693.5284-2.4255 1.0283c-5.9027 3.99-13.0594 5.6869-20.1252 4.7719s-13.5541-4.379-18.2458-9.7409c3.7491-.2808 7.3348-1.6494 10.3176-3.938 2.9828-2.2885 5.2331-5.3977 6.4749-8.9463 1.2419-3.5485 1.4215-7.3824.5166-11.0315-.9048-3.6491-2.8546-6.9549-5.6105-9.5122s-6.198-4.255-9.9045-4.8849-7.5162-.1648-10.9622 1.3385-6.3785 3.9793-8.438 7.1246c-2.0596 3.1453-3.1567 6.8232-3.1569 10.5828.0007 7.7623 2.1146 15.378 6.115 22.03 4.0004 6.6521 9.7363 12.0896 16.5925 15.7288 6.8561 3.64 14.5738 5.344 22.325 4.931 7.7513-.414 15.2437-2.93 21.6735-7.2788 1.1053-.7488 1.9637-1.8086 2.4667-3.0453s.6279-2.5948.359-3.9025c-.2688-1.3077-.9195-2.5063-1.8696-3.4442s-2.157-1.573-3.4681-1.825zm1.917 7.243c-.0795.4194-.2413.8189-.4762 1.1754-.2348.3565-.5379.6629-.8918.9016-5.9036 3.9918-12.7826 6.3008-19.899 6.6808-7.1164.379-14.2018-1.186-20.4963-4.5281-6.2944-3.3417-11.5604-8.3339-15.2332-14.4411-3.6727-6.1072-5.6136-13.0991-5.6145-20.2256-.025-3.2483.9429-6.4267 2.7741-9.1098 1.8311-2.683 4.4382-4.7427 7.4722-5.9034 3.0339-1.1606 6.3501-1.3667 9.5044-.5908 3.1544.7759 5.9964 2.4969 8.1458 4.9325s3.5034 5.4697 3.881 8.6961c.3775 3.2263-.2395 6.491-1.7685 9.3571-1.5289 2.866-3.8969 5.1967-6.7869 6.6799s-6.1641 2.0482-9.3841 1.6194c-.3339-.0419-.6728.0134-.976.1593-.3032.1458-.558.3761-.7336.6631-.1757.287-.2648.6186-.2567.955s.1131.6634.3023.9416c4.8714 7.1741 12.39 12.1226 20.9058 13.7595 8.5159 1.6368 17.3332-.1716 24.5172-5.0285.5319-.3596 1.1583-.5536 1.8003-.5575.642-.004 1.2708.1823 1.807.5353s.9559.8569 1.2061 1.4482c.2502.5912.3196 1.2433.1996 1.874z"/></g></svg>