<svg fill="none" height="128" viewBox="0 0 128 128" width="128" xmlns="http://www.w3.org/2000/svg"><path d="m85.3482 107.1h-26.823c-.9669.011-1.9265-.169-2.8231-.532-.8967-.362-1.7125-.898-2.4003-1.578s-1.2338-1.489-1.6065-2.382c-.3726-.892-.5645-1.849-.5645-2.8165 0-.967.1919-1.9244.5645-2.8167.3727-.8924.9187-1.7019 1.6065-2.3817.6878-.6797 1.5036-1.2163 2.4003-1.5785.8966-.3622 1.8562-.5429 2.8231-.5316h7.62c-.4103-1.5107-.6428-3.0643-.693-4.629-.0206-.2253-.0313-.4526-.032-.682v-43.137c-.0645-1.7857-.8192-3.4767-2.1053-4.7172-1.2861-1.2404-3.0033-1.9336-4.7902-1.9336-1.7868 0-3.504.6932-4.7901 1.9336-1.2861 1.2405-2.0408 2.9315-2.1054 4.7172v37.141c-.0021 1.9376-.7727 3.7952-2.1428 5.1652-1.37 1.3701-3.2276 2.1407-5.1652 2.1428h-.087c-1.9375-.0021-3.7951-.7727-5.1652-2.1428-1.37-1.37-2.1406-3.2276-2.1428-5.1652v-37.141c-.0013-1.8291-.7288-3.5829-2.0227-4.8758-1.2938-1.2929-3.0481-2.0192-4.8773-2.0192-1.9235-.0225-3.7606-.8024-5.1128-2.1705-1.3523-1.3682-2.1107-3.2143-2.1107-5.138 0-1.9236.7584-3.7697 2.1107-5.1379 1.3522-1.3682 3.1893-2.1481 5.1128-2.1706 5.2561-.0146 10.3314 1.9177 14.247 5.424 3.9162-3.5062 8.9917-5.4383 14.248-5.424 5.7041.0053 11.1731 2.2733 15.2069 6.3064 4.0338 4.033 6.3028 9.5016 6.3091 15.2056v23.931c2.712-.751 5.5523-.9189 8.3338-.4926s5.4412 1.437 7.8038 2.9657c2.3625 1.5287 4.3742 3.5406 5.9032 5.9031 1.529 2.3626 2.539 5.0223 2.966 7.8038.426 2.7816.258 5.6218-.493 8.3338-.751 2.7119-2.068 5.234-3.864 7.4-1.7968 2.1662-4.0317 3.9272-6.5579 5.1662-2.5263 1.24-5.2865 1.93-8.0989 2.026-.2246.019-.452.028-.682.028zm-26.823-11.113c-.5053-.0082-1.0072.0843-1.4764.272-.4693.1877-.8965.467-1.2567.8214-.3603.3545-.6464.7771-.8417 1.2432-.1953.4662-.2959.9665-.2959 1.4719 0 .5055.1006 1.0055.2959 1.4715.1953.467.4814.889.8417 1.244.3602.354.7874.633 1.2567.821.4692.188.9711.28 1.4764.272h26.823c.1306 0 .2611-.007.391-.02.041 0 .082-.007.123-.008 2.4092-.075 4.7722-.68 6.9212-1.772 2.1491-1.092 4.0314-2.6429 5.5133-4.5438 1.4819-1.901 2.5273-4.1049 3.0613-6.4554.534-2.3504.544-4.7896.03-7.1443-.515-2.3548-1.5418-4.5673-3.0079-6.4806-1.466-1.9132-3.3354-3.4801-5.4753-4.5895-2.1398-1.1094-4.4977-1.734-6.9062-1.8294-2.4084-.0955-4.8084.3405-7.0294 1.277-.2661.1124-.5558.1571-.8435.1303-.2876-.0268-.5641-.1243-.8049-.2839-.2407-.1596-.4383-.3763-.575-.6307-.1367-.2545-.2084-.5388-.2086-.8277v-26.391c-.0052-4.7754-1.9046-9.3538-5.2814-12.7305-3.3768-3.3768-7.9551-5.2762-12.7306-5.2815-2.4289-.005-4.8333.4859-7.0659 1.4427-2.2326.9567-4.2464 2.3591-5.9181 4.1213-.3367.3319-.7906.518-1.2635.518-.4728 0-.9267-.1861-1.2635-.518-1.6717-1.7621-3.6855-3.1644-5.9181-4.1212-2.2326-.9567-4.6369-1.4476-7.0659-1.4428-.9993.0162-1.9523.4246-2.6533 1.1371-.7011.7124-1.0939 1.6719-1.0939 2.6714 0 .9996.3928 1.959 1.0939 2.6715.701.7125 1.654 1.1208 2.6533 1.137 2.7569.0019 5.4003 1.0975 7.3501 3.0464 1.9499 1.9489 3.0468 4.5918 3.0499 7.3486v37.141c.0014 1.0096.403 1.9774 1.1168 2.6912.7139.7139 1.6817 1.1155 2.6912 1.1168h.182c.9946-.0227 1.9406-.4346 2.6348-1.1472.6943-.7125 1.0814-1.6689 1.0782-2.6638v-37.138c.0796-2.7041 1.2097-5.2708 3.1506-7.1553 1.9408-1.8846 4.5397-2.9388 7.2449-2.9388 2.7053 0 5.3041 1.0542 7.245 2.9388 1.9408 1.8845 3.071 4.4512 3.1505 7.1553v43.141c.0002.1306.0068.2611.02.391 0 .041.007.082.008.123.054 2.0163.482 4.005 1.262 5.865.1127.2664.1577.5565.1309.8444-.0269.288-.1247.5648-.2847.8057-.1599.241-.3771.4385-.6321.5749-.255.1365-.5399.2076-.8291.207zm26.823 0c-1.7428 0-3.4466-.5168-4.8957-1.4851-1.4492-.9684-2.5786-2.3447-3.2456-3.9549-.6669-1.6102-.8414-3.3821-.5013-5.0915s1.1795-3.2795 2.412-4.5119c1.2325-1.2323 2.8027-2.0715 4.5121-2.4114s3.4813-.1652 5.0914.5019c1.6102.6671 2.9864 1.7967 3.9545 3.246.9682 1.4492 1.4848 3.153 1.4846 4.8959-.0023 2.3363-.9315 4.5762-2.5836 6.2281s-3.8921 2.5808-6.2284 2.5829zm0-14.123c-1.0506 0-2.0776.3116-2.9511.8953-.8736.5837-1.5544 1.4133-1.9565 2.3839-.4021.9707-.5073 2.0387-.3023 3.0691.205 1.0305.7109 1.977 1.4538 2.7199s1.6894 1.2488 2.7198 1.4538c1.0305.2049 2.0985.0997 3.0692-.3023.9706-.4021 1.8002-1.0829 2.3839-1.9565.5837-.8735.8952-1.9006.8952-2.9512-.0013-1.4084-.5614-2.7588-1.5573-3.7547s-2.3462-1.5559-3.7547-1.5573z" fill="#fff"/></svg>