<svg fill="none" height="128" viewBox="0 0 128 128" width="128" xmlns="http://www.w3.org/2000/svg"><g fill="#fff"><path d="m88.8884 85.471v-42.183c3.0922-1.935 5.9548-4.2146 8.533-6.795 1.4533-1.4532 2.2697-3.4243 2.2697-5.4795s-.8164-4.0262-2.2697-5.4795c-1.4532-1.4532-3.4243-2.2697-5.4795-2.2697s-4.0262.8165-5.4795 2.2697c-6.0661 6.0655-14.2932 9.473-22.8715 9.473s-16.8053-3.4075-22.8715-9.473c-.7167-.7326-1.5716-1.3158-2.5152-1.7158s-1.9571-.6088-2.982-.6145c-1.0248-.0056-2.0406.1921-2.9886.5816-.9479.3896-1.8092.9633-2.5339 1.688-.7248.7246-1.2986 1.5859-1.6882 2.5338-.3897.9479-.5874 1.9637-.5819 2.9885.0056 1.0249.2144 2.0385.6143 2.9821s.983 1.7986 1.7155 2.5153c2.5782 2.5804 5.4409 4.86 8.533 6.795v41.8c-3.2111 1.9732-6.1797 4.3162-8.845 6.981-1.4532 1.4533-2.2697 3.4243-2.2697 5.4795s.8165 4.0265 2.2697 5.4795c1.4533 1.453 3.4243 2.27 5.4795 2.27s4.0263-.817 5.4795-2.27c6.0664-6.0649 14.2933-9.4721 22.8715-9.4721s16.8051 3.4072 22.8715 9.4721c.7167.733 1.5716 1.316 2.5152 1.716s1.9572.609 2.982.614c1.0249.006 2.0407-.192 2.9886-.581.948-.39 1.8092-.964 2.534-1.688.7247-.725 1.2985-1.586 1.6881-2.534.3897-.9479.5875-1.9637.5819-2.9886-.0055-1.0248-.2143-2.0384-.6142-2.982-.3999-.9437-.983-1.7986-1.7156-2.5154-2.4909-2.4932-5.2477-4.7058-8.221-6.598zm5.746 15.081c-.3945.395-.8629.708-1.3784.921-.5155.214-1.0681.324-1.6261.324s-1.1106-.11-1.6261-.324c-.5155-.213-.9839-.526-1.3784-.921-6.7228-6.7217-15.8402-10.4978-25.347-10.4978-9.5067 0-18.6242 3.7761-25.347 10.4978-.3946.395-.8631.708-1.3786.921-.5156.214-1.0682.323-1.6262.323-.5581 0-1.1106-.11-1.6262-.323-.5155-.214-.9839-.527-1.3785-.921-.3945-.395-.7075-.8636-.921-1.3791-.2135-.5156-.3234-1.0682-.3233-1.6262 0-.5581.11-1.1106.3236-1.6262.2136-.5155.5266-.9839.9212-1.3785 2.6915-2.6923 5.716-5.0295 9-6.955.2634-.1544.4818-.3749.6335-.6398.1518-.2649.2316-.5649.2315-.8702v-43.77c-.0002-.3025-.0791-.5999-.2288-.8628s-.3651-.4825-.6252-.6372c-3.1709-1.8932-6.0949-4.1722-8.705-6.785-.4022-.3929-.7224-.8617-.9421-1.3793s-.3345-1.0736-.3378-1.6359.105-1.1196.3187-1.6397.5284-.9927.926-1.3903.8701-.7123 1.3903-.926c.5201-.2136 1.0774-.322 1.6397-.3187.5622.0033 1.1183.1181 1.6359.3378.5175.2197.9864.5399 1.3793.9421 6.7228 6.7218 15.8403 10.4979 25.347 10.4979s18.6242-3.7761 25.347-10.4979c.3946-.3945.8631-.7075 1.3787-.921s1.0681-.3234 1.6262-.3233c.558 0 1.1106.11 1.6261.3236s.984.5266 1.3785.9212c.3946.3947.7075.8631.9211 1.3787.2135.5156.3233 1.0682.3233 1.6262-.0001.558-.11 1.1106-.3236 1.6261-.2136.5156-.5267.984-.9213 1.3785-2.6083 2.6127-5.5306 4.8917-8.7 6.785-.2597.155-.4748.3746-.6243.6375s-.2283.5601-.2287.8625v44.136c-.0008.3013.0762.5977.2236.8605.1473.2627.36.483.6174.6395 3.0553 1.8568 5.8774 4.0726 8.406 6.6.3948.3945.7081.863.9218 1.3786.2136.5156.3236 1.0683.3236 1.6264 0 .5582-.11 1.1108-.3236 1.6265-.2137.5156-.527.9845-.9218 1.3785z"/><path d="m76.211 45.9179c-.2112-.1632-.4566-.2762-.7179-.3304-.2613-.0543-.5315-.0483-.7901.0174-7.2913 1.86-14.9328 1.86-22.224 0-.259-.0662-.5296-.0723-.7912-.0178-.2617.0545-.5074.1681-.7184.3322-.2109.164-.3816.3742-.4988.6144-.1173.2401-.178.5039-.1776.7712v33.871c-.0002.266.0603.5286.1768.7677.1165.2392.286.4486.4956.6125.2095.1639.4537.2778.7139.3333.2601.0554.5295.0508.7877-.0135 7.3051-1.8049 14.9463-1.7485 22.224.164.2591.0687.5306.0771.7934.0243.2629-.0527.5101-.1651.7227-.3285.2125-.1633.3847-.3734.5033-.6138s.1803-.5049.1806-.773v-34.049c-.0003-.267-.0617-.5304-.1796-.7699-.1179-.2396-.2891-.449-.5004-.6121zm-2.822 33.211c-6.4552-1.3854-13.1259-1.4327-19.6-.139v-29.49c6.4652 1.3345 13.1348 1.3345 19.6 0z"/></g></svg>