<svg fill="none" height="128" viewBox="0 0 128 128" width="128" xmlns="http://www.w3.org/2000/svg"><path d="m42.6277 105.311c-5.0803 0-9.9524-2.018-13.5447-5.6104-3.5922-3.5923-5.6103-8.4644-5.6103-13.5447 0-5.0802 2.0181-9.9523 5.6103-13.5446 3.5923-3.5923 8.4644-5.6104 13.5447-5.6104 1.8246-.001 3.6398.2624 5.389.782v-27.524c0-2.3072.4544-4.5918 1.3373-6.7233.8829-2.1316 2.1771-4.0684 3.8085-5.6998 1.6314-1.6315 3.5682-2.9256 5.6998-3.8085s4.4162-1.3374 6.7234-1.3374c2.3071 0 4.5918.4545 6.7233 1.3374 2.1316.8829 4.0684 2.177 5.6998 3.8085 1.6314 1.6314 2.9256 3.5682 3.8085 5.6998.8829 2.1315 1.3374 4.4161 1.3374 6.7233v47.231c0 1.0089.4007 1.9765 1.1141 2.6899s1.681 1.1141 2.6899 1.1141c1.0088 0 1.9764-.4007 2.6898-1.1141s1.1142-1.681 1.1142-2.6899c-.011-.9108.1589-1.8147.4998-2.6593.341-.8447.8462-1.6133 1.4864-2.2612.6402-.648 1.4026-1.1624 2.2431-1.5135s1.7423-.5319 2.6532-.5319c.9108 0 1.8126.1808 2.6528.5319.841.3511 1.603.8655 2.243 1.5135.641.6479 1.146 1.4165 1.487 2.2612.341.8446.511 1.7485.5 2.6593 0 4.6596-1.851 9.1284-5.1462 12.4232-3.2948 3.2949-7.7636 5.1459-12.4231 5.1459-4.6596 0-9.1284-1.851-12.4232-5.1459-3.2948-3.2948-5.1458-7.7636-5.1458-12.4232v-47.231c0-1.0087-.4008-1.9761-1.1141-2.6894s-1.6807-1.1141-2.6894-1.1141c-1.0088 0-1.9762.4008-2.6895 1.1141s-1.114 1.6807-1.114 2.6894v45.9c0 .2147-.0097.4274-.029.638-.141 4.9718-2.2203 9.6913-5.794 13.1507s-8.3584 5.3844-13.332 5.3634zm0-34.8101c-3.077-.0037-6.0868.8994-8.6534 2.5965s-4.5762 4.1129-5.7776 6.9455c-1.2015 2.8326-1.5416 5.9566-.9779 8.9814.5638 3.0248 2.0064 5.8165 4.1477 8.0261s4.8862 3.7396 7.8918 4.3976c3.0057.659 6.1387.417 9.0077-.695 2.869-1.1119 5.3467-3.0446 7.1236-5.5566s2.7741-5.4919 2.8671-8.5675c0-.041 0-.083.008-.124.012-.1159.018-.2324.018-.349v-45.9c0-1.937.7694-3.7946 2.1391-5.1643s3.2274-2.1392 5.1644-2.1392 3.7946.7695 5.1643 2.1392 2.1392 3.2273 2.1392 5.1643v47.234c0 3.7314 1.4822 7.3099 4.1207 9.9483 2.6384 2.6388 6.2169 4.1208 9.9483 4.1208 3.7313 0 7.3098-1.482 9.9482-4.1208 2.6385-2.6384 4.1211-6.2169 4.1211-9.9483.007-.4491-.074-.8952-.241-1.3123-.166-.4172-.414-.797-.729-1.1173-.3151-.3203-.6906-.5747-1.1048-.7484s-.8589-.2631-1.308-.2631c-.4492 0-.8939.0894-1.3081.2631s-.7897.4281-1.1046.7484c-.3148.3203-.5627.7001-.7293 1.1173-.1665.4171-.2483.8632-.2405 1.3123 0 1.9372-.7696 3.795-2.1393 5.1647-1.3698 1.3698-3.2276 2.1393-5.1647 2.1393-1.9372 0-3.795-.7695-5.1648-2.1393-1.3697-1.3697-2.1392-3.2275-2.1392-5.1647v-47.231c0-1.8475-.3639-3.677-1.071-5.3839-.707-1.707-1.7433-3.2579-3.0498-4.5643-1.3064-1.3065-2.8573-2.3428-4.5643-3.0498-1.7069-.7071-3.5364-1.071-5.3839-1.071-1.8476 0-3.6771.3639-5.384 1.071-1.7069.707-3.2579 1.7433-4.5643 3.0498-1.3065 1.3064-2.3428 2.8573-3.0498 4.5643-.707 1.7069-1.0709 3.5364-1.0709 5.3839v30.041c.0009.293-.0718.5815-.2114.8391-.1395.2576-.3415.4761-.5875.6353-.2459.1593-.5279.2542-.82.2762-.2922.0219-.5852-.0298-.8521-.1506-2.0145-.9205-4.2032-1.397-6.418-1.399zm0 24.544c-1.7581 0-3.4767-.5213-4.9385-1.498-1.4618-.9768-2.6011-2.365-3.2739-3.9893-.6728-1.6242-.8488-3.4115-.5058-5.1358.3429-1.7243 1.1895-3.3082 2.4327-4.5513 1.2431-1.2432 2.827-2.0898 4.5513-2.4328 1.7243-.3429 3.5116-.1669 5.1358.5059 1.6243.6728 3.0126 1.8121 3.9893 3.2739s1.4981 3.1804 1.4981 4.9384c-.003 2.3567-.9404 4.6159-2.6068 6.2823s-3.9256 2.6038-6.2822 2.6067zm0-14.277c-1.0659 0-2.1079.3161-2.9941.9083-.8863.5922-1.577 1.4339-1.9848 2.4187-.4079.9848-.5145 2.0684-.3065 3.1137.208 1.0454.7213 2.0057 1.4751 2.7593s1.7141 1.2668 2.7595 1.4746c1.0455.2078 2.129.101 3.1137-.3071.9847-.408 1.8263-1.0989 2.4183-1.9852.5921-.8864.908-1.9284.9078-2.9943-.0016-1.4286-.5699-2.7983-1.5803-3.8084-1.0103-1.0102-2.3801-1.5782-3.8087-1.5796z" fill="#fff"/></svg>