<svg fill="none" height="128" viewBox="0 0 128 128" width="128" xmlns="http://www.w3.org/2000/svg"><path d="m98.4557 88.0232c-3.7551-.0045-7.355-1.4983-10.0101-4.1536-2.6552-2.6553-4.1487-6.2554-4.1529-10.0104v-3.754h13.229c1.937-.0226 3.7873-.8079 5.1483-2.1856 1.362-1.3777 2.126-3.2368 2.126-5.1739s-.764-3.7962-2.126-5.1739c-1.361-1.3777-3.2113-2.163-5.1483-2.1856h-13.229v-1.262c.0042-3.755 1.4978-7.3549 4.1529-10.0101 2.6552-2.6552 6.2551-4.1487 10.0101-4.1529 1.9373-.0226 3.7873-.8079 5.1483-2.1856 1.362-1.3777 2.126-3.2368 2.126-5.1739s-.764-3.7962-2.126-5.1739c-1.361-1.3777-3.211-2.163-5.1483-2.1856-7.6573.0087-14.9985 3.0544-20.413 8.469-5.4145 5.4145-8.4603 12.7557-8.469 20.413v1.262h-11.146v-1.262c-.0087-7.6573-3.0545-14.9985-8.469-20.413-5.4145-5.4146-12.7557-8.4603-20.413-8.469-1.937.0226-3.787.8079-5.1488 2.1856-1.3617 1.3777-2.1254 3.2368-2.1254 5.1739s.7637 3.7962 2.1254 5.1739c1.3618 1.3777 3.2118 2.163 5.1488 2.1856 3.755.0042 7.3549 1.4977 10.0101 4.1529 2.6551 2.6552 4.1487 6.2551 4.1529 10.0101v1.262h-13.229c-1.937.0226-3.787.8079-5.1488 2.1856-1.3617 1.3777-2.1254 3.2368-2.1254 5.1739s.7637 3.7962 2.1254 5.1739c1.3618 1.3777 3.2118 2.163 5.1488 2.1856h13.229v3.754c-.0042 3.755-1.4977 7.3551-4.1529 10.0104-2.6551 2.6553-6.2551 4.1491-10.0101 4.1536-1.937.0226-3.787.8079-5.1488 2.1856-1.3617 1.3777-2.1254 3.2368-2.1254 5.1739s.7637 3.7962 2.1254 5.1743c1.3618 1.377 3.2118 2.163 5.1488 2.185 7.6575-.009 14.9988-3.0544 20.4134-8.4692 5.4145-5.4147 8.4601-12.7561 8.4686-20.4136v-3.754h11.146v3.754c.0085 7.6575 3.0541 14.9989 8.4686 20.4136 5.4146 5.4148 12.7559 8.4602 20.4134 8.4692 1.9373-.022 3.7873-.808 5.1483-2.185 1.362-1.3781 2.126-3.2372 2.126-5.1743s-.764-3.7962-2.126-5.1739c-1.361-1.3777-3.211-2.163-5.1483-2.1856zm0 11.219c-6.7295-.008-13.181-2.6848-17.9394-7.4434-4.7583-4.7585-7.4349-11.2102-7.4426-17.9396v-5.5c0-.4641-.1844-.9093-.5126-1.2374-.3282-.3282-.7733-.5126-1.2374-.5126h-14.646c-.4641 0-.9092.1844-1.2374.5126-.3282.3281-.5126.7733-.5126 1.2374v5.5c-.0077 6.7294-2.6843 13.1811-7.4426 17.9396-4.7584 4.7586-11.2099 7.4354-17.9394 7.4434-1.0128-.0163-1.9787-.4301-2.6892-1.1521-.7105-.7221-1.1087-1.6944-1.1087-2.7074s.3982-1.9854 1.1087-2.7074 1.6764-1.1358 2.6892-1.1521c4.683-.0056 9.1726-1.8684 12.4838-5.1799 3.3113-3.3114 5.1739-7.8011 5.1792-12.4841v-5.5c0-.4641-.1844-.9093-.5126-1.2374-.3282-.3282-.7733-.5126-1.2374-.5126h-14.979c-1.0128-.0163-1.9787-.4301-2.6892-1.1521-.7105-.7221-1.1087-1.6944-1.1087-2.7074s.3982-1.9854 1.1087-2.7074 1.6764-1.1358 2.6892-1.1521h14.979c.4641 0 .9092-.1844 1.2374-.5126s.5126-.7733.5126-1.2374v-3.016c-.0056-4.6828-1.8683-9.1723-5.1795-12.4835-3.3113-3.3113-7.8007-5.174-12.4835-5.1795-1.0128-.0163-1.9787-.4301-2.6892-1.1521-.7105-.7221-1.1087-1.6944-1.1087-2.7074s.3982-1.9854 1.1087-2.7074 1.6764-1.1358 2.6892-1.1521c6.7294.0077 13.1809 2.6843 17.9393 7.4427s7.435 11.2099 7.4427 17.9393v3.012c0 .4641.1844.9092.5126 1.2374s.7733.5126 1.2374.5126h14.646c.4641 0 .9092-.1844 1.2374-.5126s.5126-.7733.5126-1.2374v-3.012c.0077-6.7294 2.6843-13.1809 7.4427-17.9393s11.2099-7.435 17.9393-7.4427c1.0128.0163 1.9783.4301 2.6893 1.1521.71.722 1.109 1.6944 1.109 2.7074s-.399 1.9853-1.109 2.7074c-.711.722-1.6765 1.1358-2.6893 1.1521-4.6828.0055-9.1722 1.8682-12.4835 5.1795-3.3112 3.3112-5.1739 7.8007-5.1795 12.4835v3.012c0 .4641.1844.9092.5126 1.2374.3281.3282.7733.5126 1.2374.5126h14.979c1.0128.0163 1.9787.4301 2.6893 1.1521.71.722 1.109 1.6944 1.109 2.7074s-.399 1.9853-1.109 2.7074c-.7106.722-1.6765 1.1358-2.6893 1.1521h-14.979c-.4641 0-.9093.1844-1.2374.5125-.3282.3282-.5126.7734-.5126 1.2375v5.5c.0042 4.6837 1.8663 9.1744 5.1777 12.4867s7.8016 5.1757 12.4853 5.1813c1.0128.0163 1.9783.4301 2.6893 1.1521.71.722 1.109 1.6944 1.109 2.7074s-.399 1.9853-1.109 2.7074c-.711.722-1.6765 1.1358-2.6893 1.1521z" fill="#fff"/></svg>