<svg fill="none" height="79" viewBox="0 0 122 79" width="122" xmlns="http://www.w3.org/2000/svg" xmlns:xlink="http://www.w3.org/1999/xlink"><clipPath id="a"><path d="m.277344.657959h121.33v77.9243h-121.33z"/></clipPath><g clip-path="url(#a)"><path d="m50.518 39.4148c-1.3671.0341-1.538.0341-1.8798-.3076-.3076-.3076-.3759-.5469-.4101-1.8456l-.1367-4.4431-.0342-1.5721c-.0342-1.3329-.0342-1.538.3076-1.8798.3076-.3417.5126-.3759 1.8797-.4101l.8545-.0342-.1367-4.0329-3.1785.1025c-2.0165.1026-2.3583.1367-2.8026.2393-1.0253.3076-1.5379.9911-1.743 2.2899-.1367.6151-.2051 2.4949-.1709 3.5544l.0342 1.1962.1367 4.7165c.1367 4.7165.581 6.0494 2.1532 6.4253.4443.1026.6152.1367 2.9734.0684l3.3152-.1026-.1367-4.0329z" fill="#007cba"/><path d="m64.4632 33.8097-.0683-1.8114c-.1026-3.0759-.3076-4.238-.9228-5.4684-.7177-1.4012-2.0165-1.9481-4.238-1.8797l-2.2215.0683c-2.2216.0684-3.4861.7519-4.1013 2.1532-.5469 1.2646-.6836 2.4266-.581 5.5026l.0341.8202.0684 2.6317c.1025 3.0759.3076 4.238.9228 5.4683.7177 1.3671 2.0165 1.9482 4.238 1.8798l2.2215-.0684c2.2215-.0683 3.4861-.7519 4.1013-2.1531.5468-1.2646.6835-2.4266.581-5.5368zm-5.8443 5.5709c-.6494.0342-1.0595-.5126-1.0937-1.4354l-.1367-4.4431-.1025-3.5202c-.0342-.8887.3759-1.5039.9911-1.5039.6494-.0341 1.0595.5469 1.0937 1.4355l.1025 3.6911.1367 4.2722c.0342.9228-.3417 1.5038-.9911 1.5038z" fill="#007cba"/><path d="m110.535 37.501c-1.368.0341-1.573.0341-1.914-.3076-.308-.3076-.376-.5469-.411-1.8456l-.136-4.3405-.069-1.6747c-.034-1.3329 0-1.538.308-1.8798s.513-.3759 1.88-.4101l.854-.0342-.136-4.0329-3.179.1025c-2.016.1025-2.358.1367-2.803.2393-1.025.3076-1.538.9911-1.777 2.2898-.136.6152-.205 2.495-.171 3.5545l.069 2.5633.102 3.3494c.137 4.7164.581 6.0493 2.153 6.4253.445.1025.616.1367 2.974.0684l3.315-.1026-.137-4.0329z" fill="#007cba"/><path d="m77.8927 30.0502c-.0684-2.5975-.2734-4.1355-.5469-4.614-.581-1.0936-1.2303-1.3671-3.1784-1.2987-2.1532.0684-2.8709.6152-3.3152 2.5633-.1026-.957-.2051-1.3329-.5469-2.4266l-5.0241.1709c.4444 1.5722.5469 2.4266.6152 4.2038l.1709 5.195.2734 9.0911 4.9558-.1708-.2735-8.8862-.1367-3.862c-.0341-1.0595.2734-1.538.957-1.5721.6835-.0342 1.0253.4443 1.0595 1.4354l.1367 3.9646.2734 8.8177 4.9557-.1709-.2734-8.7494z" fill="#007cba"/><path d="m88.0784 23.7273-9.4671.2734.1026 4.0329 2.2557-.0683.1708 5.7076.3076 8.7836 4.9558-.1709-.2735-8.8519-.1708-5.6393 2.2215-.0684z" fill="#007cba"/><path d="m101.271 27.0767c-.034-1.6063-.342-2.5633-.957-3.0418-.5807-.4785-1.7427-.6493-4.1693-.5468l-2.0165.0683c-2.4266.0684-3.5544.3076-4.1013.8203-.581.5127-.8202 1.5038-.7519 3.1101l.1709 5.7418.2734 8.9887 4.9557-.1709-.1367-3.8962 2.0848-.0684.1368 3.8962 4.9561-.1709-.308-9.843zm-6.8352 6.938-.0342-1.2304-.1025-3.657c-.0342-1.1962.2734-1.743.9911-1.743.6836-.0342 1.0254.5127 1.0937 1.6747l.1025 3.5203.0342 1.367z" fill="#007cba"/><path d="m119.249 26.7692 2.221-.0683-.102-4.0329-9.468.3076.137 3.9987 2.222-.0683.102 2.9392.376 11.5519 4.956-.1708-.376-12.4748z" fill="#007cba"/><path d="m7.14844 46.8999 67.29516-2.1532 47.7114-1.3671.069 2.3583-34.4171.4101z" fill="#007cba"/><g fill="#54c0e8"><path d="m27.5875 60.6391.2392 2.8709-1.3671.1025.7519 8.8178-3.7595.3418-.7519-8.8178-1.0253.1026-.2393-2.8709 1.0254-.1026-.1026-1.2987c-.1708-2.1532.376-2.9051 2.3241-3.076l2.5291-.205.2393 2.8709-.5469.0341c-.581.0684-.7861.3076-.7519.8886l.0342.4102z"/><path d="m32.8518 67.3721.0683.6494c.0684.8203.376 1.0253 1.4013.9228l4.1354-.3418.2393 2.8709-6.3228.5469c-2.4266.205-2.9393-.1709-3.1102-2.3241l-.0683-.7177-.5469-6.4254c-.0683-.8544.0684-1.5379.4102-1.9481.3417-.4101 1.0595-.6493 2.4949-.7519l2.9734-.2392c1.2988-.1025 2.119 0 2.6317.3076.5127.3418.6152.6152.7519 2.0164l.4443 4.9899zm1.4696-2.4607-.1025-1.0937c-.0684-.8544-.4102-1.2987-.957-1.2646-.5468.0342-.8203.5469-.7519 1.4013l.1025 1.0937z"/><path d="m43.1037 66.4835.0684.6493c.0683.8203.3759 1.0253 1.4012.9228l4.1355-.3418.2392 2.8709-6.3228.5469c-2.4266.205-2.9392-.1709-3.1101-2.3241l-.0684-.7177-.5468-6.4253c-.0684-.8545.0684-1.538.4101-1.9482.3418-.4101 1.0595-.6493 2.495-.7519l2.9734-.2734c1.2987-.1025 2.119-.0342 2.6317.3076.5126.3418.6152.6152.7519 2.0165l.4443 4.9899zm1.4696-2.4608-.1025-1.0937c-.0683-.8544-.4101-1.2987-.957-1.2645-.5468.0341-.8202.5468-.7519 1.4012l.1026 1.0937z"/><path d="m52.4685 54.3164 1.3671 15.8241-3.7595.3418-1.3671-15.8241z"/><path d="m63.7139 69.2518c-1.6405.1367-1.9139.1026-2.4266-.1025-.581-.3076-.8544-.9228-.9911-2.1532l-.0342-.786-.4785-5.4342c-.1709-2.0849-.1709-2.3241.2734-2.8368.4443-.4784 1.2304-.7177 3.0418-.8886l2.2215-.205c1.8456-.1709 2.3583-.1367 2.8709.205.5469.3418.6494.6152.8886 2.8709l.8545 9.7064.0683.581c.1026 1.2987-.1708 2.0165-.9569 2.3924-.2051.0684-1.4696.3076-1.914.376l-3.6228.3076c-2.1531.1709-2.6658-.1367-2.8025-1.7089l-.1025-1.1279 3.1443-.2734c.0683.8203.4101 1.0253 1.3329.957.8203-.0684 1.1279-.4101 1.0595-1.162l-.1025-.957zm1.7089-8.1342c-.0684-.8886-.376-1.2987-1.0253-1.2303-.6152.0683-.8545.4784-.7519 1.367l.3417 3.8279c.0684.8886.376 1.2646.9912 1.2304.6152-.0684.8544-.4785.7861-1.3671z"/><path d="m75.7089 55.991c1.8114-.1709 2.6317-.0684 3.1443.3417.5127.4102.5811.6494.7519 2.7342l.4785 5.3659c.1709 2.0506.1709 2.2898-.2734 2.8025-.4443.4785-1.2304.7177-3.0418.8886l-2.0848.1709c-1.8114.1709-2.6316.0683-3.1443-.3418s-.581-.6493-.7519-2.7l-.4785-5.3658c-.1709-2.0848-.1709-2.3241.2734-2.8026.4443-.4784 1.2304-.7177 3.0418-.8886zm.2051 4.2038c-.0684-.8886-.376-1.2646-1.0253-1.2304-.6152.0683-.8545.4785-.7519 1.3671l.3417 3.8278c.0684.8887.376 1.2988.9912 1.2304.6152-.0683.8544-.4785.7861-1.4012z"/><path d="m86.1337 55.1024c1.8114-.1709 2.6317-.0683 3.1443.3418.5127.4101.5811.6493.752 2.7342l.4784 5.3658c.1709 2.0506.1367 2.2899-.2734 2.8025-.4443.4785-1.2304.7178-3.0418.8887l-2.0848.1708c-1.8114.1709-2.6316.0684-3.1785-.3417-.5126-.4102-.581-.6494-.7519-2.7l-.4785-5.3659c-.1709-2.0848-.1708-2.324.2735-2.8367.4443-.4785 1.2303-.7177 3.0417-.8886zm.2051 4.2038c-.0684-.8886-.376-1.2987-1.0253-1.2304-.6152.0684-.8545.4785-.7519 1.3671l.3418 3.8279c.0683.8886.3759 1.2645.9911 1.2304.6152-.0684.8544-.4785.7861-1.3671z"/><path d="m101.138 66.005-3.7598.3418-.1025-1.3329c-.5127 1.2304-.7861 1.4696-1.9823 1.5721l-.7519.0684c-1.3671.1025-1.8114 0-2.2215-.4443-.3076-.4101-.5811-1.3671-.6836-2.4608l-.581-6.4937c-.1025-1.162-.0342-1.6747.3076-2.119.376-.4101.8203-.6152 1.5722-.6835l.8202-.0684c1.2646-.1025 1.6063 0 2.3241.7861l.3076.3418-.4443-4.9216 3.7595-.3417zm-4.4775-7.6557c-.0684-.957-.376-1.3671-.957-1.2987-.581.0683-.8202.5126-.7177 1.4354l.3076 3.7595c.0683.957.3759 1.3671.957 1.2987.581-.0341.786-.5126.7177-1.4354z"/><path d="m59.9177 20.7541-.1025-4.1013-1.6406.0342.0684 2.119-.1367-.1367c-.2734-.3418-.4443-.4101-.9911-.376h-.3418c-.3076 0-.5127.1026-.6836.2393-.1709.1709-.205.4101-.205.8886l.0341 1.5038.0342 1.2987c0 .4785.1026.8886.2393 1.0937.1709.2051.3417.2734.9569.2393h.3418c.5127 0 .6494-.1026.8886-.6152l.0342.581 1.6405-.0342zm-1.9481 1.538c-.2734 0-.376-.1709-.376-.581l-.0341-.8203-.0342-.8202c0-.4102.1025-.6152.3418-.6152.2392 0 .3759.1709.3759.581l.0342.7861.0342.8202c0 .4443-.1026.6494-.3418.6494z"/><path d="m62.1405 20.5492-.0683-2.3925-1.6406.0684.0684 2.4949.0683 2.7342 1.6406-.0342z"/><path d="m62.0227 16.5955-1.6399.0463.0319 1.1274 1.6399-.0463z"/><path d="m66.7536 21.8479-.0683-1.9823v-.3418c-.0342-.8886-.0342-.9911-.2734-1.1962-.2051-.205-.5469-.2392-1.333-.2392l-.8886.0342c-.7861.0341-1.1278.1025-1.3329.3076-.2051.205-.2051.3075-.2051 1.1962l.0342.8544.0342 1.4696c.0342.8886.0342.9912.2734 1.1962.2051.1709.5469.2393 1.3671.2393l.8886-.0342c.7861-.0342 1.1279-.1025 1.3329-.3076.2051-.2051.2051-.3076.1709-1.1962zm-2.0164.2734c-.2735 0-.376-.1709-.4102-.5468l-.0341-1.2988v-.3417c0-.376.1025-.5811.3759-.5811s.4101.1709.4101.5469v.2392l.0342 1.4013c.0342.4101-.1025.581-.3759.581z"/><path d="m50.9637 18.5327c-.1367-.0342-.1709-.0683-.2735-.0683-.4784 0-.7519.205-1.0253.7519l-.0342-.6836-1.6405.0342.0684 2.119.1025 3.1101 1.6405-.0342-.0683-2.9392-.0342-.9912c.5468.1368.7519.2393 1.2304.4444z"/><path d="m55.3396 20.9593-.0684-2.5975-1.6405.0342.0342.5468-.1367-.1367c-.2735-.3418-.4785-.4101-.9912-.4101h-.3418c-.3075 0-.5468.1025-.6835.2734-.1709.1709-.2051.4101-.2051.8886l.0342 1.3329.0342 1.4697c0 .4784.1025.8886.2392 1.0936.1709.2051.3418.2735.957.2393h.3418c.5126 0 .6152-.1026.8886-.6152v.581l1.6405-.0342zm-1.9481 1.4696c-.2735 0-.376-.1709-.376-.581l-.0342-.8886-.0341-.7519c0-.4101.1025-.581.3417-.6152.2393 0 .376.1709.376.581l.0342.7861.0341.8544c.0342.4102-.0683.6152-.3417.6152z"/></g><path d="m42.1082 32.6817c-.957 0-2.0848-.6152-2.9735-1.1621l-.2734-.1708.1026-.2735c.4101-1.4354 1.0595-3.6911 1.0936-4.0329l.1367-.9911.5811.8202c.2392.3418 2.3924 3.5203 2.1873 5.0924-.0683.376-.4443.6836-.8544.7178z" fill="#fff"/><path d="m40.4335 27.0768s2.324 3.3493 2.1189 4.819c-.0341.205-.2392.3759-.4443.3759-.9227 0-2.0848-.6835-2.7683-1.0937 0 0 1.0253-3.5886 1.0937-4.1012zm-.5127-2.119-.2734 2.0164c-.0342.3076-.581 2.2557-1.0937 3.9646l-.1709.581.5127.3076c.9228.5468 2.119 1.1962 3.1785 1.1962.6152 0 1.1278-.4443 1.2303-1.0595.2393-1.6747-1.8114-4.7506-2.2215-5.3658z" fill="#1d1d1b"/><path d="m46.7893 13.5768s-.2051.0342-.4443.0342c-.376.0342-.7519-.2734-.957-.581-.5468-.7177-2.1873-1.3671-2.1873-1.3671s-.2393-.8886.3417-1.4354c.5469-.5127-1.1962.1708-1.162.2734l-6.6988 3.4177 5.6735.6494 5.6734-.6494c0-.0342-.2392-.3418-.2392-.3418z" fill="#1d1d1b"/><path d="m43.6462 13.987-4.1013-.1367s.2393-1.3329 2.4266-.9228c1.5722.4101 1.6747 1.0595 1.6747 1.0595z" fill="#fff"/><path d="m30.693 19.1477c-1.2987-2.2557-1.6747-3.4519-1.2987-4.443.4785-1.2987 2.1873-1.9139 5.2633-3.0076l.7177-.2393c1.6747-.6151 2.7342-1.57211 4.1696-2.87085.5469-.47848 1.1279-1.0595 1.8456-1.64051 1.3671-1.16203 2.6317-1.40127 3.4178-1.40127.786 0 1.3329.23924 1.4012.27341l.3418.17089-.1709.34177c-.0683.10254-1.5038 2.8709-5.1266 5.12656l-.0683.0342h-.0684c-8.8519 2.1532-9.7064 7.4849-9.7064 7.519l-.1708 1.1279z" fill="#007cba"/><path d="m44.809 5.88691c.7519 0 1.1962.23924 1.1962.23924s-1.4013 2.73419-4.9557 4.95575c-9.2621 2.2557-10.014 7.8607-10.014 7.8607-2.8025-4.7848-1.3671-5.0582 4.4772-7.143 2.3925-.8544 3.5203-2.39243 6.152-4.57978 1.2303-1.05949 2.3582-1.33291 3.1443-1.33291zm0-.78608c-.8545 0-2.1874.27342-3.657 1.5038-.7177.6152-1.3329 1.16203-1.8456 1.64051-1.4012 1.29874-2.4266 2.22156-4.0329 2.80256-.2392.1025-.4785.1709-.7177.2392-3.1785 1.1279-4.9557 1.7772-5.5026 3.2469-.4785 1.2645.1709 2.7683 1.3329 4.7848l1.1621 1.9823.3076-2.2899s.205-1.2646 1.4354-2.8025c1.6405-2.0165 4.4089-3.5545 7.9633-4.4089l.1367-.0342.1026-.0683c3.6911-2.28992 5.1949-5.16082 5.2633-5.26335l.3418-.68355-.6836-.34177c-.1025 0-.6835-.3076-1.6063-.3076z" fill="#1d1d1b"/><path d="m1.46869 55.3414c0-.0342.58102-3.2127.06836-5.4-.44431-1.8798-.751903-4.2722-.888612-5.2291 0-.1368.034178-.2735.102533-.3418.102532-.1026.205064-.1367.341769-.1367.17089 0 .3076.1025.37595.2392.37595.6494 1.77722 2.8026 3.65698 2.8026 1.05949 0 2.18735-.6836 3.28102-2.0507 3.48611-4.2722 7.00631-9.7405 6.35701-12.2355-.1367-.5468-.4443-.8886-.9912-1.1278-.1709-.0684-.3759-.1026-.581-.1026-.0683 0-.1025 0-.1709 0-.6152.0684-.9911.1026-1.2645.1026-.2393 0-.6494 0-.8203-.3076-.1709-.2734 0-.581.1025-.7861.376-.6835 3.657-3.2468 5.776-4.2722.9912-.4784 3.5203-4.8531 5.776-8.7494 2.2215-3.862 4.3405-7.519 5.6734-8.81771.1367-.13671.2734-.27342.4102-.47849 1.1278-1.46962 4.2721-4.85318 8.8861-4.85318 1.1962 0 2.4265.23925 3.6228.71773.8202.37595 1.4012 1.26456 1.4012 1.29874l.2051.34177-.3418.20506s-1.2304.75191-2.0164 1.64052c-.0684.06835-.1368.13671-.1709.20506-.8545 1.02532-2.1532 2.5633-6.3228 3.8279-2.5633.786-4.0671 1.6747-4.614 2.7683-.3076.6494-.3076 1.4013.0684 2.2899.0683.1367.1709.376.2734.6494 1.0253 2.2215 3.7937 8.1342.9911 14.8671-2.8367 6.7671-10.4924 12.4064-22.72789 16.7469-.20506.0684-.41013.1367-.61519.1709-.37595.0683-.68355.1367-.99115.2392-.54683.1709-1.05949.5469-1.36709 1.0595-.4443.7178-.71772 1.4013-.78608 1.8456-.13671 1.1962-.88861 2.7342-2.18735 3.3494l-.68354.3418z" fill="#007cba"/><path d="m37.63 3.93867c1.0937 0 2.2557.20506 3.4519.68354.7177.34178 1.2304 1.16203 1.2304 1.16203s-1.2988.78608-2.119 1.70887c-.8203.95696-1.9139 2.59749-6.3228 3.89619-4.4089 1.3329-5.776 3.0418-4.7848 5.5709.9911 2.495 11.7911 20.0279-21.22416 31.7166-.17089.0683-.37595.1025-.54684.1709-.41013.0683-.7519.1709-1.02532.2392-.64937.2051-1.23038.6494-1.57216 1.2304-.34177.5468-.7519 1.3329-.85443 2.0165-.13671 1.162-.82026 2.4949-1.98229 3.0759 0 0 .58102-3.2468.06836-5.5709-.44431-1.8797-.7519-4.3405-.85443-5.1608 0-.0341.03417-.0683.06835-.0683s.03418 0 .03418.0342c.4443.786 1.91393 3.0076 3.99875 3.0076 1.05949 0 2.2557-.581 3.58861-2.1874 4.30638-5.2633 8.81778-12.5089 5.22918-13.9785-.2393-.1025-.4785-.1367-.7178-.1367-.0683 0-.1367 0-.205 0-.5469.0683-.957.0683-1.2304.0683-.6152 0-.581-.1708-.376-.5126.3076-.581 3.4861-3.076 5.6051-4.1013 2.0848-.9911 8.7836-14.9013 11.552-17.6355.1708-.17089.3076-.3076.4443-.51266 1.6746-2.22153 4.7164-4.71647 8.5443-4.71647zm0-.78608c-4.7848 0-8.0317 3.48609-9.1937 4.98989-.1367.17089-.2393.30759-.376.41013-1.3671 1.36709-3.486 5.02409-5.7418 8.92029-1.1962 2.0506-2.4265 4.1696-3.4519 5.8101-1.5038 2.3583-2.0164 2.7342-2.1531 2.8026-2.119.9911-5.5026 3.6228-5.9469 4.443-.1367.2393-.3759.7178-.1025 1.1962.3076.5127.8886.5127 1.162.5127s.6494-.0342 1.2987-.1025h.1368c.1708 0 .3076.0341.4101.0683.4101.1709.6494.4443.7519.8545.4785 1.9481-1.9823 6.6304-6.28864 11.8937-1.02532 1.2645-2.05064 1.8797-2.97343 1.8797-1.67469 0-2.97343-2.0164-3.3152-2.5975-.13671-.2734-.44431-.4101-.71773-.4101-.239239 0-.478481.1025-.649367.2734-.170887.1709-.239241.4102-.205064.6494.13671.957.444305 3.3494.888611 5.2633.51266 2.1532-.06835 5.2291-.06835 5.2633l-.273424 1.538 1.401274-.6836c1.46962-.7177 2.2557-2.3582 2.42659-3.6569.03418-.4102.30759-.9912.71772-1.6747.27342-.4443.68355-.7519 1.16203-.8886.27342-.0684.58102-.1709.92279-.2393.20506-.0341.4443-.1025.68355-.1709 12.33804-4.3747 20.06204-10.0823 22.96714-16.9519 2.8709-6.8697.0684-12.919-.9911-15.1747-.1367-.2393-.2051-.4785-.2734-.6152-.3076-.7861-.3418-1.4013-.0684-1.9481.4785-.957 1.9481-1.8456 4.3747-2.5633 4.3063-1.2988 5.7076-2.93929 6.5279-3.93043.0683-.06836.1367-.13671.1709-.20507.7177-.85443 1.9139-1.57216 1.9139-1.57216l.6835-.41012-.4101-.68355c-.0683-.10253-.6494-1.02532-1.538-1.43545h-.0341-.0342c-1.2988-.61519-2.5633-.85443-3.7937-.85443z" fill="#1d1d1b"/><path d="m29.4954 23.2832s-3.2126-.4101-5.9126 1.6747c-.9912.9228-.581 1.2987.2392 1.2304.8203-.1026 2.8367-.7519 6.4937 1.2303.0342 0 .4785-2.119-.8203-4.1354z" fill="#fff" stroke="#1c1a1e" stroke-miterlimit="10" stroke-width="1.02532"/><path d="m13.3982 49.0527c-1.4355 0-2.3241-.1367-2.3583-.1367l-1.46959-.2051 1.36709-.5468c9.7405-3.8621 16.2342-8.8178 19.2418-14.7646 2.6659-5.2292 2.0507-10.0823 1.0595-13.2267l-.0341-.1025.0341-.1025c1.3671-4.8532 3.5203-5.8102 6.7672-5.8102.8886 0 1.8797.0684 2.9734.1709.7177.0684 1.4013.1026 2.0506.1026 3.1785 0 4.6823-.6836 5.2975-.9912.0684-.0342.2734-.1367.2734-.1367.2734-.1367.5127-.2392.8203-.2392.6152 0 .9228.5468 1.1278.9569.1026.2051.1026.4785 0 .6836-.3417.8544-2.0506 1.5721-4.4088 2.4266-.2735.1025-.5469.205-.8203.3076-1.3671.5126-1.6405.6493-2.4608 2.2215-.7519 1.4696-1.3671 3.1101-1.8114 4.8532-2.3924 9.638-6.9721 16.576-13.6367 20.6431-5.5367 3.3835-11.176 3.8962-14.0127 3.8962z" fill="#fff"/><path d="m49.422 13.4401c.2734 0 .5126.1709.786.7178.4785 1.0253-3.0076 2.1531-4.9899 2.905-1.4354.5469-1.8114.7178-2.6658 2.3924-.8202 1.5722-1.4013 3.2469-1.8456 4.9558-5.5025 22.1127-21.3266 24.2659-27.2735 24.2659-1.4354 0-2.2899-.1367-2.2899-.1367 22.3178-8.8178 22.6596-21.6001 20.5064-28.5039 1.2646-4.5798 3.2469-5.5026 6.3912-5.5026.8886 0 1.8456.0684 2.9393.1709.7519.0683 1.4696.1025 2.0848.1025 3.5544 0 5.0924-.8544 5.6051-1.0937.2734-.1708.5126-.2734.7519-.2734zm0-.786c-.376 0-.6836.1367-.957.2734l-.1025.0341c-.0342.0342-.1026.0342-.1709.0684-.6152.2734-2.0165.957-5.1266.957-.6494 0-1.3329-.0342-2.0165-.1026-1.0937-.1025-2.0848-.1709-3.0076-.1709-3.3494 0-5.7418 1.0254-7.1431 6.0836l-.0683.2051.0683.205c.957 3.076 1.5722 7.8267-1.0253 12.9533-2.9734 5.8785-9.3646 10.7658-19.0368 14.5937l-2.73414 1.0936 2.90504.4102c.0342 0 .9228.1367 2.4266.1367 2.9051 0 8.6127-.5127 14.2178-3.9646 6.7329-4.1354 11.381-11.176 13.8076-20.8823.4443-1.7089 1.0254-3.3494 1.7773-4.7849.7519-1.4696.9569-1.5379 2.2557-2.0506.2392-.1025.5126-.2051.8202-.3076 2.5291-.957 4.238-1.6405 4.6481-2.6658.1367-.3418.1367-.6836-.0341-1.0254-.1709-.1708-.5811-1.0594-1.5038-1.0594z" fill="#1d1d1b"/><path d="m33.8391 14.5339c-.2392-.2051-2.6658-1.0595-3.6569-.3759-.3418.2392-.4785.6835-.5127 1.1278-.0684.957.1709 1.9139.7861 2.6317l.0683.1025z" fill="#1d1d1b"/><path d="m31.6172 16.2427s1.0595-.5127.9911-1.538c0 0-.7519-.3759-.8544-.2734-.0342 0 .4443 1.0595-.1367 1.8114z" fill="#fff"/><path d="m31.1034 15.0123s-.3418-.5811-.7519-.4444c-.4101.1709.8202.7861.7519.4444z" fill="#fff"/></g></svg>