<svg fill="none" height="128" viewBox="0 0 128 128" width="128" xmlns="http://www.w3.org/2000/svg"><path d="m27.7996 107.9c-4.3 0-7.7-3.5-7.7-7.8 0-2.1001.8-4.0001 2.3-5.5001l29.9-29.9-11-11c-3-3-3-7.9.1-11 3-3 7.9-3 10.9 0l11 11 16.7-16.7h-14.4c-4.3 0-7.8-3.5-7.8-7.8s3.5-7.8 7.8-7.8h33c4.1004 0 7.7004 3.2 7.7004 7.7v33c0 4.3-3.5 7.7-7.8004 7.7-4.3 0-7.8-3.5-7.8-7.7v-14l-16.6 16.7 11 11c3 3 3.1 7.9.1 11-3 3-7.9 3.1-11 .1 0 0 0 0-.1-.1l-11-11-29.9 29.9001c-1.4 1.4-3.3 2.3-5.4 2.2zm18.9-63.8001c-2.3 0-4.2 1.9-4.3 4.2 0 1.1.4 2.2 1.2 3l12.3 12.3c.7.7.7 1.8 0 2.5l-31.1 31.1c-1.7 1.7-1.7 4.4001 0 6.0001 1.7 1.7 4.4 1.7 6 0l31.1-31.1001c.7-.7 1.8-.7 2.5 0l12.3 12.3c1.7 1.7 4.4 1.7 6 0 1.7-1.7 1.7-4.4 0-6l-12.3-12.3c-.7-.7-.7-1.8 0-2.5l20.9-20.9c1.1-1.1 3-.3 3 1.2v18.5c0 2.3 1.9 4.3 4.3 4.3 2.4004 0 4.3004-1.9 4.3004-4.3v-33c0-2.3-1.9-4.2-4.2004-4.3h-33c-2.3 0-4.3 1.9-4.3 4.3s1.9 4.3 4.3 4.3h18.5c1.6 0 2.3 1.9 1.2 3l-21 20.9c-.7.7-1.8.7-2.5 0l-12.2-12.3c-.8-.8-1.9-1.2-3-1.2z" fill="#fff"/></svg>