<svg fill="none" height="128" viewBox="0 0 128 128" width="128" xmlns="http://www.w3.org/2000/svg"><path d="m105.353 107.1c-5.288.02-10.3745-2.024-14.1782-5.697-3.8037-3.6733-6.0241-8.6857-6.1887-13.9709-.022-.24-.034-.483-.034-.729v-41.764c-.0218-1.82-.7602-3.558-2.0549-4.8372-1.2947-1.2793-3.0415-1.9967-4.8616-1.9967s-3.5668.7174-4.8615 1.9967c-1.2947 1.2792-2.0331 3.0172-2.055 4.8372v.057 35.118c0 2.0554-.8165 4.0266-2.2699 5.4801-1.4534 1.4534-3.4246 2.2699-5.4801 2.2699-2.0554 0-4.0266-.8165-5.48-2.2699-1.4534-1.4535-2.27-3.4247-2.27-5.4801v-35.175c0-1.8345-.7287-3.5939-2.0259-4.8911s-3.0566-2.0259-4.8911-2.0259-3.5938.7287-4.891 2.0259-2.026 3.0566-2.026 4.8911v35.175c0 2.0554-.8165 4.0266-2.2699 5.4801-1.4534 1.4534-3.4246 2.2699-5.4801 2.2699-2.0554 0-4.0266-.8165-5.48-2.2699-1.4534-1.4535-2.27-3.4247-2.27-5.4801v-35.175c-.0018-1.8337-.7311-3.5917-2.0277-4.8883s-3.0546-2.0259-4.8883-2.0277c-2.0554 0-4.0266-.8165-5.48-2.2699-1.4534-1.4535-2.27-3.4247-2.27-5.4801 0-2.0555.8166-4.0267 2.27-5.4801s3.4246-2.2699 5.48-2.2699c5.3912-.0137 10.6036 1.9328 14.666 5.477 4.0695-3.5334 9.2777-5.479 14.667-5.479 5.3894 0 10.5976 1.9456 14.667 5.479 3.2455-2.817 7.2329-4.6409 11.4864-5.2542s8.5937.0099 12.5027 1.7953c3.9091 1.7854 7.2221 4.6576 9.5438 8.274s3.554 7.8244 3.55 12.1219v41.763c.002 1.299.518 2.5445 1.437 3.463.919.9186 2.164 1.4354 3.463 1.437 2.056 0 4.027.8165 5.48 2.2699 1.454 1.4534 2.27 3.4246 2.27 5.4801 0 2.0559-.816 4.0269-2.27 5.4799-1.453 1.454-3.423 2.27-5.479 2.27zm-27.3179-72.5769c2.7617.0032 5.4093 1.1015 7.3621 3.0542 1.9529 1.9527 3.0515 4.6002 3.0549 7.3618v41.761c.0001.1463.0078.2925.023.438 0 .039.006.079.007.119.1242 4.3867 1.958 8.5511 5.11 11.6044 3.152 3.0535 7.3729 4.7535 11.7609 4.7385 1.127 0 2.208-.448 3.005-1.245s1.245-1.878 1.245-3.0049c0-1.1272-.448-2.2082-1.245-3.0052-.797-.7971-1.878-1.2448-3.005-1.2448-2.227-.0029-4.362-.8889-5.9363-2.4635-1.5747-1.5747-2.4606-3.7096-2.4636-5.9365v-41.761c.0044-3.7493-1.1065-7.4152-3.1914-10.5314-2.0848-3.1162-5.0494-5.5419-8.5167-6.9686-3.4672-1.4267-7.2805-1.7899-10.9547-1.0435-3.6743.7465-7.0435 2.5689-9.6792 5.2355-.3348.3194-.7797.4976-1.2425.4976-.4627 0-.9077-.1782-1.2425-.4976-1.7552-1.7765-3.8455-3.1869-6.1498-4.1496-2.3044-.9626-4.7768-1.4583-7.2742-1.4583-2.4973 0-4.9698.4957-7.2741 1.4583-2.3043.9627-4.3947 2.3731-6.1499 4.1496-.3348.3197-.78.4981-1.243.4981-.4629 0-.9081-.1784-1.243-.4981-1.7519-1.7805-3.8415-3.1937-6.1464-4.1566-2.3048-.9629-4.7786-1.4564-7.2766-1.4514-1.1271 0-2.2081.4477-3.0052 1.2448-.797.797-1.2448 1.878-1.2448 3.0052 0 1.1271.4478 2.2081 1.2448 3.0052.7971.797 1.8781 1.2448 3.0052 1.2448 2.7616.0032 5.4091 1.1016 7.3618 3.0543 1.9526 1.9527 3.0511 4.6002 3.0542 7.3617v35.175c0 1.1271.4478 2.2081 1.2448 3.0052.7971.797 1.8781 1.2448 3.0052 1.2448 1.1272 0 2.2082-.4478 3.0052-1.2448.7971-.7971 1.2448-1.8781 1.2448-3.0052v-35.175c0-2.7628 1.0975-5.4124 3.0511-7.366 1.9536-1.9535 4.6032-3.051 7.3659-3.051 2.7628 0 5.4124 1.0975 7.366 3.051 1.9535 1.9536 3.051 4.6032 3.051 7.366v35.175c0 1.1271.4478 2.2081 1.2448 3.0052.7971.797 1.8781 1.2448 3.0052 1.2448 1.1272 0 2.2082-.4478 3.0052-1.2448.7971-.7971 1.2448-1.8781 1.2448-3.0052v-35.155c0-.019 0-.038 0-.059.0138-2.7547 1.1168-5.3921 3.0683-7.3363 1.9516-1.9442 4.593-3.0373 7.3477-3.0407z" fill="#fff"/></svg>