<svg fill="none" height="128" viewBox="0 0 128 128" width="128" xmlns="http://www.w3.org/2000/svg"><path d="m63.9997 107.1c-6.3511.003-12.5544-1.916-17.7934-5.507-5.239-3.5899-9.2682-8.6824-11.5572-14.6067s-2.7306-12.4029-1.2666-18.583 4.7649-11.7722 9.4682-16.0401c-3.2552-2.939-5.856-6.5297-7.6337-10.5389-1.7778-4.0092-2.6926-8.3474-2.6852-12.7331-.012-1.0837.1911-2.1591.5975-3.1638.4065-1.0047 1.0082-1.9188 1.7703-2.6894s1.6695-1.3823 2.6697-1.7998c1.0001-.4176 2.0731-.6325 3.1569-.6325 1.0839 0 2.1569.2149 3.157.6325 1.0002.4175 1.9076 1.0292 2.6697 1.7998s1.3638 1.6847 1.7703 2.6894c.4064 1.0047.6095 2.0801.5975 3.1638.0324 3.9778 1.6353 7.7816 4.4596 10.583 2.8242 2.8013 6.641 4.3732 10.6189 4.3732 3.978 0 7.7948-1.5719 10.619-4.3732 2.8243-2.8014 4.4272-6.6052 4.4596-10.583-.012-1.0837.1911-2.1591.5975-3.1638.4065-1.0047 1.0082-1.9188 1.7703-2.6894s1.6695-1.3823 2.6697-1.7998c1.0001-.4176 2.0731-.6325 3.1569-.6325s2.1569.2149 3.157.6325c1.0002.4175 1.9076 1.0292 2.6697 1.7998s1.3638 1.6847 1.7703 2.6894c.4064 1.0047.6095 2.0801.5976 3.1638.0073 4.3857-.9075 8.7239-2.6853 12.7331-1.7777 4.0092-4.3785 7.5999-7.6337 10.5389 4.7033 4.2679 8.0042 9.8598 9.4682 16.0399 1.4639 6.18 1.0224 12.6585-1.2664 18.5827-2.2889 5.9243-6.3179 11.0168-11.5568 14.6072-5.2388 3.59-11.442 5.51-17.7931 5.507zm-23.273-82.6998c-1.2456.0013-2.4398.4971-3.3201 1.3784-.8804.8812-1.3749 2.0759-1.3749 3.3216-.005 4.2154.9473 8.3768 2.7851 12.1705 1.8377 3.7937 4.513 7.1205 7.8239 9.7295.2064.1638.3731.372.4877.6093.1146.2372.1741.4972.1741.7607 0 .2634-.0595.5235-.1741.7607s-.2813.4455-.4877.6093c-4.5537 3.6046-7.8723 8.5374-9.4953 14.1138-1.6229 5.5763-1.4696 11.5196.4386 17.0049 1.9083 5.4853 5.4768 10.2404 10.2103 13.6055 4.7335 3.3646 10.3972 5.1726 16.2049 5.1726 5.8078 0 11.4715-1.808 16.205-5.1726 4.7335-3.3651 8.302-8.1202 10.2103-13.6055 1.9082-5.4853 2.0615-11.4286.4386-17.0049-1.623-5.5764-4.9416-10.5092-9.4954-14.1138-.2063-.1638-.373-.3721-.4876-.6093s-.1741-.4973-.1741-.7607c0-.2635.0595-.5235.1741-.7607.1146-.2373.2813-.4455.4876-.6093 3.311-2.609 5.9863-5.9358 7.824-9.7295 1.8378-3.7937 2.7901-7.9551 2.7851-12.1705.009-.6223-.1057-1.2401-.3375-1.8176-.2319-.5776-.5762-1.1032-1.0131-1.5465-.4368-.4432-.9574-.7952-1.5314-1.0355-.5741-.2402-1.1902-.3639-1.8126-.3639-.6223 0-1.2384.1237-1.8125.3639-.574.2403-1.0946.5923-1.5315 1.0355-.4368.4433-.7811.9689-1.013 1.5465-.2318.5775-.3465 1.1953-.3374 1.8176-.036 4.9037-2.0093 9.5943-5.4895 13.0491s-8.1852 5.3936-13.0891 5.3936c-4.9038 0-9.6088-1.9388-13.089-5.3936s-5.4535-8.1454-5.4895-13.0491c.0001-1.2455-.4943-2.44-1.3744-3.3213-.8802-.8812-2.0741-1.3771-3.3196-1.3787zm23.273 69.815c-3.6746.0002-7.2668-1.0893-10.3223-3.1307-3.0554-2.0414-5.4369-4.9431-6.8432-8.338s-1.7744-7.1306-1.0575-10.7346c.7168-3.6041 2.4863-6.9147 5.0847-9.513 2.5984-2.5984 5.9089-4.3679 9.513-5.0848 3.6041-.7168 7.3398-.3488 10.7347 1.0575s6.2965 3.7878 8.3379 6.8433c2.0414 3.0554 3.1309 6.6476 3.1308 10.3223-.0059 4.9254-1.9651 9.6474-5.4479 13.1302-3.4827 3.4828-8.2047 5.442-13.1302 5.4478zm0-33.657c-2.9823-.0002-5.8978.884-8.3777 2.5408-2.4798 1.6568-4.4127 4.0117-5.5541 6.767-1.1415 2.7553-1.4402 5.7872-.8585 8.7123.5817 2.9252 2.0177 5.6121 4.1265 7.721s4.7956 3.5452 7.7207 4.1271 5.957.2833 8.7124-.8579c2.7554-1.1413 5.1105-3.074 6.7674-5.5538 1.657-2.4797 2.5414-5.3951 2.5414-8.3775-.0056-3.9973-1.5959-7.8294-4.4224-10.656-2.8264-2.8266-6.6583-4.4172-10.6557-4.423z" fill="#fff"/></svg>