<svg fill="none" height="128" viewBox="0 0 128 128" width="128" xmlns="http://www.w3.org/2000/svg"><g fill="#fff"><path d="m28.8537 61.4168c.9454.1078 1.9028.0271 2.8168-.2374s1.7665-.7076 2.5082-1.3036l6.931-5.541 6.93 5.54c1.2809 1.0346 2.8776 1.5988 4.524 1.5988 1.6465 0 3.2432-.5642 4.524-1.5988l6.921-5.538 6.925 5.537c1.2814 1.0338 2.8782 1.5975 4.5245 1.5975 1.6464 0 3.2432-.5637 4.5245-1.5975l6.918-5.536 6.917 5.536c1.5004 1.2003 3.4161 1.7555 5.3258 1.5434 1.9095-.2121 3.6565-1.1741 4.8575-2.6744.594-.7425 1.036-1.5948 1.301-2.5083s.348-1.8702.243-2.8155-.395-1.8607-.854-2.694c-.458-.8332-1.077-1.5679-1.819-2.1622l-11.4423-9.157c-1.281-1.0352-2.8783-1.6-4.5255-1.6-1.6471 0-3.2444.5648-4.5255 1.6l-6.921 5.537-6.925-5.537c-1.2814-1.0337-2.8781-1.5975-4.5245-1.5975-1.6463 0-3.2431.5638-4.5245 1.5975l-6.921 5.538-6.93-5.544c-1.2806-1.0337-2.8767-1.5976-4.5225-1.5976-1.6457 0-3.2419.5639-4.5225 1.5976l-11.454 9.16c-1.1193.8944-1.9482 2.1007-2.3819 3.4662-.4336 1.3656-.4525 2.8291-.0543 4.2054s1.1957 2.6036 2.2915 3.5266 2.4408 1.5003 3.8647 1.6588zm-2.918-7.617c.0533-.4888.2029-.9623.4403-1.3929.2374-.4307.5578-.81.9427-1.1161l11.454-9.156c.6617-.5343 1.4866-.8257 2.337-.8257.8505 0 1.6753.2914 2.337.8257l8.023 6.413c.3101.2481.6954.3832 1.0925.3832s.7824-.1351 1.0925-.3832l8.015-6.411c.6625-.5342 1.488-.8256 2.339-.8256.8511 0 1.6765.2914 2.339.8256l8.017 6.411c.3103.2482.6958.3833 1.093.3833.3973 0 .7828-.1351 1.093-.3833l8.013-6.411c.6623-.5348 1.4878-.8264 2.339-.8264.8513 0 1.6768.2916 2.339.8264l11.4433 9.163c.759.6254 1.242 1.5247 1.344 2.5034s-.186 1.9582-.8 2.7265c-.615.7683-1.5078 1.2637-2.485 1.379s-1.9605-.1588-2.7373-.7629l-8.006-6.415c-.3105-.248-.6961-.3831-1.0935-.3831s-.783.1351-1.0935.3831l-8.013 6.41c-.6622.5344-1.4875.8258-2.3385.8258-.8509 0-1.6762-.2914-2.3385-.8258l-8.023-6.411c-.3102-.2481-.6957-.3833-1.093-.3833-.3972 0-.7827.1352-1.093.3833l-8.014 6.411c-.662.5341-1.4869.8253-2.3375.8253-.8505 0-1.6754-.2912-2.3375-.8253l-8.025-6.413c-.3101-.2478-.6954-.3829-1.0925-.3829-.397 0-.7823.1351-1.0925.3829l-8.026 6.415c-.5783.4621-1.2807.7422-2.0183.8051-.7376.0628-1.4772-.0945-2.1254-.452s-1.1759-.8991-1.5163-1.5565c-.3403-.6574-.4781-1.4009-.396-2.1366z"/><path d="m102.871 77.2819-11.4421-9.156c-1.281-1.0353-2.8783-1.6-4.5254-1.6-1.6472 0-3.2445.5647-4.5256 1.6l-6.9209 5.537-6.9251-5.537c-1.2813-1.0337-2.8781-1.5975-4.5244-1.5975-1.6464 0-3.2432.5638-4.5245 1.5975l-6.9211 5.538-6.93-5.539c-1.2806-1.0338-2.8767-1.5976-4.5225-1.5976-1.6457 0-3.2418.5638-4.5224 1.5976l-11.4541 9.154c-.7433.5939-1.3624 1.3284-1.8219 2.1616-.4595.8331-.7503 1.7486-.856 2.6942s-.0241 1.9027.2401 2.8168c.2643.914.7059 1.767 1.2998 2.5104.594.7433 1.3285 1.3624 2.1616 1.8219.8332.4595 1.7487.7504 2.6943.8561.9455.1056 1.9027.024 2.8167-.2402.9141-.2642 1.7671-.7059 2.5104-1.2998l6.931-5.541 6.93 5.54c1.2809 1.0345 2.8776 1.5988 4.524 1.5988 1.6465 0 3.2432-.5643 4.5241-1.5988l6.921-5.537 6.9249 5.537c1.2809 1.0345 2.8776 1.5988 4.5241 1.5988 1.6464 0 3.2431-.5643 4.524-1.5988l6.9199-5.535 6.917 5.534c.7431.5941 1.5959 1.036 2.5098 1.3004.9138.2645 1.8708.3464 2.8163.241.946-.1054 1.861-.396 2.694-.8552s1.568-1.0781 2.162-1.8212c.594-.7426 1.037-1.595 1.302-2.5086.265-.9135.347-1.8703.242-2.8157s-.395-1.8609-.853-2.6942c-.459-.8334-1.077-1.5682-1.82-2.1625zm-1.6 8c-.62.7749-1.5232 1.2717-2.5098 1.381-.9866.1094-1.9763-.1777-2.7513-.798l-8.01-6.414c-.3102-.2481-.6957-.3833-1.093-.3833-.3972 0-.7827.1352-1.0929.3833l-8.014 6.409c-.6623.5344-1.4876.8258-2.3385.8258-.851 0-1.6763-.2914-2.3385-.8258l-8.0231-6.41c-.3102-.2481-.6957-.3833-1.0929-.3833-.3973 0-.7828.1352-1.093.3833l-8.014 6.41c-.6618.5345-1.4868.8261-2.3376.8261-.8507 0-1.6757-.2916-2.3375-.8261l-8.025-6.412c-.3101-.2479-.6954-.3829-1.0925-.3829-.397 0-.7823.135-1.0925.3829l-8.026 6.414c-.7764.6095-1.7622.8877-2.7427.7739-.9806-.1138-1.8764-.6103-2.4927-1.3815-.6162-.7711-.9028-1.7545-.7975-2.736.1054-.9814.5941-1.8816 1.3599-2.5044l11.454-9.157c.6617-.5345 1.4865-.826 2.337-.826.8506 0 1.6754.2915 2.337.826l8.023 6.413c.3102.2479.6955.3829 1.0926.3829.397 0 .7823-.135 1.0924-.3829l8.0151-6.412c.6626-.5339 1.488-.8251 2.3389-.8251.851 0 1.6764.2912 2.3391.8251l8.0169 6.412c.3105.2476.6959.3825 1.0931.3825.3971 0 .7825-.1349 1.0929-.3825l8.013-6.412c.6625-.5343 1.488-.8256 2.339-.8256.8511 0 1.6766.2913 2.339.8256l11.4431 9.157c.775.6205 1.272 1.5235 1.381 2.5103s-.178 1.9766-.798 2.7517z"/></g></svg>