<svg fill="none" height="128" viewBox="0 0 128 128" width="128" xmlns="http://www.w3.org/2000/svg"><g fill="#fff"><path d="m100.154 91.121h-7.3199c-1.4447-.0006-2.8641-.3794-4.1171-1.0987s-2.2958-1.754-3.0249-3.0013l17.2489-21.285c1.812-2.2348 2.953-4.9371 3.292-7.7939.339-2.8569-.138-5.7513-1.376-8.3481-1.238-2.5969-3.186-4.79-5.619-6.3252-2.433-1.5353-5.251-2.35-8.1279-2.3498h-6.557v-1.264c.0039-3.0842-.8456-6.1094-2.4544-8.7408-1.6088-2.6315-3.9142-4.7665-6.6611-6.169-2.747-1.4024-5.8283-2.0176-8.9032-1.7774-3.0749.2401-6.0234 1.3263-8.5193 3.1382-2.8471-2.073-6.2782-3.1898-9.8-3.1898s-6.9529 1.1168-9.8 3.1898c-2.8487-2.0699-6.2787-3.1864-9.8-3.19-.9183-.011-1.8297.1604-2.6813.5042s-1.6265.8532-2.2798 1.4986c-.6533.6455-1.1719 1.4143-1.5259 2.2617s-.5363 1.7566-.5363 2.675.1823 1.8277.5363 2.6751.8726 1.6161 1.5259 2.2616 1.4282 1.1549 2.2798 1.4987 1.763.5151 2.6813.5041c.758.0008 1.4847.3023 2.0207.8383s.8375 1.2627.8383 2.0207v26.207c-.011.9183.1603 1.8297.5041 2.6813s.8532 1.6265 1.4987 2.2798 1.4142 1.172 2.2617 1.526c.8474.354 1.7566.5362 2.675.5362s1.8276-.1822 2.6751-.5362c.8474-.354 1.6161-.8727 2.2616-1.526s1.1549-1.4282 1.4987-2.2798.5151-1.763.5041-2.6813v-26.206c0-.7585.3013-1.4859.8377-2.0223.5363-.5364 1.2638-.8377 2.0223-.8377s1.486.3013 2.0223.8377c.5364.5364.8377 1.2638.8377 2.0223v26.206c-.011.9183.1603 1.8297.5041 2.6813s.8532 1.6265 1.4987 2.2798 1.4142 1.172 2.2616 1.526c.8475.354 1.7567.5362 2.6751.5362s1.8276-.1822 2.6751-.5362c.8474-.354 1.6161-.8727 2.2616-1.526s1.1549-1.4282 1.4987-2.2798.5151-1.763.5041-2.6813v-26.206c0-.7585.3013-1.4859.8377-2.0223.5363-.5364 1.2638-.8377 2.0223-.8377s1.486.3013 2.0223.8377c.5364.5364.8377 1.2638.8377 2.0223v43.184c0 .22 0 .438.012.656l-8.264 10.2c-.5803.7074-1.015 1.5225-1.2791 2.3985-.2641.8759-.3524 1.7955-.2598 2.7057s.3643 1.7928.7994 2.5978 1.025 1.516 1.7359 2.092 1.5286 1.006 2.4061 1.264c.8776.259 1.7977.342 2.7073.244s1.7909-.375 2.5931-.815 1.5094-1.035 2.0811-1.749l3.54-4.368c2.0635 2.197 4.5566 3.946 7.3245 5.139s5.7515 1.804 8.7655 1.796h7.3199c.918.011 1.83-.16 2.681-.504.852-.344 1.627-.853 2.28-1.499.653-.645 1.172-1.414 1.526-2.261.354-.8478.536-1.7571.536-2.6755s-.182-1.8276-.536-2.675-.873-1.6162-1.526-2.2617c-.653-.6454-1.428-1.1548-2.28-1.4986-.851-.3438-1.763-.5152-2.681-.5042zm0 10.379h-7.3199c-2.8488.005-5.6606-.646-8.2174-1.902-2.5569-1.2564-4.7901-3.0846-6.5266-5.343-.1615-.2082-.368-.3773-.604-.4945s-.4955-.1796-.759-.1825h-.019c-.2606 0-.5179.0583-.753.1706-.2352.1123-.4422.2757-.606.4784l-4.863 6c-.5834.678-1.408 1.102-2.2989 1.183-.8909.08-1.778-.19-2.4733-.753-.6952-.563-1.1439-1.3742-1.2508-2.2623-.107-.8881.1362-1.7829.678-2.4947l8.683-10.714c.2744-.3376.4128-.7656.388-1.2-.023-.377-.038-.755-.038-1.137v-43.194c0-1.6868-.6701-3.3044-1.8628-4.4972-1.1927-1.1927-2.8104-1.8628-4.4972-1.8628s-3.3045.6701-4.4972 1.8628c-1.1927 1.1928-1.8628 2.8104-1.8628 4.4972v26.206c.0078.4566-.0754.9102-.2448 1.3344-.1693.4241-.4214.8102-.7416 1.1359s-.702.5843-1.1231.7609c-.4212.1765-.8733.2675-1.33.2675s-.9088-.091-1.33-.2675c-.4211-.1766-.8029-.4352-1.1231-.7609s-.5723-.7118-.7416-1.1359c-.1694-.4242-.2526-.8778-.2448-1.3344v-26.206c0-1.6868-.6701-3.3044-1.8628-4.4972-1.1927-1.1927-2.8104-1.8628-4.4972-1.8628s-3.3045.6701-4.4972 1.8628c-1.1927 1.1928-1.8628 2.8104-1.8628 4.4972v26.206c.0078.4566-.0754.9102-.2448 1.3344-.1693.4241-.4214.8102-.7416 1.1359s-.702.5843-1.1231.7609c-.4212.1765-.8733.2675-1.33.2675s-.9088-.091-1.33-.2675c-.4211-.1766-.8029-.4352-1.1231-.7609s-.5723-.7118-.7416-1.1359c-.1694-.4242-.2526-.8778-.2448-1.3344v-26.206c-.0029-1.6852-.6739-3.3006-1.866-4.4918-1.192-1.1913-2.8077-1.8613-4.493-1.8632-.4566.0078-.9102-.0754-1.3343-.2448-.4242-.1693-.8103-.4214-1.136-.7416-.3256-.3201-.5843-.7019-.7609-1.1231-.1765-.4212-.2674-.8733-.2674-1.33s.0909-.9088.2674-1.3299c.1766-.4212.4353-.803.7609-1.1232.3257-.3201.7118-.5722 1.136-.7416.4241-.1693.8777-.2526 1.3343-.2448 3.1808.0054 6.253 1.1575 8.653 3.245.3182.2757.725.4275 1.146.4275s.8278-.1518 1.146-.4275c2.3975-2.0919 5.4716-3.2446 8.6535-3.2446s6.256 1.1527 8.6535 3.2446c.3182.2757.725.4275 1.146.4275s.8278-.1518 1.146-.4275c1.9149-1.6653 4.2686-2.7442 6.7801-3.1078s5.0746.0035 7.3832 1.0573c2.3085 1.0539 4.2648 2.7501 5.6354 4.8859 1.3705 2.1358 2.0972 4.6209 2.0933 7.1586v3.014c0 .4642.1844.9093.5126 1.2375s.7733.5125 1.2374.5125h8.307c2.2157-.0001 4.3862.6273 6.2601 1.8098 1.8738 1.1824 3.3748 2.8715 4.3278 4.8715.954 2.0001 1.321 4.2293 1.06 6.4297-.261 2.2003-1.14 4.2816-2.535 6.003l-17.9619 22.162c-.202.2487-.3318.5481-.3754.8655s.0009.6406.1284.9345c.9093 2.1159 2.4188 3.9189 4.3418 5.1861s4.1752 1.943 6.4782 1.9439h7.3199c.457-.0078.91.0755 1.334.2448.425.1694.811.4215 1.136.7416.326.3202.585.702.761 1.1232.177.4211.268.8733.268 1.3299 0 .4567-.091.9088-.268 1.33-.176.4212-.435.8025-.761 1.1235-.325.32-.711.572-1.136.741-.424.17-.877.253-1.334.245z"/><path d="m82.7988 73.0718c.2607.0001.518-.0581.7533-.1702s.4426-.2753.6067-.4778l10.718-13.224c.5761-.7116.939-1.5719 1.0466-2.4811.1076-.9093-.0445-1.8305-.4385-2.6569-.3941-.8265-1.0142-1.5245-1.7884-2.0133-.7743-.4888-1.6711-.7483-2.5867-.7487h-8.311c-.4641 0-.9092.1844-1.2374.5126s-.5126.7733-.5126 1.2374v18.272c-.0001.2299.0451.4575.133.6699.0879.2123.2168.4053.3793.5678.1625.1626.3555.2915.5679.3794s.44.133.6698.1329zm1.754-18.272h6.557c.2551-.0002.5051.0719.7209.208.2158.136.3886.3305.4983.5609.1097.2303.1519.487.1216.7403s-.1318.4929-.2928.6908l-7.605 9.384z"/></g></svg>